{
.appVersion = "3257";
.formatVersion = 3;
customParameters = (
{
name = "Use Typo Metrics";
value = 1;
},
{
name = fsType;
value = (
);
}
);
date = "2024-04-18 12:32:25 +0000";
familyName = Damion;
featurePrefixes = (
{
automatic = 1;
code = "languagesystem DFLT dflt;

languagesystem latn dflt;
";
name = Languagesystems;
}
);
features = (
{
automatic = 1;
code = "feature sups;
feature frac;
feature ordn;
";
tag = aalt;
},
{
code = " # Kerning\\012 # Latin\\012lookup kern0 {\\012    pos T a -131;\\012    pos T a -62;\\012    pos T c -46;\\012    pos T i -131;\\012    pos T o -31;\\012    pos T o -61;\\012    pos T o -186;\\012    pos T u -186;\\012    pos T y -139;\\012} kern0;\\012 script DFLT;\\012lookup kern0;";
tag = kern;
},
{
automatic = 1;
code = "lookup ccmp_latn_1 {
	lookupflag 0;
	sub fi by f i;
	sub fl by f l;
} ccmp_latn_1;

script latn;
lookup ccmp_latn_1;
";
tag = ccmp;
},
{
automatic = 1;
code = "sub one by onesuperior;
sub two by twosuperior;
sub three by threesuperior;
sub four by foursuperior;
";
tag = sups;
},
{
automatic = 1;
code = "sub one slash four by onequarter;
sub one slash two by onehalf;
sub three slash four by threequarters;
";
tag = frac;
},
{
automatic = 1;
code = "sub [zero one two three four five six seven eight nine] [A a]' by ordfeminine;
sub [zero one two three four five six seven eight nine] [O o]' by ordmasculine;
";
tag = ordn;
},
{
automatic = 1;
code = "lookupflag IgnoreMarks;
sub f i by fi;
sub f l by fl;
";
tag = liga;
}
);
fontMaster = (
{
customParameters = (
{
name = typoAscender;
value = 1535;
},
{
name = typoDescender;
value = -593;
},
{
name = typoLineGap;
value = 0;
},
{
name = winAscent;
value = 1535;
},
{
name = winDescent;
value = 593;
},
{
name = underlineThickness;
value = 102;
},
{
name = underlinePosition;
value = -154;
},
{
name = strikeoutPosition;
value = 512;
},
{
name = strikeoutSize;
value = 102;
},
{
name = subscriptXOffset;
value = 0;
},
{
name = subscriptXSize;
value = 1434;
},
{

glyphs = (
{
glyphname = A;
layers = (
{
layerId = "DC66AB0F-19FD-4F06-8C39-5D32AA939720";
shapes = (
{
closed = 1;
nodes = (
(1071,266,o),
(1060,217,o),
(1060,195,q),
(1060,175,o),
(1072,147,o),
(1092,147,q),
(1119,147,o),
(1194,186,o),
(1280,251,o),
(1372,336,o),
(1462,427,o),
(1544,519,o),
(1576,559,q),
(1613,426,l),
(1547,338,o),
(1407,176,o),
(1262,52,o),
(1116,-22,o),
(1044,-22,q),
(1002,-22,o),
(943,5,o),
(907,52,o),
(890,113,o),
(890,147,q),
(890,160,o),
(892,208,o),
(895,259,o),
(898,301,o),
(898,307,q),
(543,285,l),
(378,283,l),
(336,192,o),
(295,122,q),
(277,92,o),
(237,34,o),
(197,-11,o),
(157,-38,o),
(138,-38,q),
(108,-38,o),
(70,-20,o),
(48,7,o),
(39,41,o),
(39,56,q),
(39,82,o),
(53,133,o),
(66,156,q),
(198,378,l),
(207,392,o),
(262,498,o),
(349,653,o),
(463,841,o),
(596,1034,o),
(745,1216,o),
(902,1357,o),
(1062,1442,o),
(1141,1442,q),
(1215,1442,o),
(1358,1350,o),
(1423,1245,q),
(1430,1231,o),
(1430,1221,q),
(1430,1208,o),
(1416,1182,o),
(1393,1162,o),
(1365,1150,o),
(1350,1150,q),
(1332,1150,o),
(1285,1166,o),
(1264,1192,q),
(1233,1228,o),
(1166,1261,o),
(1133,1261,q),
(1086,1261,o),
(988,1208,o),
(889,1117,o),
(791,998,o),
(699,866,o),
(613,728,o),
(537,602,o),
(474,496,o),
(450,460,q),
(633,460,l),
(942,483,l),
(951,503,o),
(981,572,o),
(1018,658,o),
(1062,758,o),
(1107,859,o),
(1151,958,o),
(1170,1000,q),
(1183,1038,o),
(1234,1070,o),
(1263,1070,q),
(1278,1070,o),
(1308,1061,o),
(1333,1042,o),
(1349,1013,o),
(1350,993,q),
(1350,974,o),
(1317,882,o),
(1266,758,o),
(1203,613,o),
(1142,468,o),
(1090,335,o),
(1076,285,q)
);
}
);
width = 1323;
}
);
unicode = 65;
},
{
glyphname = AE;
layers = (
{
layerId = "DC66AB0F-19FD-4F06-8C39-5D32AA939720";
shapes = (
{
closed = 1;
nodes = (
(1817,825,ls),
(1893,825,o),
(1931,802,o),
(1931,774,cs),
(1931,721,o),
(1871,701,o),
(1803,688,cs),
(1768,681,o),
(1675,679,o),
(1536,679,c),
(1480,581,o),
(1428,488,o),
(1381,399,cs),
(1340,322,o),
(1323,268,o),
(1323,229,cs),
(1323,137,o),
(1415,128,o),
(1519,128,cs),
(1543,128,o),
(1566,129,o),
(1590,129,cs),
(2081,129,o),
(2099,509,o),
(2296,509,cs),
(2347,509,o),
(2374,486,o),
(2374,446,cs),
(2374,281,o),
(1975,-38,o),
(1555,-38,cs),
(1344,-38,o),
(1074,-8,o),
(1074,176,cs),
(1074,215,o),
(1086,259,o),
(1111,309,c),
(1086,309,o),
(1065,307,o),
(1060,307,c),
(732,285,l),
(566,283,l),
(529,222,o),
(492,169,o),
(457,122,cs),
(395,41,o),
(324,-38,o),
(274,-38,cs),
(206,-38,o),
(188,1,o),
(188,37,cs),
(188,76,o),
(207,121,o),
(234,156,cs),
(403,378,l),
(463,455,o),
(1106,1469,o),
(1527,1469,cs),
(1619,1469,o),
(1722,1422,o),
(1759,1268,c),
(1892,1418,o),
(2119,1504,o),
(2305,1504,cs),
(2531,1504,o),
(2684,1413,o),
(2684,1213,c),
(2682,1202,ls),
(2669,1134,o),
(2590,1058,o),
(2499,1058,cs),
(2458,1058,o),
(2447,1076,o),
(2447,1105,cs),
(2447,1137,o),
(2462,1184,o),
(2462,1228,cs),
(2462,1304,o),
(2378,1335,o),
(2267,1335,cs),
(2109,1335,o),
(1861,1238,o),
(1781,1099,cs),
(1621,825,l)
);
},
{
closed = 1;
nodes = (
(1551,1105,o),
(1610,1188,o),
(1610,1214,cs),
(1610,1217,o),
(1610,1218,o),
(1609,1219,c),
(1577,1268,o),
(1536,1288,o),
(1489,1288,cs),
(1239,1288,o),
(827,656,o),
(668,460,c),
(851,460,l),
(1164,483,l),
(1212,563,o),
(1371,820,o),
(1476,985,cs)
);
}
);
width = 2029;
}
);
unicode = 198;
},
{
glyphname = B;
layers = (
{
layerId = "DC66AB0F-19FD-4F06-8C39-5D32AA939720";
shapes = (
{
closed = 1;
nodes = (
(963,960,o),
(1097,1036,o),
(1187,1111,o),
(1233,1181,o),
(1233,1210,q),
(1233,1220,o),
(1213,1246,o),
(1172,1268,o),
(1110,1283,o),
(1069,1283,q),
(959,1283,o),
(771,1230,o),
(617,1154,o),
(499,1071,o),
(459,1040,q),
(434,1021,o),
(397,984,o),
(362,955,o),
(322,937,o),
(294,937,q),
(252,937,o),
(205,977,o),
(205,1013,q),
(205,1056,o),
(273,1153,o),
(393,1249,o),
(555,1336,o),
(742,1402,o),
(945,1442,o),
(1047,1442,q),
(1152,1442,o),
(1304,1408,o),
(1401,1348,o),
(1448,1266,o),
(1448,1170,o),
(1384,1066,o),
(1265,962,o),
(1094,867,o),
(987,828,q),
(1093,793,o),
(1226,716,o),
(1301,633,o),
(1327,544,o),
(1327,497,q),
(1327,428,o),
(1251,294,o),
(1116,175,o),
(931,74,o),
(713,1,o),
(471,-40,o),
(347,-40,q),
(303,-40,o),
(213,-30,o),
(138,-4,o),
(91,40,o),
(91,75,q),
(91,79,o),
(92,86,o),
(93,91,q),
(97,99,o),
(107,122,o),
(143,144,o),
(220,159,o),
(292,159,q),
(417,388,o),
(580,719,o),
(690,933,o),
(765,1035,o),
(801,1035,q),
(817,1035,o),
(847,1025,o),
(870,1008,o),
(884,983,o),
(884,968,q),
(876,958,o),
(874,937,o),
(874,924,q)
);
},
{
closed = 1;
nodes = (
(774,631,o),
(695,469,o),
(625,334,o),
(562,217,o),
(532,161,q),
(648,171,o),
(849,232,o),
(998,322,o),
(1083,434,o),
(1083,496,q),
(1083,524,o),
(1058,586,o),
(998,648,o),
(896,708,o),
(819,733,q)
);
}
);
width = 1293;
}
);
unicode = 66;
},
{
glyphname = C;
layers = (
{
layerId = "DC66AB0F-19FD-4F06-8C39-5D32AA939720";
shapes = (
{
closed = 1;
nodes = (
(1364,1236,o),
(1347,1160,o),
(1315,1078,o),
(1270,997,o),
(1212,932,o),
(1144,892,o),
(1105,892,q),
(1096,892,o),
(1067,895,o),
(1038,906,o),
(1017,928,o),
(1017,946,q),
(1017,958,o),
(1030,990,o),
(1047,1011,q),
(1065,1031,o),
(1107,1086,o),
(1141,1146,o),
(1164,1204,o),
(1164,1227,q),
(1164,1256,o),
(1137,1291,o),
(1104,1291,q),
(1061,1291,o),
(953,1235,o),
(835,1137,o),
(713,1006,o),
(599,857,o),
(498,696,o),
(423,539,o),
(380,394,o),
(380,335,q),
(380,262,o),
(458,174,o),
(548,174,q),
(590,174,o),
(756,239,o),
(867,304,o),
(980,383,o),
(1082,456,o),
(1166,515,o),
(1193,527,q),
(1198,531,o),
(1205,531,q),
(1220,531,o),
(1231,482,o),
(1231,451,q),
(1231,434,o),
(1222,385,o),
(1198,353,q),
(1187,340,o),
(1127,278,o),
(1037,200,o),
(921,116,o),
(786,46,o),
(573,-22,o),
(494,-22,q),
(401,-22,o),
(269,23,o),
(185,103,o),
(146,214,o),
(146,280,q),
(146,362,o),
(196,550,o),
(285,744,o),
(408,938,o),
(555,1115,o),
(721,1267,o),
(895,1379,o),
(1071,1443,o),
(1156,1443,q),
(1198,1443,o),
(1274,1424,o),
(1331,1382,o),
(1364,1313,o),
(1364,1263,q)
);
}
);
width = 1039;
}
);
unicode = 67;
},
{
glyphname = D;
layers = (
{
layerId = "DC66AB0F-19FD-4F06-8C39-5D32AA939720";
shapes = (
{
closed = 1;
nodes = (
(911,870,o),
(856,768,o),
(785,642,o),
(702,497,o),
(613,351,o),
(520,210,o),
(476,150,q),
(584,161,o),
(784,249,o),
(959,380,o),
(1104,543,o),
(1207,718,o),
(1264,894,o),
(1264,972,q),
(1264,1038,o),
(1231,1150,o),
(1164,1232,o),
(1060,1278,o),
(990,1278,q),
(925,1278,o),
(794,1253,o),
(674,1211,o),
(573,1154,o),
(537,1121,q),
(497,1077,o),
(436,989,o),
(377,919,o),
(309,875,o),
(263,875,q),
(177,875,o),
(177,951,q),
(177,999,o),
(239,1110,o),
(350,1219,o),
(503,1320,o),
(687,1397,o),
(895,1443,o),
(1005,1443,q),
(1133,1443,o),
(1323,1367,o),
(1448,1234,o),
(1509,1054,o),
(1509,846,o),
(1438,618,o),
(1301,398,o),
(1100,200,o),
(839,50,o),
(522,-38,o),
(338,-38,q),
(298,-38,o),
(252,13,o),
(252,50,q),
(252,79,o),
(272,133,o),
(288,156,q),
(699,973,l),
(728,1018,o),
(785,1072,o),
(834,1102,o),
(872,1111,o),
(882,1111,q),
(927,1111,o),
(965,1059,o),
(965,1023,q),
(965,994,o),
(945,930,o),
(928,901,q)
);
}
);
width = 1397;
}
);
unicode = 68;
},
{
glyphname = Eth;
layers = (
{
layerId = "DC66AB0F-19FD-4F06-8C39-5D32AA939720";
shapes = (
{
closed = 1;
nodes = (
(911,735,l),
(928,735,o),
(948,706,o),
(948,687,q),
(948,662,o),
(910,617,o),
(866,617,q),
(718,617,l),
(685,559,o),
(613,436,o),
(538,315,o),
(461,200,o),
(424,150,q),
(532,161,o),
(732,249,o),
(907,380,o),
(1052,543,o),
(1155,718,o),
(1212,894,o),
(1212,972,q),
(1212,1038,o),
(1179,1150,o),
(1112,1232,o),
(1008,1278,o),
(938,1278,q),
(873,1278,o),
(742,1253,o),
(622,1211,o),
(521,1154,o),
(485,1121,q),
(445,1077,o),
(384,989,o),
(325,919,o),
(257,875,o),
(211,875,q),
(125,875,o),
(125,951,q),
(125,999,o),
(187,1110,o),
(298,1219,o),
(451,1320,o),
(635,1397,o),
(843,1443,o),
(953,1443,q),
(1081,1443,o),
(1271,1367,o),
(1396,1234,o),
(1457,1054,o),
(1457,846,o),
(1386,618,o),
(1249,398,o),
(1048,200,o),
(787,50,o),
(470,-38,o),
(286,-38,q),
(246,-38,o),
(200,13,o),
(200,50,q),
(200,79,o),
(220,133,o),
(236,156,q),
(468,617,l),
(271,617,l),
(254,617,o),
(237,641,o),
(237,658,q),
(237,671,o),
(248,698,o),
(271,720,o),
(307,735,o),
(333,735,q),
(527,735,l),
(647,973,l),
(676,1018,o),
(733,1072,o),
(782,1102,o),
(820,1111,o),
(830,1111,q),
(875,1111,o),
(913,1059,o),
(913,1023,q),
(913,994,o),
(893,930,o),
(876,901,q),
(785,735,l)
);
}
);
width = 1216;
}
);
unicode = 208;
},
{
glyphname = E;
layers = (
{
layerId = "DC66AB0F-19FD-4F06-8C39-5D32AA939720";
shapes = (
{
closed = 1;
nodes = (
(1094,825,o),
(1124,817,o),
(1148,803,o),
(1162,784,o),
(1162,774,q),
(1162,758,o),
(1122,725,o),
(1024,697,o),
(861,679,o),
(737,679,q),
(670,679,o),
(538,642,o),
(434,570,o),
(369,466,o),
(369,399,q),
(369,345,o),
(400,247,o),
(463,173,o),
(558,129,o),
(623,129,q),
(754,129,o),
(928,160,o),
(1045,207,o),
(1120,261,o),
(1185,308,o),
(1254,339,o),
(1306,339,q),
(1348,339,o),
(1396,298,o),
(1396,260,q),
(1396,234,o),
(1341,170,o),
(1240,103,o),
(1098,41,o),
(924,-8,o),
(724,-38,o),
(616,-38,q),
(517,-38,o),
(343,15,o),
(213,121,o),
(138,280,o),
(138,387,q),
(138,479,o),
(222,630,o),
(367,744,o),
(560,818,o),
(669,832,q),
(585,895,o),
(517,1016,o),
(517,1075,q),
(517,1133,o),
(575,1232,o),
(676,1314,o),
(810,1377,o),
(964,1420,o),
(1129,1443,o),
(1209,1443,q),
(1291,1443,o),
(1438,1409,o),
(1554,1337,o),
(1628,1227,o),
(1636,1152,q),
(1636,1131,o),
(1616,1087,o),
(1575,1050,o),
(1516,1027,o),
(1477,1027,q),
(1456,1027,o),
(1431,1037,o),
(1418,1055,o),
(1415,1080,o),
(1415,1095,q),
(1415,1142,o),
(1393,1210,o),
(1342,1253,o),
(1260,1274,o),
(1199,1274,q),
(1126,1274,o),
(968,1243,o),
(836,1184,o),
(751,1102,o),
(751,1051,q),
(751,991,o),
(806,905,o),
(897,850,o),
(1015,825,o),
(1078,825,q)
);
}
);
width = 1155;
}
);
unicode = 69;
},
{
glyphname = F;
layers = (
{
layerId = "DC66AB0F-19FD-4F06-8C39-5D32AA939720";
shapes = (
{
closed = 1;
nodes = (
(1170,797,o),
(1148,763,o),
(1122,744,o),
(1089,738,o),
(1067,738,q),
(973,746,o),
(838,754,o),
(786,754,q),
(735,754,o),
(658,746,o),
(621,736,q),
(606,712,o),
(546,608,o),
(473,475,o),
(397,325,o),
(365,256,q),
(296,106,o),
(187,-42,o),
(149,-42,q),
(103,-42,o),
(62,-9,o),
(62,23,q),
(62,61,o),
(117,198,o),
(166,296,q),
(184,332,o),
(227,414,o),
(271,496,o),
(313,574,o),
(347,637,o),
(370,681,o),
(373,688,q),
(376,696,o),
(379,702,o),
(380,705,o),
(380,706,o),
(381,710,q),
(363,710,l),
(325,710,o),
(279,722,o),
(279,742,q),
(279,753,o),
(288,770,q),
(309,809,o),
(361,850,o),
(410,868,o),
(451,869,o),
(462,869,q),
(489,924,o),
(543,1034,o),
(570,1089,q),
(621,1190,o),
(726,1326,o),
(850,1408,o),
(1000,1443,o),
(1096,1443,q),
(1184,1443,o),
(1289,1433,o),
(1310,1428,q),
(1350,1417,o),
(1383,1364,o),
(1383,1332,q),
(1383,1307,o),
(1366,1257,o),
(1337,1216,o),
(1300,1190,o),
(1281,1190,q),
(1270,1190,o),
(1262,1194,q),
(1240,1204,o),
(1205,1219,o),
(1169,1228,o),
(1124,1232,o),
(1091,1232,q),
(1057,1232,o),
(964,1229,o),
(897,1226,q),
(870,1179,o),
(823,1098,o),
(778,1019,o),
(731,938,o),
(703,890,q),
(740,903,o),
(827,924,o),
(918,938,o),
(1010,946,o),
(1052,946,q),
(1128,946,o),
(1195,922,o),
(1195,885,q),
(1195,877,o),
(1193,846,o),
(1182,826,q)
);
}
);
width = 855;
}
);
unicode = 70;
},
{
glyphname = G;
layers = (
{
layerId = "DC66AB0F-19FD-4F06-8C39-5D32AA939720";
shapes = (
{
closed = 1;
nodes = (
(1241,430,o),
(1220,377,o),
(1190,297,o),
(1155,198,o),
(1118,95,o),
(1084,-4,o),
(1057,-84,o),
(1039,-138,o),
(1037,-143,q),
(1032,-159,o),
(1010,-198,o),
(980,-233,o),
(944,-256,o),
(925,-256,q),
(893,-256,o),
(864,-220,o),
(864,-172,q),
(864,-165,o),
(864,-151,o),
(865,-143,q),
(866,-127,o),
(894,-39,o),
(933,72,o),
(978,191,o),
(996,238,q),
(943,188,o),
(819,89,o),
(689,10,o),
(557,-40,o),
(496,-40,q),
(426,-40,o),
(325,12,o),
(259,96,o),
(227,202,o),
(227,255,q),
(227,262,o),
(227,274,o),
(228,280,q),
(234,376,o),
(287,578,o),
(373,778,o),
(486,969,o),
(619,1139,o),
(769,1282,o),
(927,1385,o),
(1088,1443,o),
(1167,1443,q),
(1258,1443,o),
(1428,1359,o),
(1502,1265,q),
(1519,1244,o),
(1528,1201,o),
(1528,1182,q),
(1528,1137,o),
(1477,1085,o),
(1442,1085,q),
(1410,1085,o),
(1355,1142,o),
(1321,1195,q),
(1289,1243,o),
(1212,1286,o),
(1167,1286,q),
(1097,1286,o),
(938,1188,o),
(782,1027,o),
(639,820,o),
(529,603,o),
(464,392,o),
(464,308,q),
(464,280,o),
(473,221,o),
(498,173,o),
(541,142,o),
(574,142,q),
(611,142,o),
(705,184,o),
(806,252,o),
(908,338,o),
(996,426,o),
(1064,507,o),
(1081,537,q),
(1174,772,l),
(1191,810,o),
(1246,842,o),
(1275,842,q),
(1289,842,o),
(1317,834,o),
(1339,817,o),
(1352,790,o),
(1352,772,q),
(1352,724,o),
(1332,640,o),
(1301,560,o),
(1263,479,o),
(1245,435,q)
);
}
);
width = 1336;
}
);
unicode = 71;
},
{
glyphname = H;
layers = (
{
layerId = "DC66AB0F-19FD-4F06-8C39-5D32AA939720";
shapes = (
{
closed = 1;
nodes = (
(1396,405,o),
(1389,404,o),
(1385,404,q),
(1336,294,o),
(1261,128,o),
(1241,91,q),
(1224,60,o),
(1181,14,o),
(1133,-17,o),
(1084,-32,o),
(1063,-32,q),
(1032,-32,o),
(990,-2,o),
(990,28,q),
(990,54,o),
(1006,89,q),
(1150,394,l),
(1041,390,o),
(840,384,o),
(747,382,q),
(700,286,o),
(592,117,o),
(472,-9,o),
(342,-82,o),
(272,-82,q),
(218,-82,o),
(172,-54,q),
(158,-48,o),
(125,-15,o),
(97,31,o),
(78,85,o),
(78,113,q),
(78,133,o),
(92,170,o),
(105,187,q),
(111,194,o),
(127,216,o),
(149,237,o),
(174,251,o),
(189,251,q),
(195,251,o),
(207,248,o),
(212,244,q),
(222,238,o),
(241,196,o),
(264,151,o),
(292,115,o),
(311,115,q),
(338,115,o),
(393,156,o),
(450,229,o),
(508,331,o),
(537,391,q),
(505,401,o),
(479,438,o),
(479,458,q),
(479,470,o),
(497,494,o),
(529,513,o),
(572,527,o),
(598,528,q),
(634,616,o),
(700,806,o),
(760,988,o),
(810,1155,o),
(848,1287,o),
(872,1373,o),
(875,1384,q),
(883,1415,o),
(928,1443,o),
(954,1443,q),
(993,1443,o),
(1034,1392,o),
(1034,1325,q),
(1034,1317,o),
(1034,1300,o),
(1033,1290,q),
(1031,1264,o),
(1015,1175,o),
(989,1059,o),
(951,920,o),
(904,769,o),
(847,609,o),
(814,530,q),
(845,530,o),
(919,530,o),
(1012,529,o),
(1130,526,o),
(1206,524,q),
(1207,524,o),
(1209,523,o),
(1210,523,q),
(1298,708,o),
(1456,1035,o),
(1588,1280,o),
(1690,1422,o),
(1723,1422,q),
(1758,1422,o),
(1793,1389,o),
(1793,1361,q),
(1793,1346,o),
(1786,1323,o),
(1780,1309,q),
(1754,1246,o),
(1674,1062,o),
(1580,849,o),
(1479,620,o),
(1432,513,q),
(1462,507,o),
(1501,486,o),
(1501,469,q),
(1501,447,o),
(1455,408,o),
(1401,405,q)
);
}
);
width = 1467;
}
);
unicode = 72;
},
{
glyphname = I;
layers = (
{
layerId = "DC66AB0F-19FD-4F06-8C39-5D32AA939720";
shapes = (
{
closed = 1;
nodes = (
(712,15,o),
(609,20,o),
(564,20,q),
(534,20,o),
(477,18,o),
(420,17,o),
(359,15,o),
(325,15,q),
(292,15,o),
(256,53,o),
(256,81,q),
(256,92,o),
(259,104,q),
(262,114,o),
(303,137,o),
(370,158,o),
(460,174,o),
(511,178,q),
(563,291,o),
(676,522,o),
(790,741,o),
(898,941,o),
(992,1106,o),
(1067,1228,o),
(1091,1260,q),
(1040,1249,o),
(944,1224,o),
(884,1212,q),
(872,1208,o),
(860,1208,q),
(831,1208,o),
(799,1249,o),
(799,1278,q),
(799,1291,o),
(846,1326,o),
(929,1363,o),
(1042,1398,o),
(1175,1426,o),
(1322,1443,o),
(1397,1443,q),
(1467,1443,o),
(1546,1414,o),
(1546,1379,q),
(1546,1362,o),
(1526,1327,o),
(1493,1299,o),
(1447,1282,o),
(1422,1282,q),
(1408,1282,o),
(1384,1285,o),
(1370,1285,q),
(1333,1285,o),
(1269,1282,o),
(1240,1280,q),
(1242,1270,o),
(1242,1265,q),
(1242,1251,o),
(1232,1226,o),
(1227,1215,q),
(1196,1150,o),
(1108,967,o),
(1008,761,o),
(905,549,o),
(813,361,o),
(739,214,o),
(720,176,q),
(776,171,o),
(870,154,o),
(937,129,o),
(975,95,o),
(975,74,q),
(975,59,o),
(955,30,o),
(923,7,o),
(883,-6,o),
(862,-6,q),
(839,-6,o),
(798,6,o),
(778,8,q)
);
}
);
width = 1075;
}
);
unicode = 73;
},
{
glyphname = J;
layers = (
{
layerId = "DC66AB0F-19FD-4F06-8C39-5D32AA939720";
shapes = (
{
closed = 1;
nodes = (
(1264,636,l),
(1202,499,o),
(1057,252,o),
(892,66,o),
(712,-43,o),
(616,-43,q),
(560,-43,o),
(446,-7,o),
(327,70,o),
(206,191,o),
(144,277,q),
(129,294,o),
(117,328,o),
(117,348,q),
(117,363,o),
(136,407,o),
(172,448,o),
(224,477,o),
(257,477,q),
(277,477,o),
(311,463,o),
(325,446,q),
(405,286,o),
(562,138,o),
(639,138,q),
(695,138,o),
(806,211,o),
(916,350,o),
(1027,550,o),
(1083,677,q),
(1370,1272,l),
(1263,1273,o),
(1124,1273,o),
(1098,1273,q),
(1080,1273,o),
(1051,1289,o),
(1030,1313,o),
(1018,1343,o),
(1018,1357,q),
(1018,1385,o),
(1062,1420,o),
(1110,1420,q),
(1119,1420,o),
(1138,1419,o),
(1147,1419,q),
(1221,1419,o),
(1370,1427,o),
(1517,1436,o),
(1664,1444,o),
(1736,1444,q),
(1793,1444,o),
(1866,1437,o),
(1908,1424,o),
(1924,1404,o),
(1924,1392,q),
(1924,1376,o),
(1909,1342,o),
(1867,1313,o),
(1790,1295,o),
(1728,1295,q),
(1699,1295,o),
(1630,1290,o),
(1589,1285,q)
);
}
);
width = 1257;
}
);
unicode = 74;
},
{
glyphname = K;
layers = (
{
layerId = "DC66AB0F-19FD-4F06-8C39-5D32AA939720";
shapes = (
{
closed = 1;
nodes = (
(274,-48,o),
(243,-16,o),
(215,28,o),
(197,81,o),
(197,108,q),
(197,148,o),
(225,187,q),
(231,194,o),
(248,216,o),
(271,237,o),
(297,251,o),
(311,251,q),
(317,251,o),
(329,248,o),
(334,244,q),
(344,238,o),
(362,196,o),
(384,151,o),
(412,115,o),
(430,115,q),
(464,115,o),
(540,182,o),
(618,298,o),
(698,453,o),
(775,629,o),
(847,817,o),
(912,997,o),
(967,1161,o),
(1008,1290,o),
(1034,1374,o),
(1037,1385,q),
(1046,1416,o),
(1091,1444,o),
(1117,1444,q),
(1155,1444,o),
(1195,1397,o),
(1195,1335,q),
(1195,1325,o),
(1194,1303,o),
(1193,1291,q),
(1190,1262,o),
(1169,1159,o),
(1133,1025,o),
(1083,865,o),
(1052,779,q),
(1195,901,o),
(1416,1083,o),
(1583,1214,o),
(1701,1299,o),
(1782,1348,o),
(1830,1368,o),
(1844,1368,q),
(1859,1368,o),
(1881,1352,o),
(1896,1330,o),
(1903,1307,o),
(1903,1300,q),
(1903,1283,o),
(1886,1252,o),
(1869,1241,q),
(1799,1192,o),
(1645,1074,o),
(1490,949,o),
(1340,823,o),
(1207,711,o),
(1098,621,o),
(1061,593,q),
(1114,522,o),
(1213,394,o),
(1304,273,o),
(1389,157,o),
(1427,98,q),
(1440,78,o),
(1451,39,o),
(1451,23,q),
(1451,-4,o),
(1427,-44,o),
(1394,-70,o),
(1359,-83,o),
(1347,-83,q),
(1314,-83,o),
(1255,-36,o),
(1234,0,q),
(1203,41,o),
(1162,99,o),
(1128,150,o),
(1095,204,o),
(1046,281,o),
(974,389,o),
(920,469,q),
(867,359,o),
(746,159,o),
(612,7,o),
(466,-82,o),
(389,-82,q),
(362,-82,o),
(311,-68,o),
(288,-54,q)
);
}
);
width = 1596;
}
);
unicode = 75;
},
{
glyphname = L;
layers = (
{
layerId = "DC66AB0F-19FD-4F06-8C39-5D32AA939720";
shapes = (
{
closed = 1;
nodes = (
(326,196,o),
(354,169,o),
(413,145,o),
(506,130,o),
(571,129,q),
(541,145,o),
(480,180,o),
(424,209,o),
(378,228,o),
(362,228,q),
(326,228,o),
(326,209,q)
);
},
{
closed = 1;
nodes = (
(1230,1352,o),
(1272,1398,o),
(1320,1428,o),
(1370,1443,o),
(1392,1443,q),
(1424,1443,o),
(1468,1410,o),
(1468,1378,q),
(1468,1353,o),
(1455,1324,q),
(1399,1204,o),
(1283,961,o),
(1166,729,o),
(1054,514,o),
(950,330,o),
(859,184,o),
(822,136,q),
(909,142,o),
(1053,162,o),
(1187,188,o),
(1322,219,o),
(1400,235,q),
(1405,237,o),
(1417,239,o),
(1422,239,q),
(1453,239,o),
(1489,190,o),
(1489,159,q),
(1489,140,o),
(1417,97,o),
(1292,55,o),
(1123,16,o),
(927,-13,o),
(713,-30,o),
(607,-30,q),
(484,-30,o),
(306,4,o),
(191,64,o),
(136,146,o),
(136,194,q),
(136,241,o),
(171,306,o),
(232,346,o),
(315,364,o),
(363,364,q),
(402,364,o),
(486,336,o),
(567,291,o),
(640,236,o),
(667,208,q),
(690,268,o),
(755,416,o),
(831,579,o),
(915,750,o),
(999,916,o),
(1079,1070,o),
(1147,1198,o),
(1200,1296,o),
(1215,1322,q)
);
}
);
width = 1297;
}
);
unicode = 76;
},
{
glyphname = Lslash;
layers = (
{
layerId = "DC66AB0F-19FD-4F06-8C39-5D32AA939720";
shapes = (
{
closed = 1;
nodes = (
(196,196,o),
(224,169,o),
(283,145,o),
(376,130,o),
(441,129,q),
(411,145,o),
(350,180,o),
(294,209,o),
(248,228,o),
(232,228,q),
(196,228,o),
(196,209,q)
);
},
{
closed = 1;
nodes = (
(1100,1352,o),
(1142,1398,o),
(1190,1428,o),
(1240,1443,o),
(1262,1443,q),
(1294,1443,o),
(1338,1410,o),
(1338,1378,q),
(1338,1353,o),
(1325,1324,q),
(1269,1204,o),
(1211,1082,q),
(1168,992,o),
(1125,906,q),
(1178,920,o),
(1222,932,q),
(1274,946,o),
(1308,955,q),
(1311,956,o),
(1316,956,q),
(1334,956,o),
(1359,922,o),
(1359,900,q),
(1359,879,o),
(1330,838,o),
(1295,829,q),
(1259,819,o),
(1206,805,q),
(1153,790,o),
(1092,774,q),
(1073,769,o),
(1053,764,q),
(1016,692,o),
(980,622,q),
(924,514,o),
(820,330,o),
(729,184,o),
(692,136,q),
(779,142,o),
(923,162,o),
(1057,188,o),
(1192,219,o),
(1270,235,q),
(1275,237,o),
(1287,239,o),
(1292,239,q),
(1323,239,o),
(1359,190,o),
(1359,159,q),
(1359,140,o),
(1287,97,o),
(1162,55,o),
(993,16,o),
(797,-13,o),
(583,-30,o),
(477,-30,q),
(354,-30,o),
(176,4,o),
(61,64,o),
(6,146,o),
(6,194,q),
(6,241,o),
(41,306,o),
(102,346,o),
(185,364,o),
(233,364,q),
(272,364,o),
(356,336,o),
(437,291,o),
(510,236,o),
(537,208,q),
(560,268,o),
(625,416,o),
(663,498,q),
(701,578,o),
(743,664,q),
(751,680,o),
(752,683,q),
(738,679,o),
(725,676,q),
(672,662,o),
(636,652,q),
(633,651,o),
(626,651,q),
(610,651,o),
(590,680,o),
(590,700,q),
(590,723,o),
(623,771,o),
(665,782,q),
(700,791,o),
(752,805,q),
(786,814,o),
(823,824,q),
(825,828,o),
(827,833,q),
(869,916,o),
(949,1070,o),
(1017,1198,o),
(1070,1296,o),
(1085,1322,q)
);
}
);
width = 1168;
}
);
unicode = 321;
},
{
glyphname = M;
layers = (
{
layerId = "DC66AB0F-19FD-4F06-8C39-5D32AA939720";
shapes = (
{
closed = 1;
nodes = (
(1494,157,o),
(1520,383,o),
(1550,630,o),
(1581,880,o),
(1596,989,q),
(1543,887,o),
(1435,681,o),
(1338,496,o),
(1257,346,o),
(1232,300,q),
(1209,269,o),
(1163,213,o),
(1118,171,o),
(1074,146,o),
(1053,146,q),
(1025,146,o),
(992,170,o),
(992,194,q),
(992,199,o),
(993,208,o),
(995,213,q),
(989,355,o),
(983,644,o),
(983,784,q),
(983,817,o),
(983,883,o),
(984,915,q),
(944,825,o),
(850,631,o),
(748,442,o),
(640,267,o),
(532,124,o),
(427,23,o),
(379,3,q),
(337,-14,o),
(275,-29,o),
(251,-29,q),
(215,-29,o),
(180,0,o),
(180,21,q),
(180,46,o),
(222,100,o),
(260,115,q),
(306,133,o),
(415,256,o),
(531,432,o),
(649,648,o),
(760,870,o),
(858,1083,o),
(934,1255,o),
(983,1370,o),
(989,1384,q),
(1003,1415,o),
(1053,1443,o),
(1079,1443,q),
(1115,1443,o),
(1143,1404,o),
(1143,1354,q),
(1151,1291,o),
(1162,1180,o),
(1170,1063,o),
(1173,928,o),
(1173,840,q),
(1173,777,o),
(1168,625,o),
(1168,531,q),
(1288,749,o),
(1473,1082,o),
(1610,1307,o),
(1704,1422,o),
(1732,1422,q),
(1739,1422,l),
(1742,1422,o),
(1748,1423,o),
(1751,1423,q),
(1775,1423,o),
(1803,1363,o),
(1803,1315,q),
(1799,1266,o),
(1783,1120,o),
(1762,945,o),
(1738,751,o),
(1714,560,o),
(1693,380,o),
(1686,307,q),
(1684,294,o),
(1684,267,o),
(1684,253,q),
(1684,227,o),
(1686,174,o),
(1686,148,q),
(1686,118,o),
(1680,57,o),
(1653,8,o),
(1595,-23,o),
(1544,-23,q),
(1517,-23,o),
(1485,18,o),
(1485,71,q)
);
}
);
width = 1821;
}
);
unicode = 77;
},
{
glyphname = N;
layers = (
{
layerId = "DC66AB0F-19FD-4F06-8C39-5D32AA939720";
shapes = (
{
closed = 1;
nodes = (
(1081,1278,o),
(1113,1114,o),
(1144,937,o),
(1175,754,o),
(1206,577,o),
(1235,412,o),
(1250,342,q),
(1351,541,o),
(1538,897,o),
(1700,1180,o),
(1832,1379,o),
(1880,1422,q),
(1901,1442,o),
(1947,1458,o),
(1969,1458,q),
(2001,1458,o),
(2046,1426,o),
(2046,1401,q),
(2046,1386,o),
(2036,1366,o),
(2025,1354,q),
(1984,1307,o),
(1912,1228,o),
(1843,1141,o),
(1774,1033,o),
(1737,958,q),
(1692,875,o),
(1602,700,o),
(1518,527,o),
(1441,365,o),
(1377,228,o),
(1325,121,o),
(1308,91,q),
(1279,29,o),
(1204,-31,o),
(1173,-32,q),
(1166,-32,l),
(1146,-31,o),
(1108,-17,o),
(1076,11,o),
(1053,54,o),
(1049,83,q),
(1033,146,o),
(1008,267,o),
(986,394,o),
(963,533,o),
(937,697,o),
(904,891,o),
(882,1009,q),
(852,909,o),
(766,670,o),
(662,427,o),
(542,200,o),
(410,24,o),
(271,-82,o),
(201,-82,q),
(189,-82,o),
(157,-71,o),
(128,-50,o),
(108,-20,o),
(108,-2,q),
(108,12,o),
(119,35,o),
(129,51,q),
(142,72,o),
(198,103,o),
(271,141,o),
(357,192,o),
(400,234,q),
(424,257,o),
(490,376,o),
(567,539,o),
(650,734,o),
(730,932,o),
(802,1121,o),
(859,1272,o),
(895,1373,o),
(899,1384,q),
(909,1414,o),
(954,1442,o),
(980,1443,q),
(979,1443,o),
(978,1442,q),
(981,1442,o),
(988,1443,o),
(991,1443,q),
(1013,1443,o),
(1056,1400,o),
(1065,1347,q)
);
}
);
width = 1527;
}
);
unicode = 78;
},
{
glyphname = O;
layers = (
{
layerId = "DC66AB0F-19FD-4F06-8C39-5D32AA939720";
shapes = (
{
closed = 1;
nodes = (
(235,605,o),
(322,864,o),
(469,1083,o),
(662,1257,o),
(873,1378,o),
(1090,1443,o),
(1188,1443,q),
(1275,1443,o),
(1432,1403,o),
(1555,1321,o),
(1637,1196,o),
(1651,1112,q),
(1652,1107,o),
(1652,1099,o),
(1652,1094,q),
(1652,1055,o),
(1607,1014,o),
(1581,1014,q),
(1552,1014,o),
(1502,1076,o),
(1479,1133,q),
(1442,1203,o),
(1302,1267,o),
(1214,1267,q),
(1137,1267,o),
(968,1211,o),
(803,1109,o),
(653,966,o),
(539,793,o),
(472,593,o),
(472,486,q),
(472,397,o),
(516,275,o),
(588,199,o),
(678,165,o),
(724,165,q),
(827,165,o),
(1014,277,o),
(1156,486,o),
(1240,787,o),
(1240,976,q),
(1240,995,o),
(1239,1032,o),
(1239,1052,q),
(1239,1102,o),
(1275,1149,o),
(1298,1149,q),
(1337,1149,o),
(1386,1106,o),
(1414,1035,o),
(1425,944,o),
(1425,896,q),
(1425,760,o),
(1367,519,o),
(1264,314,o),
(1123,151,o),
(959,38,o),
(778,-23,o),
(686,-23,q),
(601,-23,o),
(439,26,o),
(312,139,o),
(235,324,o),
(235,459,q)
);
}
);
width = 1341;
}
);
unicode = 79;
},
{
glyphname = Oslash;
layers = (
{
layerId = "DC66AB0F-19FD-4F06-8C39-5D32AA939720";
shapes = (
{
closed = 1;
nodes = (
(396,214,l),
(428,188,o),
(504,165,o),
(543,165,q),
(643,165,o),
(827,272,o),
(968,473,o),
(1055,761,o),
(1059,943,q)
);
},
{
closed = 1;
nodes = (
(413,452,o),
(622,684,o),
(831,917,o),
(1037,1145,o),
(1135,1255,q),
(1088,1267,o),
(1033,1267,q),
(956,1267,o),
(787,1211,o),
(622,1109,o),
(472,966,o),
(358,793,o),
(291,593,o),
(291,486,q),
(291,400,o),
(312,339,q)
);
},
{
closed = 1;
nodes = (
(54,605,o),
(141,864,o),
(288,1083,o),
(481,1257,o),
(692,1378,o),
(909,1443,o),
(1007,1443,q),
(1076,1443,o),
(1204,1418,o),
(1258,1392,q),
(1353,1498,l),
(1379,1527,o),
(1419,1527,q),
(1435,1527,o),
(1468,1516,o),
(1494,1497,o),
(1510,1472,o),
(1510,1458,q),
(1510,1447,o),
(1506,1439,q),
(1503,1432,l),
(1383,1300,l),
(1399,1281,o),
(1431,1234,o),
(1456,1181,o),
(1471,1124,o),
(1471,1094,q),
(1471,1055,o),
(1426,1014,o),
(1400,1014,q),
(1371,1014,o),
(1321,1076,o),
(1298,1133,q),
(1287,1154,o),
(1269,1175,q),
(1203,1101,l),
(1226,1065,o),
(1244,956,o),
(1244,896,q),
(1244,760,o),
(1186,519,o),
(1083,314,o),
(942,151,o),
(778,38,o),
(597,-23,o),
(505,-23,q),
(435,-23,o),
(301,10,o),
(243,46,q),
(208,7,o),
(137,-70,o),
(104,-108,q),
(77,-139,o),
(40,-139,q),
(24,-139,o),
(-6,-128,o),
(-30,-110,o),
(-44,-87,o),
(-44,-75,q),
(-44,-67,o),
(-39,-52,o),
(-34,-47,q),
(8,0,o),
(93,95,o),
(138,146,q),
(99,202,o),
(54,356,o),
(54,459,q)
);
}
);
width = 1160;
}
);
unicode = 216;
},
{
glyphname = OE;
layers = (
{
layerId = "DC66AB0F-19FD-4F06-8C39-5D32AA939720";
shapes = (
{
closed = 1;
nodes = (
(436,246,o),
(675,150,o),
(926,150,c),
(1173,1267,l),
(866,1263,o),
(436,913,o),
(436,486,cs)
);
},
{
closed = 1;
nodes = (
(1508,825,ls),
(1584,825,o),
(1622,802,o),
(1622,774,cs),
(1622,721,o),
(1562,701,o),
(1494,688,cs),
(1458,681,o),
(1362,679,o),
(1217,679,c),
(1083,129,l),
(1607,129,o),
(1557,339,o),
(1766,339,cs),
(1822,339,o),
(1856,311,o),
(1856,260,cs),
(1856,156,o),
(1509,-38,o),
(977,-38,cs),
(532,-38,o),
(199,95,o),
(199,459,cs),
(199,1043,o),
(798,1443,o),
(1295,1443,cs),
(1623,1443,o),
(1838,1353,o),
(1867,1152,c),
(1867,1141,ls),
(1867,1089,o),
(1799,1027,o),
(1708,1027,cs),
(1652,1027,o),
(1646,1056,o),
(1646,1093,cs),
(1646,1124,ls),
(1646,1136,o),
(1647,1149,o),
(1644,1161,c),
(1636,1240,o),
(1505,1274,o),
(1350,1274,c),
(1259,825,l)
);
}
);
width = 1581;
}
);
unicode = 338;
},
{
glyphname = P;
layers = (
{
layerId = "DC66AB0F-19FD-4F06-8C39-5D32AA939720";
shapes = (
{
closed = 1;
nodes = (
(744,495,o),
(698,377,o),
(644,249,o),
(583,123,o),
(516,24,o),
(445,-38,o),
(408,-38,q),
(377,-38,o),
(337,-19,o),
(315,10,o),
(306,45,o),
(306,61,q),
(306,85,o),
(321,135,o),
(332,156,q),
(715,861,l),
(740,905,o),
(785,955,o),
(824,979,o),
(854,984,o),
(864,984,q),
(882,984,o),
(912,959,o),
(912,926,q),
(912,894,o),
(878,782,o),
(832,694,q),
(910,700,o),
(1062,741,o),
(1183,813,o),
(1257,916,o),
(1257,984,q),
(1257,1044,o),
(1218,1153,o),
(1143,1236,o),
(1033,1285,o),
(961,1285,q),
(863,1285,o),
(722,1248,o),
(621,1188,o),
(553,1110,o),
(504,1030,o),
(466,952,o),
(425,892,o),
(373,855,o),
(335,855,q),
(286,855,o),
(239,905,o),
(239,997,o),
(289,1106,o),
(381,1216,o),
(512,1317,o),
(676,1395,o),
(869,1442,o),
(976,1442,q),
(1076,1442,o),
(1261,1385,o),
(1403,1271,o),
(1488,1100,o),
(1488,985,q),
(1488,880,o),
(1387,711,o),
(1216,594,o),
(992,531,o),
(868,531,q),
(842,531,o),
(789,533,o),
(763,537,q)
);
}
);
width = 1191;
}
);
unicode = 80;
},
{
glyphname = Thorn;
layers = (
{
layerId = "DC66AB0F-19FD-4F06-8C39-5D32AA939720";
shapes = (
{
closed = 1;
nodes = (
(1102,902,o),
(1081,985,o),
(1039,1057,o),
(978,1114,o),
(938,1132,q),
(903,1052,o),
(823,877,o),
(750,718,o),
(691,595,o),
(677,568,q),
(755,574,o),
(907,615,o),
(1028,687,o),
(1102,790,o),
(1102,858,q)
);
},
{
closed = 1;
nodes = (
(589,369,o),
(550,269,o),
(508,170,o),
(460,77,o),
(405,5,o),
(341,-38,o),
(304,-38,q),
(273,-38,o),
(233,-19,o),
(211,10,o),
(202,45,o),
(202,61,q),
(202,85,o),
(217,135,o),
(228,156,q),
(756,1157,l),
(669,1152,o),
(543,1110,o),
(452,1048,o),
(390,972,o),
(344,894,o),
(307,821,o),
(267,764,o),
(217,729,o),
(180,729,q),
(131,729,o),
(84,779,o),
(84,871,o),
(134,980,o),
(226,1090,o),
(357,1191,o),
(521,1269,o),
(714,1316,o),
(821,1316,q),
(823,1316,o),
(829,1315,o),
(832,1315,q),
(839,1315,l),
(842,1320,l),
(867,1364,o),
(912,1414,o),
(951,1438,o),
(981,1443,o),
(991,1443,q),
(1009,1443,o),
(1039,1418,o),
(1039,1385,q),
(1039,1378,o),
(1020,1328,o),
(1005,1290,q),
(1075,1269,o),
(1195,1195,o),
(1283,1087,o),
(1333,946,o),
(1333,859,q),
(1333,754,o),
(1232,585,o),
(1061,468,o),
(837,405,o),
(713,405,q),
(687,405,o),
(634,407,o),
(608,411,q)
);
}
);
width = 1088;
}
);
unicode = 222;
},
{
glyphname = Q;
layers = (
{
layerId = "DC66AB0F-19FD-4F06-8C39-5D32AA939720";
shapes = (
{
closed = 1;
nodes = (
(210,605,o),
(297,864,o),
(444,1083,o),
(637,1257,o),
(848,1378,o),
(1065,1443,o),
(1163,1443,q),
(1250,1443,o),
(1407,1403,o),
(1530,1321,o),
(1612,1196,o),
(1626,1112,q),
(1627,1107,o),
(1627,1099,o),
(1627,1094,q),
(1627,1055,o),
(1582,1014,o),
(1556,1014,q),
(1527,1014,o),
(1477,1076,o),
(1454,1133,q),
(1417,1203,o),
(1277,1267,o),
(1189,1267,q),
(1112,1267,o),
(943,1211,o),
(778,1109,o),
(628,966,o),
(514,793,o),
(447,593,o),
(447,486,q),
(447,397,o),
(491,275,o),
(563,199,o),
(653,165,o),
(699,165,q),
(704,165,l),
(701,176,o),
(698,199,o),
(698,209,q),
(698,231,o),
(713,264,o),
(738,287,o),
(771,299,o),
(788,299,q),
(819,299,o),
(876,260,o),
(889,220,q),
(979,280,o),
(1104,435,o),
(1180,635,o),
(1214,886,o),
(1214,1042,q),
(1214,1097,o),
(1262,1149,o),
(1293,1149,q),
(1326,1149,o),
(1367,1106,o),
(1391,1035,o),
(1400,944,o),
(1400,896,q),
(1400,740,o),
(1324,468,o),
(1192,248,o),
(1016,84,o),
(916,37,q),
(933,-43,o),
(988,-151,o),
(1056,-217,o),
(1133,-245,o),
(1174,-245,q),
(1208,-245,o),
(1278,-230,o),
(1339,-206,o),
(1388,-177,o),
(1402,-163,q),
(1408,-160,o),
(1417,-155,o),
(1423,-155,q),
(1439,-155,o),
(1464,-185,o),
(1464,-208,q),
(1464,-228,o),
(1442,-273,o),
(1416,-297,q),
(1358,-363,o),
(1226,-427,o),
(1158,-427,q),
(1096,-427,o),
(976,-375,o),
(869,-272,o),
(779,-118,o),
(747,-16,q),
(725,-19,o),
(683,-23,o),
(661,-23,q),
(576,-23,o),
(414,26,o),
(287,139,o),
(210,324,o),
(210,459,q)
);
}
);
width = 1315;
}
);
unicode = 81;
},
{
glyphname = R;
layers = (
{
layerId = "DC66AB0F-19FD-4F06-8C39-5D32AA939720";
shapes = (
{
closed = 1;
nodes = (
(713,650,o),
(726,650,o),
(733,650,q),
(820,650,o),
(975,725,o),
(1091,841,o),
(1158,983,o),
(1158,1050,q),
(1158,1098,o),
(1123,1184,o),
(1048,1248,o),
(931,1286,o),
(850,1286,q),
(759,1286,o),
(628,1252,o),
(533,1198,o),
(468,1128,o),
(421,1054,o),
(383,984,o),
(342,930,o),
(292,896,o),
(255,896,q),
(205,896,o),
(155,947,o),
(155,993,q),
(155,1036,o),
(202,1136,o),
(289,1236,o),
(415,1329,o),
(572,1400,o),
(758,1443,o),
(862,1443,q),
(964,1443,o),
(1151,1391,o),
(1295,1288,o),
(1380,1132,o),
(1380,1028,q),
(1380,958,o),
(1329,831,o),
(1243,720,o),
(1128,627,o),
(998,555,o),
(861,505,o),
(797,494,q),
(806,447,o),
(847,330,o),
(906,225,o),
(978,151,o),
(1018,148,q),
(1026,147,o),
(1040,147,o),
(1047,147,q),
(1120,147,o),
(1234,195,o),
(1272,224,q),
(1317,257,o),
(1350,301,q),
(1381,336,o),
(1413,336,q),
(1433,336,o),
(1461,308,o),
(1461,284,q),
(1461,261,o),
(1432,200,o),
(1397,167,q),
(1294,70,o),
(1097,-19,o),
(1009,-19,q),
(937,-19,o),
(815,63,o),
(715,203,o),
(633,390,o),
(601,494,q),
(583,453,o),
(545,342,o),
(501,224,o),
(453,109,o),
(395,18,o),
(329,-38,o),
(290,-38,q),
(258,-38,o),
(218,-18,o),
(196,12,o),
(187,48,o),
(187,64,q),
(187,87,o),
(199,135,o),
(210,156,q),
(505,696,l),
(543,764,o),
(620,891,o),
(693,989,o),
(758,1048,o),
(784,1048,q),
(791,1048,o),
(811,1043,o),
(827,1030,o),
(839,1005,o),
(839,967,o),
(817,899,o),
(781,811,o),
(733,706,o),
(707,651,q)
);
}
);
width = 1219;
}
);
unicode = 82;
},
{
glyphname = S;
layers = (
{
layerId = "DC66AB0F-19FD-4F06-8C39-5D32AA939720";
shapes = (
{
closed = 1;
nodes = (
(564,557,o),
(591,510,o),
(591,480,q),
(591,465,o),
(585,443,o),
(567,424,o),
(537,407,o),
(513,397,q),
(457,373,o),
(393,306,o),
(393,273,q),
(393,252,o),
(421,214,o),
(481,185,o),
(576,168,o),
(643,168,q),
(712,168,o),
(836,201,o),
(929,261,o),
(984,343,o),
(984,391,q),
(984,427,o),
(924,505,o),
(859,547,q),
(744,622,o),
(625,714,o),
(611,726,q),
(536,792,o),
(462,914,o),
(462,980,q),
(462,1041,o),
(521,1157,o),
(621,1259,o),
(752,1346,o),
(895,1408,o),
(1040,1443,o),
(1105,1443,q),
(1154,1443,o),
(1237,1421,o),
(1299,1374,o),
(1334,1300,o),
(1334,1248,q),
(1334,1173,o),
(1248,1037,o),
(1160,978,q),
(1121,951,o),
(1088,951,q),
(1054,951,o),
(1014,1000,o),
(1014,1033,q),
(1014,1061,o),
(1047,1117,o),
(1084,1137,q),
(1113,1152,o),
(1158,1203,o),
(1158,1227,q),
(1158,1250,o),
(1127,1264,o),
(1105,1264,q),
(1063,1264,o),
(964,1243,o),
(865,1207,o),
(772,1157,o),
(701,1099,o),
(658,1034,o),
(658,1002,q),
(658,980,o),
(676,942,o),
(711,904,o),
(761,863,o),
(794,839,q),
(1028,666,l),
(1073,633,o),
(1144,570,o),
(1192,507,o),
(1218,443,o),
(1218,407,q),
(1218,327,o),
(1135,174,o),
(982,54,o),
(767,-20,o),
(636,-20,q),
(514,-20,o),
(343,19,o),
(233,86,o),
(183,173,o),
(183,221,q),
(183,271,o),
(234,374,o),
(327,466,o),
(457,538,o),
(535,557,q)
);
}
);
width = 1196;
}
);
unicode = 83;
},
{
glyphname = T;
layers = (
{
layerId = "DC66AB0F-19FD-4F06-8C39-5D32AA939720";
shapes = (
{
closed = 1;
nodes = (
(514,17,o),
(472,-29,o),
(424,-59,o),
(374,-74,o),
(352,-74,q),
(320,-74,o),
(276,-41,o),
(276,-9,q),
(276,2,o),
(281,29,o),
(289,45,q),
(365,202,o),
(516,492,o),
(657,744,o),
(783,951,o),
(886,1098,o),
(959,1178,o),
(976,1178,q),
(1011,1178,o),
(1045,1138,o),
(1045,1111,q),
(1045,1089,o),
(1034,1067,q),
(1009,1016,o),
(946,887,o),
(876,742,o),
(800,587,o),
(726,434,o),
(655,291,o),
(594,169,o),
(545,74,o),
(529,47,q)
);
},
{
closed = 1;
nodes = (
(1698,1199,o),
(1671,1134,o),
(1622,1072,o),
(1553,1026,o),
(1511,1026,q),
(1501,1026,o),
(1471,1029,o),
(1442,1041,o),
(1422,1063,o),
(1422,1081,q),
(1422,1090,o),
(1440,1123,o),
(1461,1161,o),
(1479,1197,o),
(1479,1209,q),
(1479,1243,o),
(1383,1274,o),
(1270,1274,q),
(1157,1270,o),
(975,1251,o),
(821,1222,o),
(687,1184,o),
(557,1141,o),
(424,1092,o),
(349,1067,q),
(342,1065,o),
(329,1061,o),
(324,1061,q),
(308,1061,o),
(282,1075,o),
(263,1099,o),
(252,1129,o),
(252,1145,q),
(252,1171,o),
(336,1236,o),
(482,1302,o),
(680,1365,o),
(909,1414,o),
(1158,1443,o),
(1282,1443,q),
(1389,1443,o),
(1545,1409,o),
(1647,1349,o),
(1697,1266,o),
(1698,1217,q)
);
}
);
width = 1015;
}
);
unicode = 84;
},
{
glyphname = U;
layers = (
{
layerId = "DC66AB0F-19FD-4F06-8C39-5D32AA939720";
shapes = (
{
closed = 1;
nodes = (
(601,1407,o),
(666,1443,o),
(697,1443,q),
(714,1443,o),
(745,1436,o),
(769,1419,o),
(783,1390,o),
(783,1369,q),
(783,1343,o),
(761,1275,o),
(736,1227,q),
(636,1050,o),
(500,658,o),
(459,462,q),
(455,437,o),
(453,391,o),
(453,370,q),
(453,311,o),
(483,229,o),
(532,179,o),
(592,157,o),
(622,157,q),
(735,157,o),
(943,319,o),
(1106,616,o),
(1209,1033,o),
(1217,1289,q),
(1218,1316,o),
(1236,1357,o),
(1264,1383,o),
(1301,1396,o),
(1320,1396,q),
(1344,1396,o),
(1375,1361,o),
(1393,1303,o),
(1400,1226,o),
(1400,1184,q),
(1400,1007,o),
(1335,690,o),
(1221,421,o),
(1066,206,o),
(884,55,o),
(685,-26,o),
(585,-26,q),
(523,-26,o),
(398,26,o),
(298,126,o),
(236,270,o),
(236,362,q),
(236,379,o),
(238,416,o),
(241,435,q),
(254,512,o),
(285,651,o),
(325,786,o),
(375,924,o),
(440,1077,o),
(523,1251,o),
(575,1355,q)
);
}
);
width = 1195;
}
);
unicode = 85;
},
{
glyphname = V;
layers = (
{
layerId = "DC66AB0F-19FD-4F06-8C39-5D32AA939720";
shapes = (
{
closed = 1;
nodes = (
(1259,1199,o),
(1224,1111,o),
(1169,990,o),
(1095,844,o),
(1011,688,o),
(921,528,o),
(876,454,q),
(801,330,o),
(660,126,o),
(602,57,q),
(610,42,o),
(610,27,q),
(610,4,o),
(571,-32,o),
(508,-56,o),
(428,-69,o),
(386,-69,q),
(354,-69,o),
(321,-40,o),
(321,-17,q),
(321,11,o),
(348,47,o),
(367,55,q),
(364,76,o),
(350,160,o),
(334,270,o),
(316,398,o),
(300,528,o),
(286,653,o),
(283,704,q),
(278,776,o),
(272,904,o),
(272,961,q),
(272,1015,o),
(278,1106,o),
(283,1141,q),
(289,1177,o),
(326,1244,o),
(377,1297,o),
(437,1328,o),
(466,1328,q),
(499,1328,o),
(526,1273,o),
(526,1223,q),
(526,1191,o),
(516,1110,o),
(510,1074,q),
(504,1036,o),
(500,1012,q),
(495,989,l),
(492,971,o),
(490,922,o),
(490,891,q),
(490,827,o),
(500,661,o),
(516,488,o),
(537,324,o),
(548,262,q),
(617,352,o),
(759,577,o),
(819,699,q),
(870,800,o),
(969,1012,o),
(1020,1113,q),
(1112,1282,o),
(1188,1282,q),
(1220,1282,o),
(1262,1262,o),
(1262,1233,q),
(1262,1224,o),
(1261,1219,q)
);
}
);
width = 968;
}
);
unicode = 86;
},
{
glyphname = W;
layers = (
{
layerId = "DC66AB0F-19FD-4F06-8C39-5D32AA939720";
shapes = (
{
closed = 1;
nodes = (
(1595,923,o),
(1372,487,q),
(1311,363,o),
(1215,175,o),
(1127,48,o),
(1038,-16,o),
(984,-16,q),
(947,-16,o),
(895,20,o),
(857,123,o),
(831,309,o),
(821,460,q),
(598,133,l),
(568,89,o),
(515,28,o),
(464,-9,o),
(410,-25,o),
(380,-25,q),
(337,-25,o),
(280,25,o),
(280,73,q),
(280,144,o),
(281,315,o),
(289,526,o),
(306,781,o),
(322,937,q),
(287,896,o),
(239,860,o),
(224,860,q),
(211,860,o),
(199,882,o),
(199,901,q),
(199,934,o),
(233,1036,o),
(297,1152,o),
(392,1267,o),
(454,1312,q),
(466,1320,o),
(481,1320,q),
(499,1320,o),
(532,1294,o),
(557,1252,o),
(572,1200,o),
(572,1175,q),
(572,1151,o),
(569,1135,q),
(564,1113,o),
(555,1079,o),
(545,1031,o),
(533,954,o),
(525,889,q),
(515,807,o),
(504,641,o),
(496,472,o),
(489,300,o),
(485,212,q),
(507,239,o),
(565,324,o),
(627,419,o),
(687,515,o),
(711,554,q),
(736,592,o),
(750,616,q),
(764,641,l),
(801,735,o),
(877,917,o),
(914,1007,q),
(950,1095,o),
(1030,1191,o),
(1077,1191,q),
(1115,1191,o),
(1161,1164,o),
(1161,1143,q),
(1161,1108,o),
(1126,1013,o),
(1080,905,o),
(1035,791,o),
(1024,739,q),
(1019,652,o),
(1013,530,o),
(1013,479,q),
(1013,416,o),
(1015,278,o),
(1023,215,q),
(1063,273,o),
(1150,408,o),
(1236,552,o),
(1316,703,o),
(1384,853,o),
(1434,998,o),
(1447,1064,q),
(1460,1139,l),
(1460,1143,o),
(1462,1151,o),
(1462,1155,q),
(1468,1185,o),
(1482,1233,o),
(1505,1266,o),
(1540,1284,o),
(1566,1284,q),
(1609,1284,o),
(1648,1266,o),
(1648,1235,q),
(1648,1225,o),
(1645,1205,o),
(1643,1191,q)
);
}
);
width = 1372;
}
);
unicode = 87;
},
{
glyphname = X;
layers = (
{
layerId = "DC66AB0F-19FD-4F06-8C39-5D32AA939720";
shapes = (
{
closed = 1;
nodes = (
(1219,1388,o),
(1269,1421,o),
(1321,1444,o),
(1371,1457,o),
(1391,1457,q),
(1414,1457,o),
(1433,1441,o),
(1433,1427,q),
(1433,1406,o),
(1396,1341,o),
(1345,1272,o),
(1290,1208,o),
(1272,1188,q),
(1136,1036,o),
(895,770,o),
(786,655,q),
(809,573,o),
(849,451,o),
(887,352,o),
(925,268,o),
(971,183,o),
(1025,88,o),
(1060,27,q),
(1065,18,o),
(1065,9,q),
(1065,-3,o),
(1048,-21,o),
(1023,-34,o),
(992,-41,o),
(978,-41,q),
(939,-41,o),
(863,12,o),
(779,135,o),
(684,337,o),
(625,486,q),
(515,371,o),
(346,202,o),
(217,82,o),
(120,6,o),
(45,-37,o),
(-15,-53,o),
(-44,-53,q),
(-67,-53,o),
(-102,-27,o),
(-102,7,q),
(-102,38,o),
(-63,86,o),
(-9,123,o),
(46,150,o),
(61,161,q),
(107,192,o),
(218,289,o),
(346,415,o),
(488,566,o),
(565,652,q),
(517,793,o),
(455,1016,o),
(432,1112,q),
(417,1174,o),
(393,1271,o),
(393,1300,q),
(393,1327,o),
(432,1395,o),
(490,1456,o),
(556,1497,o),
(583,1497,q),
(614,1497,o),
(660,1432,o),
(660,1352,q),
(660,1337,o),
(657,1320,o),
(651,1308,o),
(643,1296,o),
(638,1286,q),
(637,1283,o),
(637,1273,q),
(637,1235,o),
(687,1023,o),
(732,854,q),
(732,852,o),
(734,846,q),
(794,917,l),
(851,975,o),
(946,1090,o),
(1038,1203,o),
(1137,1314,o),
(1198,1367,q)
);
}
);
width = 1087;
}
);
unicode = 88;
},
{
glyphname = Y;
layers = (
{
layerId = "DC66AB0F-19FD-4F06-8C39-5D32AA939720";
shapes = (
{
closed = 1;
nodes = (
(638,665,l),
(578,735,o),
(482,901,o),
(461,997,q),
(444,1055,o),
(431,1155,o),
(431,1198,q),
(431,1255,o),
(460,1347,o),
(509,1410,o),
(573,1444,o),
(609,1444,q),
(682,1444,o),
(682,1367,q),
(682,1353,o),
(671,1310,o),
(659,1258,o),
(648,1200,o),
(648,1172,q),
(648,1113,o),
(675,995,o),
(722,887,o),
(782,794,o),
(815,760,q),
(889,808,l),
(948,846,o),
(1065,928,o),
(1112,974,q),
(1149,1018,o),
(1206,1102,o),
(1247,1176,o),
(1271,1236,o),
(1276,1256,q),
(1285,1298,o),
(1303,1358,o),
(1337,1396,o),
(1398,1414,o),
(1450,1414,q),
(1498,1414,o),
(1498,1346,q),
(1498,1342,o),
(1490,1280,o),
(1451,1174,o),
(1370,1030,o),
(1297,945,q),
(1250,900,o),
(1145,818,o),
(1032,743,o),
(916,673,o),
(859,639,q),
(815,613,l),
(613,231,l),
(584,175,o),
(559,116,o),
(557,105,q),
(557,52,o),
(526,-24,o),
(479,-75,o),
(423,-99,o),
(398,-99,q),
(361,-99,o),
(308,-55,o),
(308,-12,q),
(308,4,o),
(310,24,o),
(322,56,o),
(349,111,o),
(374,164,q)
);
}
);
width = 969;
}
);
unicode = 89;
},
{
glyphname = Z;
layers = (
{
layerId = "DC66AB0F-19FD-4F06-8C39-5D32AA939720";
shapes = (
{
closed = 1;
nodes = (
(1512,1282,o),
(1532,1282,q),
(1558,1282,o),
(1602,1243,o),
(1602,1214,q),
(1602,1197,o),
(1581,1159,o),
(1556,1141,q),
(1515,1111,o),
(1434,1038,o),
(1397,1003,q),
(1323,927,o),
(1174,757,o),
(1023,576,o),
(869,390,o),
(790,297,q),
(828,288,o),
(901,248,o),
(974,209,o),
(1047,179,o),
(1085,179,q),
(1168,179,o),
(1295,237,o),
(1397,335,o),
(1479,465,o),
(1518,538,q),
(1531,556,o),
(1564,571,o),
(1581,571,q),
(1600,571,o),
(1636,556,o),
(1664,534,o),
(1682,508,o),
(1682,497,q),
(1682,493,o),
(1678,485,q),
(1639,378,o),
(1513,193,o),
(1352,57,o),
(1160,-21,o),
(1055,-21,q),
(1032,-21,o),
(985,0,o),
(934,32,o),
(877,69,o),
(812,101,o),
(737,122,o),
(694,122,q),
(677,122,o),
(634,115,o),
(592,103,o),
(556,88,o),
(546,81,q),
(507,54,o),
(429,-1,o),
(390,-28,q),
(376,-37,o),
(363,-37,q),
(349,-37,o),
(323,-21,o),
(303,4,o),
(291,35,o),
(291,51,q),
(291,65,o),
(300,88,o),
(313,99,q),
(350,129,o),
(422,190,o),
(459,221,q),
(478,234,o),
(511,258,o),
(550,293,o),
(601,345,o),
(673,427,o),
(772,544,o),
(907,709,o),
(1084,927,o),
(1199,1070,q),
(1179,1068,o),
(1141,1064,o),
(1121,1064,q),
(1074,1064,o),
(971,1087,o),
(866,1114,o),
(762,1137,o),
(714,1137,q),
(682,1137,o),
(617,1105,o),
(556,1067,o),
(502,1035,o),
(482,1035,q),
(464,1035,o),
(442,1058,o),
(442,1077,q),
(442,1088,o),
(452,1118,o),
(464,1132,q),
(493,1166,o),
(571,1228,o),
(658,1275,o),
(752,1303,o),
(797,1303,q),
(816,1303,o),
(834,1300,q),
(927,1287,o),
(1055,1257,o),
(1150,1232,o),
(1222,1216,o),
(1259,1216,q),
(1304,1216,o),
(1373,1220,o),
(1429,1232,o),
(1474,1253,o),
(1496,1270,q)
);
}
);
width = 1646;
}
);
unicode = 90;
},
{
glyphname = A.alt;
layers = (
{
layerId = "DC66AB0F-19FD-4F06-8C39-5D32AA939720";
shapes = (
{
closed = 1;
nodes = (
(501,-97,o),
(498,-83,q),
(374,-146,o),
(245,-244,o),
(245,-267,q),
(245,-289,o),
(273,-321,o),
(293,-321,q),
(320,-321,o),
(392,-282,o),
(457,-220,o),
(501,-146,o),
(501,-111,q)
);
},
{
closed = 1;
nodes = (
(1373,529,l),
(1300,457,o),
(1145,324,o),
(971,197,o),
(773,74,o),
(657,11,q),
(658,3,o),
(658,-12,o),
(658,-20,q),
(658,-93,o),
(617,-212,o),
(548,-307,o),
(458,-377,o),
(361,-422,o),
(261,-445,o),
(218,-445,q),
(154,-445,o),
(70,-398,o),
(70,-352,q),
(70,-298,o),
(253,-118,o),
(433,-6,q),
(423,8,o),
(373,22,o),
(309,29,o),
(240,34,o),
(182,41,o),
(145,54,o),
(145,67,q),
(145,81,o),
(160,121,o),
(186,149,q),
(197,161,o),
(263,216,o),
(346,284,o),
(429,355,o),
(457,382,q),
(631,529,l),
(619,529,o),
(593,531,o),
(554,534,o),
(498,539,o),
(457,541,q),
(428,536,o),
(373,495,o),
(316,432,o),
(254,352,o),
(218,307,q),
(215,303,o),
(210,303,q),
(204,303,o),
(190,317,o),
(179,341,o),
(171,372,o),
(171,389,q),
(171,403,o),
(178,431,o),
(186,444,q),
(235,520,o),
(326,619,o),
(428,678,o),
(553,702,o),
(637,702,q),
(708,702,o),
(813,694,o),
(864,694,q),
(883,688,o),
(892,651,o),
(892,633,q),
(892,618,o),
(891,590,o),
(872,559,o),
(828,523,o),
(786,499,q),
(787,499,l),
(761,475,l),
(762,475,l),
(734,450,o),
(658,393,o),
(603,348,q),
(349,142,l),
(374,142,o),
(433,136,o),
(491,126,o),
(543,110,o),
(561,101,q),
(763,201,o),
(1120,453,o),
(1291,606,q),
(1372,548,l)
);
}
);
width = 1005;
}
);
},
{
glyphname = D.alt;
layers = (
{
layerId = "DC66AB0F-19FD-4F06-8C39-5D32AA939720";
shapes = (
{
closed = 1;
nodes = (
(854,842,o),
(802,744,o),
(735,623,o),
(657,484,o),
(573,343,o),
(485,208,o),
(443,150,q),
(546,160,o),
(738,242,o),
(905,364,o),
(1042,518,o),
(1140,683,o),
(1194,850,o),
(1194,925,q),
(1194,985,o),
(1161,1087,o),
(1091,1163,o),
(983,1206,o),
(909,1206,q),
(844,1206,o),
(714,1181,o),
(595,1139,o),
(495,1082,o),
(461,1049,q),
(422,1005,o),
(365,917,o),
(308,847,o),
(242,803,o),
(196,803,q),
(151,803,o),
(107,845,o),
(107,884,q),
(107,932,o),
(167,1042,o),
(275,1150,o),
(424,1250,o),
(605,1326,o),
(810,1371,o),
(919,1371,q),
(1052,1371,o),
(1248,1297,o),
(1377,1169,o),
(1440,995,o),
(1440,896,q),
(1440,785,o),
(1362,559,o),
(1218,351,o),
(1011,168,o),
(752,34,o),
(447,-44,o),
(276,-44,q),
(191,-44,o),
(37,-9,o),
(-79,47,o),
(-147,119,o),
(-147,156,q),
(-147,173,o),
(-126,206,o),
(-91,231,o),
(-46,247,o),
(-22,247,q),
(8,247,o),
(70,229,o),
(136,202,o),
(209,171,o),
(250,158,q),
(638,943,l),
(666,988,o),
(721,1042,o),
(769,1072,o),
(807,1081,o),
(817,1081,q),
(864,1081,o),
(903,1025,o),
(903,987,q),
(903,959,o),
(886,899,o),
(870,871,q)
);
}
);
width = 1216;
}
);
},
{
glyphname = N.alt;
layers = (
{
layerId = "DC66AB0F-19FD-4F06-8C39-5D32AA939720";
shapes = (
{
closed = 1;
nodes = (
(764,1207,o),
(816,1006,o),
(870,795,o),
(923,582,o),
(947,484,q),
(965,409,o),
(982,342,q),
(1024,450,o),
(1064,550,q),
(1148,762,o),
(1295,1094,o),
(1418,1319,o),
(1467,1369,q),
(1486,1389,o),
(1530,1405,o),
(1552,1405,q),
(1586,1405,o),
(1637,1369,o),
(1637,1341,q),
(1637,1321,o),
(1621,1301,q),
(1586,1253,o),
(1523,1175,o),
(1464,1088,o),
(1408,981,o),
(1381,905,q),
(1328,781,o),
(1232,530,o),
(1152,310,o),
(1090,137,o),
(1070,91,q),
(1049,29,o),
(981,-32,o),
(950,-32,q),
(949,-32,o),
(948,-32,o),
(947,-32,q),
(907,-32,o),
(829,23,o),
(812,83,q),
(793,150,o),
(762,268,o),
(731,390,o),
(698,524,o),
(660,690,o),
(636,793,q),
(619,867,o),
(600,956,q),
(600,955,o),
(599,953,q),
(581,853,o),
(526,622,o),
(454,392,o),
(365,179,o),
(258,16,o),
(134,-82,o),
(63,-82,q),
(7,-82,o),
(-40,-54,q),
(-55,-48,o),
(-91,-13,o),
(-123,35,o),
(-145,92,o),
(-145,121,q),
(-145,154,o),
(-123,187,q),
(-118,194,o),
(-103,216,o),
(-83,237,o),
(-58,251,o),
(-43,251,q),
(-29,251,o),
(-19,244,q),
(-9,238,o),
(13,196,o),
(39,151,o),
(70,115,o),
(89,115,q),
(123,115,o),
(192,179,o),
(259,290,o),
(323,438,o),
(383,606,o),
(437,786,o),
(484,958,o),
(523,1115,o),
(551,1239,o),
(569,1320,o),
(571,1331,q),
(578,1362,o),
(620,1390,o),
(646,1390,q),
(651,1390,o),
(656,1390,q),
(678,1390,o),
(726,1347,o),
(741,1294,q)
);
}
);
width = 1248;
}
);
},
{
glyphname = S.alt;
layers = (
{
layerId = "DC66AB0F-19FD-4F06-8C39-5D32AA939720";
shapes = (
{
closed = 1;
nodes = (
(434,557,o),
(461,510,o),
(461,480,q),
(461,465,o),
(455,443,o),
(437,424,o),
(407,407,o),
(383,397,q),
(327,373,o),
(263,306,o),
(263,273,q),
(263,252,o),
(291,214,o),
(351,185,o),
(446,168,o),
(513,168,q),
(586,168,o),
(717,201,o),
(816,261,o),
(874,343,o),
(874,391,q),
(874,423,o),
(815,491,o),
(749,527,q),
(636,590,o),
(514,666,o),
(501,676,q),
(413,744,o),
(332,880,o),
(332,950,q),
(332,1007,o),
(391,1115,o),
(491,1212,o),
(622,1292,o),
(765,1351,o),
(910,1383,o),
(975,1383,q),
(1024,1383,o),
(1107,1361,o),
(1169,1314,o),
(1204,1240,o),
(1204,1188,q),
(1204,1036,o),
(1030,918,q),
(989,891,o),
(958,891,q),
(924,891,o),
(884,940,o),
(884,973,q),
(884,1001,o),
(917,1057,o),
(954,1077,q),
(983,1092,o),
(1028,1143,o),
(1028,1167,q),
(1028,1190,o),
(997,1204,o),
(975,1204,q),
(933,1204,o),
(834,1186,o),
(735,1153,o),
(642,1109,o),
(571,1057,o),
(528,1001,o),
(528,972,q),
(528,922,o),
(605,837,o),
(684,789,q),
(918,646,l),
(1012,584,o),
(1108,459,o),
(1108,387,q),
(1108,311,o),
(1022,165,o),
(864,50,o),
(642,-20,o),
(506,-20,q),
(384,-20,o),
(213,19,o),
(103,86,o),
(53,173,o),
(53,221,q),
(53,271,o),
(104,374,o),
(197,466,o),
(327,538,o),
(405,557,q)
);
}
);
width = 1135;
}
);
},
{
glyphname = A.alt2;
layers = (
{
layerId = "DC66AB0F-19FD-4F06-8C39-5D32AA939720";
shapes = (
{
closed = 1;
nodes = (
(906,265,o),
(891,211,o),
(891,188,q),
(891,170,o),
(904,147,o),
(921,147,q),
(946,147,o),
(1017,186,o),
(1100,251,o),
(1190,336,o),
(1277,427,o),
(1356,519,o),
(1388,559,q),
(1418,426,l),
(1351,338,o),
(1212,176,o),
(1071,52,o),
(930,-22,o),
(863,-22,q),
(821,-22,o),
(766,4,o),
(732,48,o),
(718,106,o),
(718,139,q),
(718,170,o),
(719,198,q),
(711,191,o),
(703,183,q),
(673,153,o),
(604,100,q),
(552,60,o),
(443,-3,o),
(332,-40,o),
(280,-40,q),
(206,-40,o),
(97,18,o),
(25,110,o),
(-10,224,o),
(-10,280,q),
(-10,341,o),
(35,500,o),
(116,678,o),
(230,866,o),
(370,1042,o),
(531,1199,o),
(706,1317,o),
(891,1385,o),
(984,1385,q),
(1056,1385,o),
(1201,1338,o),
(1272,1286,q),
(1294,1269,o),
(1314,1223,o),
(1314,1200,q),
(1314,1182,o),
(1303,1147,o),
(1283,1121,o),
(1254,1105,o),
(1218,1105,o),
(1175,1124,o),
(1152,1147,q),
(1112,1185,o),
(1025,1219,o),
(977,1219,q),
(894,1219,o),
(719,1127,o),
(551,976,o),
(402,786,o),
(290,589,o),
(224,404,o),
(224,335,q),
(224,306,o),
(234,239,o),
(261,181,o),
(308,142,o),
(384,142,o),
(477,190,o),
(574,266,o),
(670,361,o),
(752,453,o),
(784,494,q),
(817,536,o),
(824,548,q),
(825,550,o),
(829,558,q),
(836,573,o),
(902,698,q),
(943,776,o),
(1008,895,q),
(1022,933,o),
(1076,965,o),
(1105,965,q),
(1120,965,o),
(1149,956,o),
(1173,937,o),
(1187,908,o),
(1187,888,q),
(1187,870,o),
(1156,793,o),
(1106,691,o),
(1045,571,o),
(984,448,o),
(930,332,o),
(913,285,q)
);
}
);
width = 1142;
}
);
},
{
glyphname = a;
layers = (
{
layerId = "DC66AB0F-19FD-4F06-8C39-5D32AA939720";
shapes = (
{
closed = 1;
nodes = (
(453,546,o),
(365,498,o),
(297,420,o),
(257,323,o),
(257,274,q),
(257,254,o),
(262,211,o),
(280,175,o),
(313,151,o),
(341,151,q),
(363,151,o),
(422,190,o),
(485,251,o),
(545,324,o),
(593,394,o),
(623,450,o),
(623,463,q),
(623,482,o),
(597,513,o),
(559,535,o),
(516,546,o),
(500,546,q)
);
},
{
closed = 1;
nodes = (
(1175,271,o),
(1115,211,o),
(1038,141,o),
(951,70,o),
(860,12,o),
(772,-25,o),
(733,-25,q),
(698,-25,o),
(648,5,o),
(615,53,o),
(599,114,o),
(599,146,q),
(599,167,o),
(605,208,o),
(612,226,q),
(581,184,o),
(502,95,o),
(411,22,o),
(312,-25,o),
(261,-25,q),
(235,-25,o),
(166,-4,o),
(104,44,o),
(62,120,o),
(62,175,q),
(62,216,o),
(87,330,o),
(138,453,o),
(217,573,o),
(325,668,o),
(463,727,o),
(548,727,q),
(592,727,o),
(658,705,o),
(681,692,q),
(707,676,o),
(727,657,q),
(744,666,o),
(762,674,q),
(777,681,o),
(810,692,o),
(822,692,q),
(860,692,o),
(908,650,o),
(908,625,q),
(908,618,o),
(907,614,q),
(902,595,o),
(881,537,o),
(855,466,o),
(828,389,o),
(806,315,o),
(792,250,o),
(792,227,q),
(792,197,o),
(812,158,o),
(836,158,q),
(851,158,o),
(892,177,o),
(940,209,o),
(991,250,o),
(1015,271,q),
(1071,321,o),
(1134,385,q),
(1150,398,o),
(1165,398,q),
(1185,398,o),
(1212,359,o),
(1212,335,q),
(1212,307,o),
(1193,288,q)
);
}
);
width = 984;
}
);
unicode = 97;
},
{
glyphname = ae;
layers = (
{
layerId = "DC66AB0F-19FD-4F06-8C39-5D32AA939720";
shapes = (
{
closed = 1;
nodes = (
(1166,591,o),
(1158,591,o),
(1153,591,q),
(1115,591,o),
(1049,561,o),
(994,512,o),
(951,450,o),
(917,389,o),
(894,333,o),
(888,314,q),
(923,332,o),
(998,378,o),
(1064,420,o),
(1113,454,o),
(1123,460,q),
(1168,488,o),
(1202,537,o),
(1202,555,q),
(1202,570,o),
(1183,588,o),
(1171,590,q)
);
},
{
closed = 1;
nodes = (
(536,546,o),
(448,498,o),
(380,420,o),
(340,323,o),
(340,274,q),
(340,254,o),
(345,211,o),
(363,175,o),
(396,151,o),
(424,151,q),
(447,151,o),
(508,192,o),
(573,257,o),
(636,335,o),
(685,409,o),
(716,469,o),
(716,483,q),
(700,500,o),
(680,514,q),
(663,526,o),
(614,546,o),
(583,546,q)
);
},
{
closed = 1;
nodes = (
(1290,728,o),
(1372,648,o),
(1372,577,q),
(1372,535,o),
(1328,443,o),
(1220,348,o),
(1039,249,o),
(903,199,q),
(908,170,o),
(960,137,o),
(1003,137,q),
(1049,137,o),
(1154,164,o),
(1257,206,o),
(1355,255,o),
(1434,299,o),
(1487,331,o),
(1496,335,q),
(1505,341,o),
(1520,343,o),
(1526,343,q),
(1538,343,o),
(1554,332,o),
(1565,317,o),
(1569,300,o),
(1569,294,q),
(1569,285,o),
(1565,260,o),
(1552,244,q),
(1547,239,o),
(1490,195,o),
(1400,135,o),
(1281,68,o),
(1148,12,o),
(1004,-25,o),
(934,-25,q),
(885,-25,o),
(805,12,o),
(746,77,o),
(710,163,o),
(705,212,q),
(672,171,o),
(590,86,o),
(497,18,o),
(395,-25,o),
(344,-25,q),
(318,-25,o),
(249,-4,o),
(187,44,o),
(145,120,o),
(145,175,q),
(145,216,o),
(170,330,o),
(221,453,o),
(300,573,o),
(408,668,o),
(546,727,o),
(631,727,q),
(707,727,o),
(821,664,o),
(877,604,q),
(943,659,o),
(1108,728,o),
(1207,728,q)
);
}
);
width = 1357;
}
);
unicode = 230;
},
{
glyphname = b;
layers = (
{
layerId = "DC66AB0F-19FD-4F06-8C39-5D32AA939720";
shapes = (
{
closed = 1;
nodes = (
(550,561,o),
(436,506,o),
(345,416,o),
(287,303,o),
(287,245,q),
(287,229,o),
(293,196,o),
(312,168,o),
(348,150,o),
(378,150,q),
(436,150,o),
(545,205,o),
(631,295,o),
(683,408,o),
(683,465,q),
(683,480,o),
(678,514,o),
(662,542,o),
(632,561,o),
(607,561,q)
);
},
{
closed = 1;
nodes = (
(606,56,o),
(415,-39,o),
(304,-39,q),
(243,-39,o),
(159,-4,o),
(107,56,o),
(84,136,o),
(84,181,q),
(84,232,o),
(110,341,o),
(131,392,q),
(145,425,o),
(163,469,o),
(175,500,o),
(184,523,o),
(194,548,o),
(208,581,o),
(220,607,q),
(512,1256,l),
(518,1269,o),
(541,1293,o),
(571,1312,o),
(606,1323,o),
(624,1323,q),
(670,1323,o),
(707,1287,o),
(707,1261,q),
(707,1241,o),
(687,1194,o),
(675,1174,q),
(601,1032,o),
(469,739,o),
(395,596,q),
(427,621,o),
(499,668,o),
(577,705,o),
(661,728,o),
(705,728,q),
(736,728,o),
(800,704,o),
(853,658,o),
(886,591,o),
(886,547,q),
(886,537,o),
(874,477,o),
(851,402,o),
(818,323,o),
(798,293,q),
(805,282,o),
(827,277,o),
(841,277,q),
(887,277,o),
(978,301,o),
(1059,336,o),
(1127,374,o),
(1150,388,q),
(1162,401,o),
(1176,401,q),
(1193,401,o),
(1218,371,o),
(1218,347,q),
(1218,324,o),
(1199,279,o),
(1174,252,q),
(1129,225,o),
(1038,177,o),
(944,142,o),
(847,121,o),
(797,121,q),
(765,121,o),
(711,139,o),
(691,158,q)
);
}
);
width = 906;
}
);
unicode = 98;
},
{
glyphname = c;
layers = (
{
layerId = "DC66AB0F-19FD-4F06-8C39-5D32AA939720";
shapes = (
{
closed = 1;
nodes = (
(669,604,o),
(655,529,o),
(623,463,o),
(573,419,o),
(536,419,q),
(516,419,o),
(505,431,o),
(505,446,q),
(505,455,o),
(506,490,o),
(506,506,q),
(506,524,o),
(496,549,o),
(476,549,q),
(453,549,o),
(396,514,o),
(339,458,o),
(285,387,o),
(242,314,o),
(217,246,o),
(217,222,q),
(217,187,o),
(266,147,o),
(308,147,q),
(353,147,o),
(455,177,o),
(556,223,o),
(650,277,o),
(727,326,o),
(779,361,o),
(787,365,q),
(803,373,o),
(817,373,q),
(829,373,o),
(846,362,o),
(856,347,o),
(860,330,o),
(860,324,q),
(860,315,o),
(856,290,o),
(843,274,q),
(838,268,o),
(783,219,o),
(696,153,o),
(583,78,o),
(454,16,o),
(316,-25,o),
(249,-25,q),
(198,-25,o),
(119,7,o),
(65,62,o),
(37,136,o),
(37,177,q),
(37,222,o),
(79,339,o),
(153,461,o),
(253,579,o),
(370,671,o),
(497,727,o),
(562,727,q),
(584,727,o),
(623,717,o),
(652,696,o),
(669,660,o),
(669,635,q)
);
}
);
width = 645;
}
);
unicode = 99;
},
{
glyphname = d;
layers = (
{
layerId = "DC66AB0F-19FD-4F06-8C39-5D32AA939720";
shapes = (
{
closed = 1;
nodes = (
(713,201,o),
(713,195,o),
(712,193,q),
(712,175,o),
(730,136,o),
(750,136,q),
(758,136,o),
(762,138,q),
(819,155,o),
(936,229,o),
(1044,317,o),
(1135,409,o),
(1165,445,q),
(1179,462,o),
(1196,462,q),
(1211,462,o),
(1234,434,o),
(1234,410,q),
(1234,391,o),
(1213,339,o),
(1189,309,q),
(1130,244,o),
(1006,124,o),
(880,31,o),
(755,-25,o),
(695,-25,q),
(622,-25,o),
(538,58,o),
(538,141,q),
(538,146,o),
(538,157,o),
(539,162,q),
(516,120,o),
(444,51,o),
(358,2,o),
(266,-25,o),
(223,-25,q),
(186,-25,o),
(124,-5,o),
(79,39,o),
(54,107,o),
(54,155,q),
(54,239,o),
(106,390,o),
(192,517,o),
(303,618,o),
(422,689,o),
(540,727,o),
(589,727,q),
(646,727,o),
(687,708,q),
(707,698,o),
(724,681,q),
(728,690,o),
(732,698,q),
(742,722,o),
(758,757,o),
(761,765,q),
(764,774,o),
(792,840,o),
(829,929,o),
(872,1031,o),
(908,1121,o),
(934,1186,o),
(937,1195,q),
(944,1220,o),
(968,1267,o),
(1001,1302,o),
(1045,1323,o),
(1073,1323,q),
(1111,1323,o),
(1161,1290,o),
(1161,1243,q),
(1161,1224,o),
(1151,1184,o),
(1138,1146,o),
(1123,1109,o),
(1117,1093,q),
(1067,993,o),
(957,758,o),
(849,520,o),
(751,294,o),
(714,203,q)
);
},
{
closed = 1;
nodes = (
(624,592,o),
(558,568,q),
(482,542,o),
(356,439,o),
(269,289,o),
(263,192,q),
(263,152,o),
(297,152,q),
(339,152,o),
(415,187,o),
(484,246,o),
(544,322,o),
(595,404,o),
(636,485,o),
(651,520,q),
(656,531,o),
(665,551,q),
(673,570,o),
(684,594,q)
);
}
);
width = 967;
}
);
unicode = 100;
},
{
glyphname = eth;
layers = (
{
layerId = "DC66AB0F-19FD-4F06-8C39-5D32AA939720";
shapes = (
{
closed = 1;
nodes = (
(793,379,o),
(799,508,q),
(754,562,o),
(633,626,o),
(574,626,q),
(544,626,o),
(478,595,o),
(423,532,o),
(387,436,o),
(387,372,q),
(387,328,o),
(410,247,o),
(452,184,o),
(514,146,o),
(553,146,q),
(584,146,o),
(644,166,o),
(696,201,o),
(737,249,o),
(749,278,q)
);
},
{
closed = 1;
nodes = (
(1044,1044,l),
(1061,1044,o),
(1081,1015,o),
(1081,996,q),
(1081,971,o),
(1043,926,o),
(999,926,q),
(936,926,l),
(970,841,o),
(1000,676,o),
(1000,597,q),
(1000,512,o),
(970,361,o),
(943,298,q),
(913,228,o),
(818,110,o),
(701,23,o),
(569,-26,o),
(501,-26,q),
(427,-26,o),
(309,23,o),
(227,109,o),
(182,228,o),
(182,299,q),
(182,347,o),
(205,451,o),
(228,506,q),
(259,579,o),
(340,681,o),
(431,746,o),
(528,776,o),
(575,776,q),
(635,776,o),
(747,747,o),
(794,721,q),
(786,757,o),
(755,863,o),
(720,926,q),
(548,926,l),
(531,926,o),
(514,950,o),
(514,967,q),
(514,980,o),
(525,1007,o),
(548,1029,o),
(584,1044,o),
(610,1044,q),
(638,1044,l),
(627,1057,o),
(592,1090,o),
(559,1124,o),
(535,1157,o),
(535,1169,q),
(535,1189,o),
(560,1229,o),
(598,1262,o),
(644,1282,o),
(664,1282,q),
(672,1282,o),
(688,1280,o),
(693,1272,q),
(752,1218,o),
(843,1104,o),
(878,1044,q)
);
}
);
width = 981;
}
);
unicode = 240;
},
{
glyphname = e;
layers = (
{
layerId = "DC66AB0F-19FD-4F06-8C39-5D32AA939720";
shapes = (
{
closed = 1;
nodes = (
(513,591,o),
(505,591,o),
(500,591,q),
(462,591,o),
(396,561,o),
(341,512,o),
(298,450,o),
(264,389,o),
(241,333,o),
(235,314,q),
(270,332,o),
(345,378,o),
(411,420,o),
(460,454,o),
(470,460,q),
(515,488,o),
(549,537,o),
(549,555,q),
(549,570,o),
(530,588,o),
(518,590,q)
);
},
{
closed = 1;
nodes = (
(637,728,o),
(719,648,o),
(719,577,q),
(719,535,o),
(675,443,o),
(567,348,o),
(386,249,o),
(250,199,q),
(255,170,o),
(307,137,o),
(350,137,q),
(396,137,o),
(501,164,o),
(604,206,o),
(702,255,o),
(781,299,o),
(834,331,o),
(843,335,q),
(852,341,o),
(867,343,o),
(873,343,q),
(885,343,o),
(901,332,o),
(912,317,o),
(916,300,o),
(916,294,q),
(916,285,o),
(912,260,o),
(899,244,q),
(894,239,o),
(837,195,o),
(747,135,o),
(628,68,o),
(495,12,o),
(351,-25,o),
(281,-25,q),
(221,-25,o),
(128,21,o),
(63,99,o),
(29,201,o),
(29,257,q),
(29,300,o),
(63,403,o),
(127,507,o),
(220,606,o),
(336,682,o),
(475,728,o),
(554,728,q)
);
}
);
width = 704;
}
);
unicode = 101;
},
{
glyphname = f;
layers = (
{
layerId = "DC66AB0F-19FD-4F06-8C39-5D32AA939720";
shapes = (
{
closed = 1;
nodes = (
(743,566,o),
(650,564,o),
(562,563,o),
(476,563,o),
(432,563,q),
(406,512,o),
(341,377,o),
(270,229,o),
(199,78,o),
(135,-57,o),
(83,-166,o),
(67,-198,q),
(56,-221,o),
(24,-260,o),
(-14,-288,o),
(-54,-303,o),
(-71,-303,q),
(-95,-303,o),
(-133,-279,o),
(-133,-253,q),
(-133,-240,o),
(-121,-205,o),
(-110,-182,q),
(243,566,l),
(190,566,l),
(135,566,o),
(95,600,o),
(95,623,q),
(95,647,o),
(145,692,o),
(193,692,q),
(311,692,l),
(382,835,o),
(525,1021,o),
(663,1129,o),
(794,1171,o),
(854,1171,q),
(882,1171,o),
(933,1149,o),
(972,1105,o),
(996,1038,o),
(996,993,q),
(996,950,o),
(984,898,q),
(981,884,o),
(963,865,o),
(941,853,o),
(919,848,o),
(911,848,q),
(891,848,o),
(857,867,o),
(857,887,q),
(857,900,o),
(860,922,o),
(860,933,q),
(860,975,o),
(829,1011,o),
(803,1011,q),
(772,1011,o),
(689,957,o),
(604,867,o),
(526,752,o),
(501,692,q),
(734,692,l),
(765,692,o),
(819,690,o),
(860,680,o),
(883,657,o),
(883,635,q),
(883,624,o),
(875,602,o),
(856,583,o),
(822,570,o),
(795,568,q)
);
}
);
width = 506;
}
);
unicode = 102;
},
{
glyphname = g;
layers = (
{
layerId = "DC66AB0F-19FD-4F06-8C39-5D32AA939720";
shapes = (
{
closed = 1;
nodes = (
(613,727,o),
(679,705,o),
(702,692,q),
(728,676,o),
(748,657,q),
(762,666,o),
(778,674,q),
(792,681,o),
(826,692,o),
(843,692,q),
(887,692,o),
(935,656,o),
(935,631,q),
(935,618,o),
(928,605,q),
(694,162,l),
(713,179,l),
(831,248,o),
(983,327,o),
(1073,365,o),
(1112,374,o),
(1117,374,q),
(1140,374,o),
(1165,339,o),
(1165,313,q),
(1165,284,o),
(1132,224,o),
(1098,211,q),
(1053,188,o),
(933,135,o),
(803,71,o),
(672,-8,o),
(615,-56,q),
(421,-407,l),
(397,-464,o),
(358,-536,o),
(320,-578,o),
(280,-594,o),
(254,-594,q),
(215,-594,o),
(170,-540,o),
(170,-502,q),
(170,-462,o),
(208,-356,o),
(277,-233,o),
(375,-98,o),
(435,-28,q),
(559,130,l),
(521,95,o),
(447,45,o),
(379,14,o),
(320,0,o),
(298,0,q),
(258,0,o),
(190,37,o),
(141,103,o),
(113,193,o),
(113,246,q),
(113,356,o),
(198,534,o),
(331,659,o),
(492,727,o),
(569,727,q)
);
},
{
closed = 1;
nodes = (
(484,551,o),
(396,504,o),
(328,427,o),
(288,327,o),
(288,274,q),
(288,258,o),
(293,221,o),
(310,189,o),
(343,168,o),
(372,168,q),
(393,168,o),
(450,205,o),
(511,262,o),
(569,331,o),
(616,397,o),
(644,450,o),
(644,463,q),
(644,485,o),
(620,518,o),
(585,540,o),
(546,551,o),
(531,551,q)
);
}
);
width = 944;
}
);
unicode = 103;
},
{
glyphname = h;
layers = (
{
layerId = "DC66AB0F-19FD-4F06-8C39-5D32AA939720";
shapes = (
{
closed = 1;
nodes = (
(33,209,o),
(95,334,o),
(158,457,o),
(214,568,o),
(233,607,q),
(563,1256,l),
(569,1269,o),
(594,1293,o),
(626,1312,o),
(662,1323,o),
(680,1323,q),
(724,1323,o),
(758,1290,o),
(758,1266,q),
(758,1244,o),
(736,1195,o),
(722,1174,q),
(678,1099,o),
(597,946,o),
(516,791,o),
(434,638,o),
(389,563,q),
(417,590,o),
(480,648,o),
(554,696,o),
(642,727,o),
(696,727,q),
(728,727,o),
(786,715,o),
(830,688,o),
(856,641,o),
(856,607,q),
(856,562,o),
(829,487,o),
(787,420,o),
(737,359,o),
(692,296,o),
(659,228,o),
(655,188,q),
(655,186,o),
(654,182,o),
(654,180,q),
(654,160,o),
(681,150,o),
(702,150,q),
(729,150,o),
(791,171,o),
(854,206,o),
(917,250,o),
(974,296,o),
(1022,339,o),
(1039,355,q),
(1048,363,o),
(1068,371,o),
(1077,371,q),
(1095,371,o),
(1120,344,o),
(1120,321,q),
(1120,300,o),
(1091,246,o),
(1056,219,q),
(1001,171,o),
(887,83,o),
(771,15,o),
(656,-25,o),
(601,-25,q),
(530,-25,o),
(444,40,o),
(444,110,q),
(444,161,o),
(479,252,o),
(530,337,o),
(588,416,o),
(610,454,q),
(622,471,o),
(635,500,o),
(635,517,q),
(635,532,o),
(619,551,o),
(602,551,q),
(543,551,o),
(443,493,o),
(359,403,o),
(287,296,o),
(256,247,q),
(242,225,o),
(213,168,o),
(182,108,o),
(148,49,o),
(111,3,o),
(70,-25,o),
(48,-25,q),
(13,-25,o),
(-25,16,o),
(-25,47,q),
(-25,70,o),
(-9,121,o),
(9,158,q)
);
}
);
width = 898;
}
);
unicode = 104;
},
{
glyphname = i;
layers = (
{
layerId = "DC66AB0F-19FD-4F06-8C39-5D32AA939720";
shapes = (
{
closed = 1;
nodes = (
(346,888,o),
(363,937,o),
(397,977,o),
(448,1003,o),
(483,1003,q),
(541,1003,o),
(587,958,o),
(587,924,q),
(587,905,o),
(572,859,o),
(542,820,o),
(494,794,o),
(461,794,q),
(399,794,o),
(349,833,o),
(346,865,q)
);
},
{
closed = 1;
nodes = (
(253,668,o),
(297,692,o),
(320,692,q),
(358,692,o),
(413,643,o),
(413,605,q),
(412,596,o),
(409,578,o),
(404,569,q),
(390,543,o),
(372,507,o),
(357,476,o),
(343,446,o),
(333,425,q),
(321,400,o),
(291,341,o),
(264,279,o),
(245,219,o),
(245,194,q),
(245,167,o),
(272,150,o),
(297,150,q),
(325,150,o),
(386,174,o),
(448,212,o),
(508,261,o),
(561,311,o),
(606,357,o),
(621,375,q),
(641,394,o),
(661,394,q),
(679,394,o),
(702,362,o),
(702,337,q),
(702,314,o),
(679,262,o),
(653,239,q),
(602,187,o),
(496,92,o),
(385,19,o),
(273,-25,o),
(216,-25,q),
(135,-25,o),
(42,58,o),
(42,146,q),
(42,192,o),
(68,280,o),
(104,363,o),
(144,440,o),
(158,475,q),
(163,488,o),
(188,542,o),
(202,570,q),
(218,603,o),
(236,640,q)
);
}
);
width = 480;
}
);
unicode = 105;
},
{
glyphname = dotlessi;
layers = (
{
layerId = "DC66AB0F-19FD-4F06-8C39-5D32AA939720";
shapes = (
{
closed = 1;
nodes = (
(264,668,o),
(308,692,o),
(331,692,q),
(369,692,o),
(424,643,o),
(424,605,q),
(423,596,o),
(420,578,o),
(415,569,q),
(401,543,o),
(383,507,o),
(368,476,o),
(354,446,o),
(344,425,q),
(332,400,o),
(302,341,o),
(275,279,o),
(256,219,o),
(256,194,q),
(256,167,o),
(283,154,o),
(308,154,q),
(350,154,o),
(445,203,o),
(534,273,o),
(609,349,o),
(632,375,q),
(664,239,l),
(613,187,o),
(507,93,o),
(396,21,o),
(284,-22,o),
(227,-22,q),
(147,-22,o),
(53,59,o),
(53,146,q),
(53,192,o),
(79,280,o),
(115,363,o),
(155,440,o),
(169,475,q),
(174,488,o),
(199,542,o),
(213,570,q),
(229,603,o),
(247,640,q)
);
}
);
width = 480;
}
);
unicode = 305;
},
{
glyphname = j;
layers = (
{
layerId = "DC66AB0F-19FD-4F06-8C39-5D32AA939720";
shapes = (
{
closed = 1;
nodes = (
(402,888,o),
(421,937,o),
(457,977,o),
(509,1003,o),
(544,1003,q),
(599,1003,o),
(644,962,o),
(644,931,q),
(644,911,o),
(629,864,o),
(598,822,o),
(548,794,o),
(513,794,q),
(451,794,o),
(402,833,o),
(401,865,q)
);
},
{
closed = 1;
nodes = (
(285,178,o),
(472,307,o),
(606,388,q),
(621,397,o),
(635,397,q),
(657,397,o),
(686,361,o),
(686,309,o),
(646,248,o),
(599,224,q),
(261,-8,l),
(239,-28,o),
(204,-57,o),
(169,-84,o),
(132,-111,o),
(109,-127,q),
(60,-211,o),
(-18,-328,o),
(-94,-401,o),
(-174,-435,o),
(-225,-435,q),
(-272,-435,o),
(-309,-398,o),
(-309,-365,q),
(-309,-334,o),
(-251,-271,o),
(-173,-204,o),
(-94,-129,o),
(-73,-85,q),
(-46,-29,o),
(15,99,o),
(77,231,o),
(140,362,o),
(197,481,o),
(248,583,o),
(267,619,q),
(287,657,o),
(350,692,o),
(380,692,q),
(412,692,o),
(458,656,o),
(458,623,q),
(458,601,o),
(451,565,o),
(431,520,o),
(398,457,o),
(346,361,o),
(274,224,o),
(225,127,q)
);
}
);
width = 486;
}
);
unicode = 106;
},
{
glyphname = k;
layers = (
{
layerId = "DC66AB0F-19FD-4F06-8C39-5D32AA939720";
shapes = (
{
closed = 1;
nodes = (
(413,551,o),
(498,628,o),
(591,689,o),
(693,727,o),
(749,727,q),
(782,727,o),
(852,712,o),
(909,678,o),
(945,624,o),
(945,585,q),
(945,521,o),
(886,417,o),
(792,335,o),
(677,272,o),
(622,250,q),
(608,244,o),
(584,225,o),
(567,204,o),
(557,183,o),
(557,176,q),
(557,164,o),
(572,147,o),
(591,147,q),
(628,147,o),
(722,177,o),
(847,238,o),
(1008,332,o),
(1113,396,q),
(1130,406,o),
(1145,406,q),
(1164,406,o),
(1186,378,o),
(1186,355,q),
(1186,327,o),
(1145,256,o),
(1097,224,q),
(1030,183,o),
(890,95,o),
(742,22,o),
(586,-25,o),
(504,-25,q),
(362,-25,o),
(362,98,q),
(362,163,o),
(417,262,o),
(496,336,o),
(582,389,o),
(613,410,q),
(637,424,o),
(679,456,o),
(712,490,o),
(731,525,o),
(731,543,q),
(731,572,o),
(704,572,q),
(604,572,o),
(424,379,q),
(383,335,o),
(315,252,o),
(256,172,o),
(202,97,o),
(176,63,q),
(98,-25,o),
(37,-25,q),
(8,-25,o),
(-18,-4,o),
(-18,25,q),
(-18,29,o),
(-18,37,o),
(-17,42,q),
(-15,62,o),
(15,144,o),
(60,248,o),
(115,366,o),
(169,479,o),
(217,578,o),
(233,611,q),
(549,1256,l),
(555,1269,o),
(580,1293,o),
(611,1312,o),
(646,1323,o),
(664,1323,q),
(709,1323,o),
(744,1289,o),
(744,1265,q),
(744,1243,o),
(723,1195,o),
(709,1174,q),
(667,1099,o),
(584,930,o),
(502,756,o),
(418,587,o),
(375,512,q)
);
}
);
width = 960;
}
);
unicode = 107;
},
{
glyphname = l;
layers = (
{
layerId = "DC66AB0F-19FD-4F06-8C39-5D32AA939720";
shapes = (
{
closed = 1;
nodes = (
(262,266,o),
(241,205,o),
(241,181,q),
(241,166,o),
(253,148,o),
(270,148,q),
(291,148,o),
(354,173,o),
(427,214,o),
(506,267,o),
(584,324,o),
(655,381,o),
(683,405,q),
(691,412,o),
(713,418,o),
(721,418,q),
(741,418,o),
(767,390,o),
(767,367,q),
(767,346,o),
(739,294,o),
(704,269,q),
(640,210,o),
(510,104,o),
(381,23,o),
(254,-25,o),
(194,-25,q),
(153,-25,o),
(98,-3,o),
(65,35,o),
(51,87,o),
(51,116,q),
(51,165,o),
(80,268,o),
(100,311,q),
(135,389,o),
(207,543,o),
(237,607,q),
(540,1252,l),
(558,1291,o),
(619,1323,o),
(681,1323,o),
(732,1289,o),
(732,1251,q),
(732,1233,o),
(715,1193,o),
(702,1170,q),
(677,1123,o),
(608,987,o),
(529,827,o),
(446,654,o),
(367,490,o),
(298,343,o),
(273,289,q)
);
}
);
width = 528;
}
);
unicode = 108;
},
{
glyphname = lslash;
layers = (
{
layerId = "DC66AB0F-19FD-4F06-8C39-5D32AA939720";
shapes = (
{
closed = 1;
nodes = (
(262,266,o),
(241,205,o),
(241,181,q),
(241,166,o),
(253,148,o),
(270,148,q),
(291,148,o),
(354,173,o),
(427,214,o),
(506,267,o),
(584,324,o),
(655,381,o),
(683,405,q),
(691,412,o),
(713,418,o),
(721,418,q),
(741,418,o),
(767,390,o),
(767,367,q),
(767,346,o),
(739,294,o),
(704,269,q),
(640,210,o),
(510,104,o),
(381,23,o),
(254,-25,o),
(194,-25,q),
(153,-25,o),
(98,-3,o),
(65,35,o),
(51,87,o),
(51,116,q),
(51,165,o),
(80,268,o),
(100,311,q),
(135,389,o),
(207,543,o),
(237,607,q),
(307,757,l),
(268,747,o),
(229,736,q),
(226,735,o),
(219,735,q),
(203,735,o),
(183,764,o),
(183,784,q),
(183,807,o),
(216,855,o),
(258,866,q),
(316,881,o),
(373,896,q),
(540,1252,l),
(558,1291,o),
(619,1323,o),
(681,1323,o),
(732,1289,o),
(732,1251,q),
(732,1233,o),
(715,1193,o),
(702,1170,q),
(676,1123,o),
(642,1055,q),
(618,1008,o),
(592,955,q),
(634,966,o),
(677,978,q),
(680,979,o),
(685,979,q),
(703,979,o),
(728,945,o),
(728,923,q),
(728,902,o),
(699,861,o),
(664,852,q),
(593,833,o),
(523,814,q),
(506,778,o),
(488,740,q),
(446,654,o),
(367,490,o),
(298,343,o),
(273,289,q)
);
}
);
width = 528;
}
);
unicode = 322;
},
{
glyphname = m;
layers = (
{
layerId = "DC66AB0F-19FD-4F06-8C39-5D32AA939720";
shapes = (
{
closed = 1;
nodes = (
(422,82,o),
(465,182,o),
(531,288,o),
(609,397,o),
(644,454,q),
(654,470,o),
(666,499,o),
(666,514,q),
(666,530,o),
(648,551,o),
(631,551,q),
(590,551,o),
(514,516,o),
(444,459,o),
(381,385,o),
(326,306,o),
(278,228,o),
(258,196,q),
(240,163,o),
(210,85,o),
(175,19,o),
(131,-26,o),
(98,-26,q),
(62,-26,o),
(20,20,o),
(20,52,q),
(20,70,o),
(46,146,o),
(87,247,o),
(139,361,o),
(190,473,o),
(235,572,o),
(250,607,q),
(268,650,o),
(327,692,o),
(356,692,q),
(381,692,o),
(420,655,o),
(420,620,q),
(420,594,o),
(408,563,q),
(435,588,o),
(497,646,o),
(570,695,o),
(660,727,o),
(716,727,q),
(744,727,o),
(794,713,o),
(833,683,o),
(858,635,o),
(860,601,q),
(883,624,o),
(937,669,o),
(1000,705,o),
(1074,727,o),
(1119,727,q),
(1152,727,o),
(1212,713,o),
(1259,680,o),
(1286,628,o),
(1286,590,q),
(1286,530,o),
(1231,422,o),
(1194,377,q),
(1182,362,o),
(1142,316,o),
(1104,264,o),
(1076,209,o),
(1076,185,q),
(1076,163,o),
(1103,151,o),
(1125,151,q),
(1167,151,o),
(1265,201,o),
(1358,272,o),
(1439,349,o),
(1463,375,q),
(1469,382,o),
(1485,388,o),
(1493,388,q),
(1511,388,o),
(1540,356,o),
(1540,330,q),
(1540,310,o),
(1516,262,o),
(1487,239,q),
(1433,187,o),
(1320,92,o),
(1205,19,o),
(1090,-25,o),
(1033,-25,q),
(959,-25,o),
(868,45,o),
(868,121,q),
(868,171,o),
(906,259,o),
(962,340,o),
(1024,416,o),
(1047,454,q),
(1057,470,o),
(1069,499,o),
(1069,514,q),
(1069,530,o),
(1051,551,o),
(1034,551,q),
(993,551,o),
(917,516,o),
(847,459,o),
(784,385,o),
(729,306,o),
(681,228,o),
(661,196,q),
(643,163,o),
(613,85,o),
(578,19,o),
(534,-26,o),
(501,-26,q),
(489,-26,o),
(461,-17,o),
(438,-1,o),
(423,21,o),
(422,34,q)
);
}
);
width = 1312;
}
);
unicode = 109;
},
{
glyphname = n;
layers = (
{
layerId = "DC66AB0F-19FD-4F06-8C39-5D32AA939720";
shapes = (
{
closed = 1;
nodes = (
(285,650,o),
(345,692,o),
(374,692,q),
(398,692,o),
(436,657,o),
(436,623,q),
(436,610,o),
(430,580,o),
(422,563,q),
(444,591,o),
(526,650,o),
(625,697,o),
(730,727,o),
(777,727,q),
(830,727,o),
(901,676,o),
(901,615,q),
(901,579,o),
(879,501,o),
(844,423,o),
(801,348,o),
(759,282,o),
(724,227,o),
(714,209,q),
(701,193,o),
(701,172,q),
(701,164,o),
(711,152,o),
(722,152,q),
(729,152,o),
(747,155,o),
(760,164,q),
(814,184,o),
(927,244,o),
(1031,311,o),
(1118,378,o),
(1147,405,q),
(1155,412,o),
(1171,418,o),
(1178,418,q),
(1195,418,o),
(1214,392,o),
(1214,372,q),
(1214,341,o),
(1175,265,o),
(1133,232,q),
(1076,191,o),
(981,123,o),
(882,64,o),
(769,13,o),
(693,-9,q),
(667,-17,o),
(624,-25,o),
(606,-25,q),
(553,-25,o),
(504,34,o),
(504,87,q),
(504,94,o),
(505,107,o),
(506,115,q),
(508,146,o),
(537,220,o),
(578,298,o),
(624,375,o),
(663,444,o),
(689,498,o),
(689,515,q),
(689,530,o),
(672,551,o),
(655,551,q),
(591,551,o),
(476,475,o),
(376,364,o),
(292,240,o),
(260,191,q),
(240,158,o),
(207,83,o),
(171,18,o),
(126,-25,o),
(92,-25,q),
(57,-25,o),
(17,19,o),
(17,51,q),
(17,68,o),
(45,144,o),
(89,244,o),
(144,359,o),
(199,472,o),
(249,572,o),
(265,607,q)
);
}
);
width = 951;
}
);
unicode = 110;
},
{
glyphname = o;
layers = (
{
layerId = "DC66AB0F-19FD-4F06-8C39-5D32AA939720";
shapes = (
{
closed = 1;
nodes = (
(441,551,o),
(354,504,o),
(287,427,o),
(247,330,o),
(247,279,q),
(247,260,o),
(253,215,o),
(272,176,o),
(308,150,o),
(338,150,q),
(384,150,o),
(471,199,o),
(539,278,o),
(579,378,o),
(579,429,q),
(579,449,o),
(574,492,o),
(555,528,o),
(519,551,o),
(488,551,q)
);
},
{
closed = 1;
nodes = (
(578,727,o),
(665,707,o),
(739,659,o),
(788,580,o),
(788,522,q),
(788,492,o),
(772,415,o),
(756,373,q),
(766,361,o),
(792,351,o),
(807,351,q),
(828,351,o),
(879,375,o),
(933,413,o),
(987,461,o),
(1035,509,o),
(1074,552,o),
(1087,567,q),
(1094,574,o),
(1104,574,q),
(1118,574,o),
(1140,545,o),
(1140,493,o),
(1109,425,o),
(1067,388,q),
(1043,362,o),
(981,294,o),
(911,234,o),
(835,192,o),
(797,192,q),
(771,192,o),
(722,208,o),
(697,226,q),
(661,170,o),
(569,78,o),
(456,12,o),
(325,-25,o),
(251,-25,q),
(223,-25,o),
(149,-3,o),
(82,48,o),
(36,130,o),
(36,189,q),
(36,229,o),
(62,341,o),
(115,460,o),
(196,577,o),
(308,670,o),
(452,727,o),
(540,727,q)
);
}
);
width = 848;
}
);
unicode = 111;
},
{
glyphname = oslash;
layers = (
{
layerId = "DC66AB0F-19FD-4F06-8C39-5D32AA939720";
shapes = (
{
closed = 1;
nodes = (
(472,551,o),
(385,504,o),
(318,427,o),
(278,330,o),
(278,279,q),
(278,271,o),
(278,252,o),
(280,243,q),
(534,550,l),
(530,550,o),
(523,551,o),
(519,551,q)
);
},
{
closed = 1;
nodes = (
(566,445,o),
(499,365,o),
(433,287,o),
(364,205,o),
(326,159,q),
(342,150,o),
(369,150,q),
(415,150,o),
(502,199,o),
(570,278,o),
(610,378,o),
(610,429,q),
(610,444,o),
(608,476,o),
(603,490,q)
);
},
{
closed = 1;
nodes = (
(618,727,o),
(668,712,q),
(725,782,l),
(735,793,o),
(759,805,o),
(770,805,q),
(789,805,o),
(816,780,o),
(816,763,q),
(816,757,o),
(808,741,o),
(808,736,q),
(752,669,l),
(781,645,o),
(819,573,o),
(819,522,q),
(819,492,o),
(803,415,o),
(787,373,q),
(797,361,o),
(823,351,o),
(838,351,q),
(864,351,o),
(925,377,o),
(990,419,o),
(1056,471,o),
(1114,524,o),
(1162,571,o),
(1178,587,q),
(1185,594,o),
(1195,594,q),
(1209,594,o),
(1231,565,o),
(1231,513,o),
(1200,445,o),
(1158,408,q),
(1129,379,o),
(1054,304,o),
(969,238,o),
(875,192,o),
(828,192,q),
(802,192,o),
(753,208,o),
(728,226,q),
(692,170,o),
(600,78,o),
(487,12,o),
(356,-25,o),
(282,-25,q),
(262,-25,o),
(215,-14,o),
(190,-3,q),
(139,-64,l),
(118,-89,o),
(95,-89,q),
(77,-89,o),
(52,-65,o),
(52,-49,q),
(52,-42,o),
(55,-29,o),
(62,-21,q),
(119,48,l),
(96,74,o),
(67,142,o),
(67,189,q),
(67,229,o),
(93,341,o),
(146,460,o),
(227,577,o),
(339,670,o),
(483,727,o),
(571,727,q)
);
}
);
width = 848;
}
);
unicode = 248;
},
{
glyphname = oe;
layers = (
{
layerId = "DC66AB0F-19FD-4F06-8C39-5D32AA939720";
shapes = (
{
closed = 1;
nodes = (
(1070,552,o),
(1041,568,o),
(1022,568,q),
(985,568,o),
(922,540,o),
(869,495,o),
(826,439,o),
(794,383,o),
(772,331,o),
(766,314,q),
(866,362,o),
(986,430,o),
(1050,479,o),
(1070,515,o),
(1070,532,q)
);
},
{
closed = 1;
nodes = (
(460,551,o),
(380,503,o),
(318,426,o),
(281,328,o),
(281,277,q),
(281,258,o),
(285,214,o),
(302,176,o),
(335,150,o),
(365,150,q),
(408,150,o),
(489,199,o),
(551,279,o),
(588,380,o),
(588,433,q),
(588,452,o),
(583,493,o),
(565,528,o),
(532,551,o),
(504,551,q)
);
},
{
closed = 1;
nodes = (
(1112,727,o),
(1174,707,o),
(1218,670,o),
(1242,616,o),
(1242,583,q),
(1242,541,o),
(1206,449,o),
(1106,351,o),
(926,250,o),
(781,199,q),
(786,170,o),
(838,137,o),
(881,137,q),
(922,137,o),
(1016,168,o),
(1109,216,o),
(1197,273,o),
(1268,324,o),
(1316,361,o),
(1324,365,q),
(1332,370,o),
(1348,373,o),
(1354,373,q),
(1366,373,o),
(1382,362,o),
(1393,347,o),
(1397,330,o),
(1397,324,q),
(1397,315,o),
(1393,290,o),
(1380,274,q),
(1375,268,o),
(1322,219,o),
(1238,153,o),
(1128,78,o),
(1006,16,o),
(875,-25,o),
(812,-25,q),
(732,-25,o),
(619,54,o),
(590,117,q),
(531,62,o),
(379,-8,o),
(285,-8,q),
(258,-8,o),
(190,13,o),
(128,61,o),
(86,138,o),
(86,193,q),
(86,233,o),
(110,344,o),
(159,462,o),
(235,578,o),
(338,670,o),
(470,727,o),
(552,727,q),
(583,727,o),
(643,709,o),
(693,669,o),
(729,606,o),
(737,561,q),
(805,634,o),
(975,727,o),
(1075,727,q)
);
}
);
width = 1180;
}
);
unicode = 339;
},
{
glyphname = p;
layers = (
{
layerId = "DC66AB0F-19FD-4F06-8C39-5D32AA939720";
shapes = (
{
closed = 1;
nodes = (
(1176,478,o),
(1200,488,o),
(1211,488,q),
(1233,488,o),
(1255,455,o),
(1255,431,q),
(1255,405,o),
(1228,351,o),
(1201,333,q),
(1094,253,o),
(926,121,o),
(777,26,o),
(635,-26,o),
(554,-26,q),
(478,-26,o),
(395,30,o),
(395,79,q),
(395,83,o),
(395,90,o),
(396,95,q),
(400,125,o),
(454,203,o),
(530,287,o),
(616,373,o),
(689,450,o),
(737,514,o),
(737,534,q),
(737,546,o),
(717,560,o),
(694,560,q),
(654,560,o),
(569,525,o),
(486,466,o),
(407,390,o),
(338,308,o),
(281,225,o),
(261,190,q),
(255,179,o),
(233,139,o),
(207,89,o),
(178,36,o),
(154,-11,o),
(135,-48,o),
(131,-55,q),
(126,-64,o),
(103,-114,o),
(73,-181,o),
(40,-255,o),
(11,-321,o),
(-11,-371,o),
(-14,-380,q),
(-24,-406,o),
(-51,-452,o),
(-86,-487,o),
(-131,-508,o),
(-159,-508,q),
(-195,-508,o),
(-242,-479,o),
(-242,-438,q),
(-242,-418,o),
(-230,-376,o),
(-212,-335,o),
(-193,-296,o),
(-185,-278,q),
(-131,-178,o),
(-19,23,o),
(84,220,o),
(172,410,o),
(201,497,q),
(209,515,o),
(237,581,o),
(273,645,o),
(318,692,o),
(344,692,q),
(384,692,o),
(420,661,o),
(420,631,q),
(420,625,o),
(416,599,o),
(410,570,o),
(403,544,o),
(400,538,q),
(437,572,o),
(523,639,o),
(615,693,o),
(711,727,o),
(759,727,q),
(792,727,o),
(857,711,o),
(908,680,o),
(940,633,o),
(940,602,q),
(940,561,o),
(891,468,o),
(817,374,o),
(731,285,o),
(656,212,o),
(605,161,o),
(604,152,q),
(604,140,o),
(622,125,o),
(643,125,q),
(660,125,o),
(726,157,o),
(845,236,o),
(1028,369,o),
(1162,470,q)
);
}
);
width = 979;
}
);
unicode = 112;
},
{
glyphname = thorn;
layers = (
{
layerId = "DC66AB0F-19FD-4F06-8C39-5D32AA939720";
shapes = (
{
closed = 1;
nodes = (
(627,561,o),
(513,506,o),
(422,416,o),
(364,303,o),
(364,245,q),
(364,229,o),
(370,196,o),
(389,168,o),
(425,150,o),
(455,150,q),
(513,150,o),
(622,205,o),
(708,295,o),
(760,408,o),
(760,465,q),
(760,480,o),
(755,514,o),
(739,542,o),
(709,561,o),
(684,561,q)
);
},
{
closed = 1;
nodes = (
(-21,-76,o),
(70,117,o),
(163,315,o),
(255,514,o),
(297,607,q),
(589,1256,l),
(595,1269,o),
(618,1293,o),
(648,1312,o),
(683,1323,o),
(701,1323,q),
(747,1323,o),
(784,1287,o),
(784,1261,q),
(784,1241,o),
(764,1194,o),
(752,1174,q),
(678,1032,o),
(546,739,o),
(472,596,q),
(504,621,o),
(576,668,o),
(654,705,o),
(738,728,o),
(782,728,q),
(813,728,o),
(877,704,o),
(930,658,o),
(963,591,o),
(963,547,q),
(963,537,o),
(951,477,o),
(928,402,o),
(895,323,o),
(875,293,q),
(882,282,o),
(904,277,o),
(918,277,q),
(964,277,o),
(1055,301,o),
(1136,336,o),
(1204,374,o),
(1227,388,q),
(1239,401,o),
(1253,401,q),
(1270,401,o),
(1295,371,o),
(1295,347,q),
(1295,324,o),
(1276,279,o),
(1251,252,q),
(1206,225,o),
(1115,177,o),
(1021,142,o),
(924,121,o),
(874,121,q),
(842,121,o),
(788,139,o),
(768,158,q),
(683,56,o),
(492,-39,o),
(381,-39,q),
(324,-39,o),
(244,-9,o),
(218,17,q),
(100,-246,l),
(94,-259,o),
(71,-283,o),
(41,-302,o),
(6,-313,o),
(-12,-313,q),
(-58,-313,o),
(-95,-277,o),
(-95,-251,q),
(-95,-231,o),
(-73,-185,o),
(-63,-164,q)
);
}
);
width = 980;
}
);
unicode = 254;
},
{
glyphname = q;
layers = (
{
layerId = "DC66AB0F-19FD-4F06-8C39-5D32AA939720";
shapes = (
{
closed = 1;
nodes = (
(637,521,o),
(622,537,q),
(609,551,o),
(567,573,o),
(535,573,q),
(477,573,o),
(377,509,o),
(303,410,o),
(261,290,o),
(261,234,q),
(261,190,o),
(290,152,o),
(315,152,q),
(349,152,o),
(422,194,o),
(503,280,o),
(593,412,o),
(645,502,q)
);
},
{
closed = 1;
nodes = (
(427,-264,l),
(418,-286,o),
(392,-339,o),
(392,-360,q),
(392,-383,o),
(414,-383,q),
(430,-383,o),
(471,-339,o),
(518,-265,o),
(569,-169,o),
(620,-64,o),
(669,41,o),
(711,134,o),
(744,207,o),
(755,226,q),
(777,254,o),
(841,302,o),
(916,350,o),
(1000,399,o),
(1043,428,q),
(1056,434,o),
(1067,434,q),
(1087,434,o),
(1108,395,o),
(1108,366,q),
(1108,347,o),
(1099,306,o),
(1080,267,o),
(1051,234,o),
(1032,224,q),
(891,138,l),
(869,122,o),
(826,42,o),
(780,-67,o),
(728,-196,o),
(665,-325,o),
(591,-445,o),
(500,-538,o),
(390,-594,o),
(323,-594,q),
(293,-594,o),
(242,-576,o),
(204,-543,o),
(182,-497,o),
(182,-468,q),
(182,-449,o),
(184,-423,o),
(194,-390,o),
(218,-341,o),
(239,-299,q),
(409,37,l),
(377,8,o),
(308,-25,o),
(270,-25,q),
(222,-25,o),
(152,15,o),
(106,81,o),
(84,168,o),
(84,215,q),
(84,301,o),
(136,445,o),
(219,558,o),
(324,643,o),
(428,699,o),
(521,727,o),
(552,727,q),
(594,727,o),
(655,699,o),
(675,682,q),
(699,662,o),
(714,637,q),
(730,652,o),
(745,664,q),
(758,675,o),
(785,692,o),
(795,692,q),
(828,692,o),
(865,653,o),
(865,624,q),
(865,601,o),
(852,575,q)
);
}
);
width = 852;
}
);
unicode = 113;
},
{
glyphname = r;
layers = (
{
layerId = "DC66AB0F-19FD-4F06-8C39-5D32AA939720";
shapes = (
{
closed = 1;
nodes = (
(454,583,l),
(493,607,o),
(576,647,o),
(654,676,o),
(725,693,o),
(753,693,q),
(798,693,o),
(847,650,o),
(847,599,q),
(847,588,o),
(845,563,o),
(842,549,q),
(837,523,o),
(787,453,o),
(720,377,o),
(643,300,o),
(578,235,o),
(535,187,o),
(535,178,q),
(535,170,o),
(537,164,o),
(545,164,q),
(599,187,o),
(732,252,o),
(864,320,o),
(982,385,o),
(1023,409,q),
(1032,414,o),
(1051,421,o),
(1059,421,q),
(1077,421,o),
(1101,397,o),
(1101,377,q),
(1101,354,o),
(1062,295,o),
(1016,263,q),
(981,241,o),
(894,186,o),
(799,127,o),
(702,71,o),
(612,27,o),
(533,0,o),
(504,0,q),
(435,0,o),
(366,66,o),
(366,118,q),
(366,126,o),
(367,130,q),
(374,174,o),
(412,256,o),
(460,330,o),
(512,397,o),
(555,456,o),
(583,506,o),
(583,527,q),
(583,532,o),
(579,542,o),
(572,542,q),
(560,542,o),
(505,524,o),
(443,494,o),
(387,455,o),
(375,433,q),
(359,405,o),
(317,319,o),
(272,225,o),
(230,133,o),
(215,100,q),
(203,71,o),
(164,25,o),
(118,-7,o),
(70,-25,o),
(50,-25,q),
(27,-25,o),
(0,-1,o),
(0,26,q),
(0,37,o),
(7,70,o),
(18,90,q),
(36,124,o),
(73,204,o),
(121,307,o),
(184,440,o),
(227,527,q),
(213,539,o),
(194,574,o),
(194,600,q),
(194,624,o),
(214,659,o),
(248,681,o),
(293,692,o),
(318,692,q),
(344,692,o),
(396,683,o),
(437,665,o),
(463,639,o),
(463,622,q),
(463,619,o),
(459,609,o),
(454,597,o),
(450,587,o),
(450,584,q),
(450,582,o),
(451,582,q),
(452,582,l)
);
}
);
width = 843;
}
);
unicode = 114;
},
{
glyphname = s;
layers = (
{
layerId = "DC66AB0F-19FD-4F06-8C39-5D32AA939720";
shapes = (
{
closed = 1;
nodes = (
(453,531,o),
(549,449,o),
(616,358,o),
(651,264,o),
(651,219,q),
(651,162,o),
(586,71,o),
(481,8,o),
(346,-25,o),
(277,-25,q),
(225,-25,o),
(127,-2,o),
(46,46,o),
(-12,121,o),
(-24,173,q),
(-26,181,o),
(-26,186,q),
(-26,213,o),
(12,252,o),
(35,252,q),
(46,252,o),
(73,244,o),
(80,230,q),
(93,206,o),
(140,168,o),
(198,141,o),
(263,126,o),
(294,126,q),
(326,126,o),
(385,138,o),
(430,164,o),
(456,204,o),
(456,233,q),
(456,284,o),
(410,370,o),
(337,443,o),
(244,506,o),
(198,535,q),
(193,538,o),
(173,567,o),
(173,582,q),
(173,594,o),
(179,601,q),
(195,622,o),
(237,666,o),
(285,703,o),
(341,726,o),
(371,726,q),
(393,726,o),
(431,714,o),
(457,695,o),
(472,672,o),
(472,662,q),
(472,648,o),
(458,622,o),
(435,598,o),
(406,574,o),
(392,563,q)
);
}
);
width = 611;
}
);
unicode = 115;
},
{
glyphname = germandbls;
layers = (
{
layerId = "DC66AB0F-19FD-4F06-8C39-5D32AA939720";
shapes = (
{
closed = 1;
nodes = (
(896,700,o),
(954,615,o),
(954,560,q),
(954,510,o),
(911,397,o),
(837,288,o),
(739,191,o),
(685,156,q),
(725,168,o),
(788,188,o),
(850,212,o),
(915,241,o),
(997,282,o),
(1101,339,o),
(1171,378,q),
(1157,221,l),
(1011,142,o),
(765,47,o),
(563,-4,o),
(403,-20,o),
(343,-20,q),
(300,-20,o),
(246,21,o),
(246,60,q),
(246,84,o),
(267,122,o),
(302,149,o),
(345,164,o),
(367,164,q),
(420,164,o),
(517,201,o),
(602,263,o),
(672,342,o),
(722,426,o),
(749,509,o),
(749,543,q),
(749,585,o),
(718,616,o),
(695,616,q),
(684,616,o),
(661,609,o),
(639,601,o),
(618,594,o),
(609,594,q),
(588,594,o),
(560,630,o),
(560,653,q),
(560,678,o),
(582,705,o),
(617,724,o),
(661,742,o),
(682,758,q),
(765,820,o),
(892,945,o),
(978,1058,o),
(1022,1153,o),
(1022,1186,q),
(1022,1210,o),
(995,1237,o),
(967,1237,q),
(928,1237,o),
(838,1183,o),
(742,1083,o),
(645,942,o),
(600,856,q),
(140,-29,l),
(100,-107,o),
(43,-224,o),
(0,-308,o),
(-35,-364,o),
(-70,-397,o),
(-110,-410,o),
(-137,-410,q),
(-177,-410,o),
(-222,-366,o),
(-222,-302,o),
(-203,-240,o),
(-161,-156,o),
(-92,-40,o),
(-41,45,q),
(13,136,o),
(106,293,o),
(190,437,o),
(268,572,o),
(346,711,o),
(427,858,o),
(472,942,q),
(524,1039,o),
(643,1207,o),
(775,1331,o),
(920,1401,o),
(1000,1401,q),
(1061,1401,o),
(1147,1373,o),
(1201,1323,o),
(1226,1254,o),
(1226,1212,q),
(1226,1171,o),
(1194,1077,o),
(1138,981,o),
(1062,888,o),
(973,806,o),
(876,741,o),
(828,721,q)
);
}
);
width = 1044;
}
);
unicode = 223;
},
{
glyphname = t;
layers = (
{
layerId = "DC66AB0F-19FD-4F06-8C39-5D32AA939720";
shapes = (
{
closed = 1;
nodes = (
(403,556,l),
(366,484,o),
(300,347,o),
(271,289,q),
(259,265,o),
(236,202,o),
(236,178,q),
(236,164,o),
(249,148,o),
(264,148,q),
(285,148,o),
(349,173,o),
(423,214,o),
(505,267,o),
(584,324,o),
(656,381,o),
(684,405,q),
(700,416,o),
(714,416,q),
(731,416,o),
(753,386,o),
(753,340,o),
(731,292,o),
(702,269,q),
(637,210,o),
(504,104,o),
(373,23,o),
(245,-25,o),
(185,-25,q),
(145,-25,o),
(91,-4,o),
(58,33,o),
(44,82,o),
(44,110,q),
(44,160,o),
(78,268,o),
(99,311,q),
(129,373,o),
(188,495,o),
(216,551,q),
(173,551,l),
(117,551,o),
(75,587,o),
(75,610,q),
(75,620,o),
(88,649,o),
(113,674,o),
(149,692,o),
(172,692,q),
(280,692,l),
(491,1111,l),
(511,1149,o),
(570,1182,o),
(602,1182,q),
(632,1182,o),
(682,1150,o),
(682,1113,q),
(682,1094,o),
(665,1055,o),
(651,1029,q),
(642,1012,o),
(616,965,o),
(587,912,o),
(556,854,o),
(541,827,q),
(507,763,o),
(469,692,q),
(795,692,l),
(819,692,o),
(859,687,o),
(888,672,o),
(904,646,o),
(904,624,q),
(904,613,o),
(897,591,o),
(878,573,o),
(845,561,o),
(819,559,q)
);
}
);
width = 528;
}
);
unicode = 116;
},
{
glyphname = u;
layers = (
{
layerId = "DC66AB0F-19FD-4F06-8C39-5D32AA939720";
shapes = (
{
closed = 1;
nodes = (
(1170,239,l),
(1126,189,o),
(1009,94,o),
(885,20,o),
(765,-25,o),
(669,-25,o),
(609,29,o),
(609,94,q),
(609,140,o),
(625,201,q),
(599,162,o),
(521,82,o),
(421,16,o),
(297,-25,o),
(224,-25,q),
(191,-25,o),
(130,-11,o),
(84,23,o),
(56,80,o),
(56,123,q),
(56,124,o),
(64,183,o),
(107,310,o),
(197,512,o),
(279,656,q),
(300,694,o),
(355,727,o),
(387,727,q),
(401,727,o),
(431,720,o),
(457,705,o),
(473,682,o),
(473,667,q),
(473,657,o),
(470,648,q),
(465,631,o),
(432,576,o),
(388,505,o),
(339,423,o),
(297,335,o),
(267,244,o),
(265,201,q),
(265,183,o),
(285,153,o),
(308,153,q),
(373,153,o),
(491,225,o),
(591,332,o),
(672,455,o),
(699,506,q),
(718,540,o),
(747,618,o),
(781,684,o),
(825,728,o),
(858,728,q),
(894,728,o),
(936,682,o),
(936,650,q),
(936,632,o),
(909,569,o),
(868,488,o),
(820,396,o),
(779,301,o),
(752,210,o),
(752,171,q),
(752,135,o),
(796,135,q),
(827,135,o),
(919,171,o),
(1020,236,o),
(1121,324,o),
(1160,375,q)
);
}
);
width = 928;
}
);
unicode = 117;
},
{
glyphname = v;
layers = (
{
layerId = "DC66AB0F-19FD-4F06-8C39-5D32AA939720";
shapes = (
{
closed = 1;
nodes = (
(895,167,o),
(745,102,o),
(654,102,q),
(624,102,o),
(568,124,o),
(523,152,q),
(457,65,o),
(324,-25,o),
(252,-25,q),
(217,-25,o),
(153,0,o),
(105,50,o),
(76,124,o),
(76,173,q),
(76,233,o),
(103,372,o),
(141,504,o),
(178,616,o),
(189,649,q),
(209,691,o),
(270,728,o),
(299,728,q),
(312,728,o),
(339,719,o),
(361,703,o),
(375,681,o),
(375,668,q),
(375,657,o),
(371,649,q),
(356,601,o),
(315,488,o),
(279,374,o),
(254,265,o),
(254,220,q),
(254,213,o),
(258,190,o),
(264,169,o),
(274,154,o),
(280,154,q),
(306,154,o),
(370,212,o),
(408,263,q),
(441,298,o),
(500,393,o),
(553,493,o),
(602,590,o),
(649,667,o),
(695,714,o),
(719,714,q),
(760,714,o),
(794,661,o),
(794,624,q),
(794,582,o),
(767,512,o),
(721,437,o),
(658,346,o),
(621,283,q),
(637,262,o),
(671,262,q),
(707,262,o),
(784,280,o),
(860,313,o),
(935,360,o),
(970,388,q),
(985,397,o),
(998,397,q),
(1016,397,o),
(1039,365,o),
(1039,340,q),
(1039,313,o),
(1007,250,o),
(970,224,q)
);
}
);
width = 800;
}
);
unicode = 118;
},
{
glyphname = w;
layers = (
{
layerId = "DC66AB0F-19FD-4F06-8C39-5D32AA939720";
shapes = (
{
closed = 1;
nodes = (
(183,558,o),
(223,643,o),
(256,690,o),
(289,706,o),
(314,706,q),
(352,706,o),
(407,657,o),
(407,619,q),
(407,610,o),
(402,592,o),
(398,583,q),
(228,181,l),
(224,173,o),
(221,154,o),
(221,148,q),
(221,135,o),
(232,122,o),
(238,122,q),
(249,122,o),
(272,132,o),
(303,157,o),
(348,200,o),
(381,233,q),
(412,266,o),
(478,359,o),
(541,462,o),
(595,567,o),
(615,612,q),
(630,642,o),
(654,679,o),
(677,699,o),
(701,706,o),
(717,706,q),
(778,706,o),
(778,653,q),
(776,645,o),
(775,625,o),
(770,612,q),
(614,151,l),
(614,126,o),
(639,126,q),
(657,128,o),
(716,161,o),
(776,212,o),
(828,279,o),
(840,315,q),
(862,381,o),
(907,515,o),
(958,624,o),
(1017,695,o),
(1053,698,q),
(1085,698,o),
(1126,657,o),
(1126,624,q),
(1126,585,o),
(1105,495,o),
(1071,405,o),
(1024,321,o),
(999,287,q),
(1006,266,o),
(1028,266,q),
(1067,266,o),
(1136,278,o),
(1201,301,o),
(1266,333,o),
(1301,354,q),
(1317,365,o),
(1333,365,q),
(1353,365,o),
(1385,335,o),
(1385,311,q),
(1385,289,o),
(1346,243,o),
(1282,199,o),
(1201,161,o),
(1118,132,o),
(1041,115,o),
(1012,115,q),
(956,115,o),
(897,147,q),
(827,63,o),
(676,-25,o),
(598,-25,q),
(526,-25,o),
(463,50,o),
(463,122,q),
(388,46,o),
(257,-25,o),
(188,-25,q),
(144,-25,o),
(85,-4,o),
(49,34,o),
(34,85,o),
(34,115,q),
(34,164,o),
(62,273,o),
(101,375,o),
(140,462,o),
(152,489,q)
);
}
);
width = 1139;
}
);
unicode = 119;
},
{
glyphname = x;
layers = (
{
layerId = "DC66AB0F-19FD-4F06-8C39-5D32AA939720";
shapes = (
{
closed = 1;
nodes = (
(350,716,o),
(386,708,o),
(410,681,o),
(422,636,o),
(422,600,q),
(422,485,l),
(644,671,l),
(695,713,o),
(746,713,q),
(776,713,o),
(816,685,o),
(816,662,q),
(816,648,o),
(797,616,o),
(778,600,q),
(446,320,l),
(458,184,l),
(458,135,o),
(493,135,q),
(531,135,o),
(645,192,o),
(720,246,q),
(835,330,l),
(853,341,o),
(872,341,q),
(893,341,o),
(920,312,o),
(920,289,q),
(920,264,o),
(883,198,o),
(835,165,q),
(760,112,o),
(647,40,o),
(554,-5,o),
(475,-25,o),
(435,-25,q),
(345,-25,o),
(256,77,o),
(256,191,q),
(38,3,l),
(19,-12,o),
(-20,-25,o),
(-37,-25,q),
(-69,-25,o),
(-113,9,o),
(-113,34,q),
(-113,62,o),
(-77,89,q),
(231,357,l),
(231,600,l),
(231,645,o),
(259,693,o),
(293,714,o),
(323,716,o),
(325,716,q)
);
}
);
width = 723;
}
);
unicode = 120;
},
{
glyphname = y;
layers = (
{
layerId = "DC66AB0F-19FD-4F06-8C39-5D32AA939720";
shapes = (
{
closed = 1;
nodes = (
(709,634,l),
(737,656,o),
(776,679,o),
(804,690,o),
(827,692,o),
(839,692,q),
(860,692,o),
(878,661,o),
(878,644,q),
(878,630,o),
(873,618,q),
(649,151,l),
(697,187,o),
(822,256,o),
(937,311,o),
(1020,345,o),
(1026,345,q),
(1051,345,o),
(1089,307,o),
(1089,278,q),
(1089,252,o),
(1050,194,o),
(1001,167,q),
(931,128,o),
(827,73,o),
(747,29,o),
(685,-7,o),
(630,-45,o),
(577,-88,o),
(546,-117,q),
(523,-177,o),
(478,-287,o),
(441,-371,o),
(417,-423,o),
(416,-425,q),
(335,-593,o),
(238,-593,q),
(198,-593,o),
(148,-540,o),
(148,-495,q),
(148,-453,o),
(169,-370,o),
(222,-270,o),
(309,-147,o),
(375,-64,q),
(575,341,l),
(425,163,o),
(181,-25,o),
(75,-25,q),
(41,-25,o),
(-7,6,o),
(-7,42,q),
(-7,92,o),
(17,155,q),
(31,189,o),
(59,246,o),
(89,303,o),
(122,369,o),
(161,452,o),
(208,561,o),
(237,634,q),
(257,673,o),
(321,708,o),
(351,708,q),
(382,708,o),
(425,679,o),
(425,655,q),
(425,643,o),
(421,634,q),
(238,253,l),
(224,224,o),
(224,207,q),
(224,192,o),
(236,192,q),
(247,192,o),
(281,214,o),
(296,228,q)
);
}
);
width = 896;
}
);
unicode = 121;
},
{
glyphname = z;
layers = (
{
layerId = "DC66AB0F-19FD-4F06-8C39-5D32AA939720";
shapes = (
{
closed = 1;
nodes = (
(432,-76,o),
(432,-61,o),
(431,-53,q),
(361,-89,o),
(252,-153,o),
(177,-207,o),
(138,-250,o),
(138,-263,q),
(138,-289,o),
(177,-324,o),
(212,-324,q),
(239,-324,o),
(313,-279,o),
(381,-209,o),
(430,-124,o),
(432,-84,q)
);
},
{
closed = 1;
nodes = (
(1046,483,o),
(1063,486,o),
(1071,487,q),
(1094,487,o),
(1130,451,o),
(1130,430,q),
(1130,421,o),
(1123,407,o),
(1116,399,q),
(1084,363,o),
(995,289,o),
(874,205,o),
(716,107,o),
(614,47,q),
(614,41,o),
(615,28,o),
(615,21,q),
(615,-30,o),
(576,-138,o),
(509,-242,o),
(420,-335,o),
(321,-405,o),
(217,-446,o),
(121,-446,o),
(42,-423,o),
(-14,-380,o),
(-44,-321,o),
(-44,-285,q),
(-44,-252,o),
(4,-176,o),
(108,-89,o),
(272,12,o),
(387,71,q),
(370,78,o),
(333,80,o),
(316,80,q),
(293,80,o),
(233,78,o),
(202,78,q),
(178,78,o),
(134,80,o),
(99,86,o),
(79,99,o),
(79,110,q),
(79,131,o),
(101,176,o),
(160,239,o),
(261,328,o),
(340,392,q),
(553,549,l),
(546,549,o),
(342,543,o),
(159,543,q),
(133,543,o),
(109,571,o),
(109,584,q),
(110,599,o),
(121,635,o),
(141,666,o),
(170,688,o),
(189,688,q),
(209,688,o),
(299,689,o),
(413,689,o),
(537,691,o),
(645,691,o),
(723,692,o),
(735,692,q),
(753,692,o),
(775,680,o),
(787,662,o),
(791,641,o),
(791,632,q),
(791,614,o),
(776,578,o),
(743,538,o),
(689,493,o),
(651,465,q),
(644,460,o),
(609,434,o),
(561,399,o),
(504,357,o),
(476,336,q),
(409,287,o),
(329,228,q),
(350,228,l),
(414,228,o),
(526,192,o),
(564,161,q),
(649,208,o),
(790,292,o),
(905,369,o),
(999,441,o),
(1038,476,q)
);
}
);
width = 847;
}
);
unicode = 122;
},
{
glyphname = fi;
layers = (
{
layerId = "DC66AB0F-19FD-4F06-8C39-5D32AA939720";
shapes = (
{
closed = 1;
nodes = (
(1098,918,o),
(1081,854,o),
(1045,808,o),
(990,781,o),
(952,781,q),
(902,781,o),
(838,794,o),
(801,818,o),
(786,851,o),
(786,870,q),
(786,898,o),
(808,935,o),
(833,962,o),
(855,982,o),
(855,992,q),
(855,1000,o),
(841,1015,o),
(826,1015,q),
(793,1015,o),
(703,961,o),
(611,872,o),
(527,755,o),
(501,692,q),
(811,692,l),
(849,692,o),
(904,643,o),
(904,605,q),
(903,596,o),
(900,578,o),
(895,569,q),
(881,543,o),
(863,507,o),
(848,476,o),
(834,446,o),
(824,425,q),
(812,400,o),
(782,341,o),
(755,279,o),
(736,219,o),
(736,194,q),
(736,167,o),
(763,150,o),
(788,150,q),
(816,150,o),
(877,174,o),
(939,212,o),
(999,261,o),
(1052,311,o),
(1097,357,o),
(1112,375,q),
(1132,394,o),
(1152,394,q),
(1170,394,o),
(1193,362,o),
(1193,337,q),
(1193,314,o),
(1170,262,o),
(1144,239,q),
(1093,187,o),
(987,92,o),
(876,19,o),
(764,-25,o),
(707,-25,q),
(626,-25,o),
(533,58,o),
(533,146,q),
(533,177,o),
(546,245,o),
(568,316,o),
(596,385,o),
(611,417,q),
(645,491,o),
(690,565,q),
(641,564,o),
(593,564,q),
(552,563,o),
(464,563,o),
(432,563,q),
(406,512,o),
(341,377,o),
(270,229,o),
(199,78,o),
(135,-57,o),
(83,-166,o),
(67,-198,q),
(56,-221,o),
(24,-260,o),
(-14,-288,o),
(-54,-303,o),
(-71,-303,q),
(-95,-303,o),
(-133,-279,o),
(-133,-253,q),
(-133,-240,o),
(-121,-205,o),
(-110,-182,q),
(243,566,l),
(190,566,l),
(135,566,o),
(95,600,o),
(95,623,q),
(95,647,o),
(145,692,o),
(193,692,q),
(311,692,l),
(384,835,o),
(532,1021,o),
(676,1129,o),
(812,1171,o),
(874,1171,q),
(928,1171,o),
(1011,1131,o),
(1068,1068,o),
(1098,991,o),
(1098,954,q)
);
}
);
width = 986;
}
);
unicode = 64257;
},
{
glyphname = fl;
layers = (
{
layerId = "DC66AB0F-19FD-4F06-8C39-5D32AA939720";
shapes = (
{
closed = 1;
nodes = (
(783,692,l),
(930,1006,l),
(865,1038,o),
(810,1038,q),
(756,1038,o),
(672,980,o),
(600,884,o),
(535,759,o),
(501,692,q),
(734,692,l)
);
},
{
closed = 1;
nodes = (
(768,266,o),
(747,205,o),
(747,181,q),
(747,166,o),
(759,148,o),
(776,148,q),
(797,148,o),
(860,173,o),
(933,214,o),
(1012,267,o),
(1090,324,o),
(1161,381,o),
(1189,405,q),
(1197,412,o),
(1219,418,o),
(1227,418,q),
(1247,418,o),
(1273,390,o),
(1273,367,q),
(1273,346,o),
(1245,294,o),
(1210,269,q),
(1146,210,o),
(1016,104,o),
(887,23,o),
(760,-25,o),
(700,-25,q),
(659,-25,o),
(604,-3,o),
(571,35,o),
(557,87,o),
(557,116,q),
(557,165,o),
(586,268,o),
(606,311,q),
(635,377,o),
(696,507,o),
(723,565,q),
(645,563,o),
(505,563,o),
(432,563,q),
(406,512,o),
(341,377,o),
(270,229,o),
(199,78,o),
(135,-57,o),
(83,-166,o),
(67,-198,q),
(56,-221,o),
(24,-260,o),
(-14,-288,o),
(-54,-303,o),
(-71,-303,q),
(-95,-303,o),
(-133,-279,o),
(-133,-253,q),
(-133,-240,o),
(-121,-205,o),
(-110,-182,q),
(243,566,l),
(190,566,l),
(135,566,o),
(95,600,o),
(95,623,q),
(95,647,o),
(145,692,o),
(193,692,q),
(311,692,l),
(382,828,o),
(514,1014,o),
(640,1130,o),
(759,1181,o),
(817,1181,q),
(862,1181,o),
(947,1155,o),
(990,1132,q),
(1046,1252,l),
(1064,1291,o),
(1125,1323,o),
(1187,1323,o),
(1238,1289,o),
(1238,1251,q),
(1238,1232,o),
(1221,1193,o),
(1208,1170,q),
(1183,1123,o),
(1114,987,o),
(1035,827,o),
(952,654,o),
(873,490,o),
(804,343,o),
(779,289,q)
);
}
);
width = 1034;
}
);
unicode = 64258;
},
{
glyphname = ordfeminine;
layers = (
{
layerId = "DC66AB0F-19FD-4F06-8C39-5D32AA939720";
shapes = (
{
closed = 1;
nodes = (
(506,1172,o),
(431,1131,o),
(374,1065,o),
(340,983,o),
(340,941,q),
(340,924,o),
(344,888,o),
(359,857,o),
(387,837,o),
(411,837,q),
(430,837,o),
(480,870,o),
(533,921,o),
(585,984,o),
(626,1043,o),
(651,1091,o),
(651,1102,q),
(651,1118,o),
(629,1144,o),
(597,1162,o),
(560,1172,o),
(546,1172,q)
);
},
{
closed = 1;
nodes = (
(954,793,o),
(891,748,o),
(820,710,o),
(748,686,o),
(717,686,q),
(678,686,o),
(627,734,o),
(627,793,q),
(627,814,o),
(633,877,o),
(641,900,q),
(615,864,o),
(548,788,o),
(471,727,o),
(386,687,o),
(343,687,q),
(321,687,o),
(263,705,o),
(210,746,o),
(174,810,o),
(174,857,q),
(174,892,o),
(195,989,o),
(239,1093,o),
(306,1195,o),
(397,1276,o),
(515,1326,o),
(587,1326,q),
(624,1326,o),
(680,1307,o),
(700,1296,q),
(723,1283,o),
(739,1266,q),
(754,1274,o),
(769,1281,q),
(782,1286,o),
(809,1296,o),
(820,1296,q),
(852,1296,o),
(893,1260,o),
(893,1239,q),
(893,1233,o),
(892,1230,q),
(884,1206,o),
(852,1119,o),
(817,1022,o),
(784,929,o),
(774,901,q),
(765,872,o),
(765,854,q),
(765,822,o),
(792,822,q),
(812,822,o),
(878,858,o),
(926,896,q),
(933,902,o),
(947,907,o),
(952,907,q),
(969,907,o),
(992,874,o),
(992,854,q),
(992,830,o),
(976,814,q)
);
}
);
width = 870;
}
);
unicode = 170;
},
{
glyphname = ordmasculine;
layers = (
{
layerId = "DC66AB0F-19FD-4F06-8C39-5D32AA939720";
shapes = (
{
closed = 1;
nodes = (
(550,1174,o),
(476,1134,o),
(420,1070,o),
(386,988,o),
(386,945,q),
(386,929,o),
(391,891,o),
(407,858,o),
(437,836,o),
(463,836,q),
(502,836,o),
(576,877,o),
(632,944,o),
(666,1028,o),
(666,1071,q),
(666,1088,o),
(662,1125,o),
(646,1155,o),
(615,1174,o),
(589,1174,q)
);
},
{
closed = 1;
nodes = (
(843,1057,o),
(773,889,o),
(651,763,o),
(485,688,o),
(389,688,q),
(366,688,o),
(303,707,o),
(247,750,o),
(208,819,o),
(208,869,q),
(208,903,o),
(230,997,o),
(274,1098,o),
(343,1197,o),
(438,1275,o),
(558,1323,o),
(633,1323,q),
(665,1323,o),
(739,1306,o),
(802,1266,o),
(843,1199,o),
(843,1150,q)
);
}
);
width = 848;
}
);
unicode = 186;
},
{
glyphname = zero;
layers = (
{
layerId = "DC66AB0F-19FD-4F06-8C39-5D32AA939720";
shapes = (
{
closed = 1;
nodes = (
(769,672,o),
(717,734,o),
(676,734,q),
(611,734,o),
(490,661,o),
(396,540,o),
(339,384,o),
(339,302,q),
(339,270,o),
(349,208,o),
(374,158,o),
(417,128,o),
(451,128,q),
(503,128,o),
(591,175,o),
(662,253,o),
(715,353,o),
(751,458,o),
(769,560,o),
(769,601,q)
);
},
{
closed = 1;
nodes = (
(957,536,o),
(922,394,o),
(856,254,o),
(762,128,o),
(643,32,o),
(502,-25,o),
(423,-25,q),
(361,-25,o),
(262,21,o),
(192,104,o),
(154,222,o),
(154,294,q),
(154,357,o),
(190,497,o),
(257,632,o),
(352,756,o),
(470,849,o),
(609,905,o),
(686,905,q),
(746,905,o),
(846,860,o),
(918,780,o),
(957,668,o),
(957,601,q)
);
}
);
width = 896;
}
);
unicode = 48;
},
{
glyphname = one;
layers = (
{
layerId = "DC66AB0F-19FD-4F06-8C39-5D32AA939720";
shapes = (
{
closed = 1;
nodes = (
(286,142,o),
(332,225,o),
(373,303,o),
(412,378,o),
(433,416,q),
(570,665,l),
(557,660,o),
(496,636,o),
(427,609,o),
(366,585,o),
(354,581,q),
(351,579,o),
(342,578,o),
(340,578,q),
(324,578,o),
(299,605,o),
(299,627,q),
(299,646,o),
(323,692,o),
(354,717,q),
(421,762,o),
(488,798,q),
(516,813,o),
(578,842,o),
(639,865,o),
(698,879,o),
(723,879,q),
(752,879,o),
(795,848,o),
(795,810,q),
(795,798,o),
(791,767,o),
(783,750,q),
(768,719,o),
(725,622,o),
(675,507,o),
(620,379,o),
(565,255,o),
(513,142,o),
(492,99,q),
(477,69,o),
(436,23,o),
(391,-8,o),
(343,-24,o),
(322,-24,q),
(290,-24,o),
(245,9,o),
(245,42,q),
(245,53,o),
(249,83,o),
(258,97,q)
);
}
);
width = 736;
}
);
unicode = 49;
},
{
glyphname = two;
layers = (
{
layerId = "DC66AB0F-19FD-4F06-8C39-5D32AA939720";
shapes = (
{
closed = 1;
nodes = (
(863,168,o),
(869,169,o),
(872,169,q),
(893,169,o),
(921,137,o),
(921,114,q),
(921,81,o),
(874,29,o),
(802,-6,o),
(716,-24,o),
(677,-24,q),
(645,-24,o),
(583,-17,o),
(509,5,o),
(417,47,o),
(354,82,q),
(295,45,o),
(228,3,o),
(192,-17,o),
(178,-21,o),
(173,-21,q),
(161,-21,o),
(136,-6,o),
(114,18,o),
(100,49,o),
(100,66,q),
(100,80,o),
(113,108,o),
(129,119,q),
(195,155,o),
(331,236,o),
(457,325,o),
(567,419,o),
(649,514,o),
(696,609,o),
(696,655,q),
(696,700,o),
(652,737,o),
(616,737,q),
(587,737,o),
(520,717,o),
(452,686,o),
(385,651,o),
(328,620,o),
(284,600,o),
(272,600,q),
(256,600,o),
(228,614,o),
(208,637,o),
(197,665,o),
(197,680,q),
(197,705,o),
(243,758,o),
(319,808,o),
(417,852,o),
(520,886,o),
(621,905,o),
(663,905,q),
(712,905,o),
(799,880,o),
(863,825,o),
(900,735,o),
(900,670,q),
(900,615,o),
(865,505,o),
(773,388,o),
(616,264,o),
(494,195,q),
(537,176,o),
(635,150,o),
(674,150,q),
(703,150,o),
(749,152,o),
(791,157,o),
(833,163,o),
(859,167,q)
);
}
);
width = 896;
}
);
unicode = 50;
},
{
glyphname = three;
layers = (
{
layerId = "DC66AB0F-19FD-4F06-8C39-5D32AA939720";
shapes = (
{
closed = 1;
nodes = (
(552,262,o),
(543,307,o),
(513,340,o),
(457,360,o),
(410,360,q),
(394,360,o),
(359,355,o),
(339,355,q),
(311,355,o),
(285,389,o),
(285,409,q),
(285,435,o),
(336,476,o),
(384,484,q),
(453,495,o),
(553,545,o),
(618,602,o),
(649,655,o),
(649,670,q),
(649,699,o),
(608,736,o),
(579,736,q),
(529,736,o),
(451,720,o),
(385,702,o),
(329,686,o),
(302,686,q),
(273,686,o),
(229,723,o),
(229,750,q),
(229,772,o),
(248,797,q),
(276,818,o),
(355,856,o),
(445,885,o),
(542,903,o),
(636,903,o),
(720,882,o),
(783,834,o),
(820,757,o),
(820,700,q),
(820,622,o),
(690,483,o),
(568,441,q),
(619,429,o),
(685,387,o),
(724,336,o),
(739,279,o),
(739,253,q),
(739,174,o),
(691,45,o),
(609,-58,o),
(498,-138,o),
(370,-198,o),
(232,-240,o),
(165,-254,q),
(149,-257,o),
(125,-261,o),
(114,-261,q),
(76,-261,o),
(39,-229,o),
(39,-207,q),
(39,-184,o),
(79,-137,o),
(118,-126,q),
(160,-117,o),
(257,-84,o),
(353,-35,o),
(441,27,o),
(509,102,o),
(551,189,o),
(552,238,q)
);
}
);
width = 800;
}
);
unicode = 51;
},
{
glyphname = four;
layers = (
{
layerId = "DC66AB0F-19FD-4F06-8C39-5D32AA939720";
shapes = (
{
closed = 1;
nodes = (
(962,677,o),
(916,580,o),
(871,484,o),
(828,392,o),
(809,351,q),
(763,254,o),
(720,163,q),
(899,163,l),
(919,163,o),
(941,132,o),
(941,111,q),
(941,92,o),
(928,53,o),
(902,21,o),
(861,0,o),
(834,0,q),
(651,0,l),
(497,-341,l),
(479,-376,o),
(428,-406,o),
(402,-406,q),
(369,-406,o),
(322,-366,o),
(322,-335,q),
(322,-328,o),
(326,-314,o),
(329,-306,q),
(461,0,l),
(194,0,l),
(179,0,o),
(153,3,o),
(132,13,o),
(120,30,o),
(120,45,q),
(120,62,o),
(135,108,o),
(154,143,q),
(175,182,o),
(230,291,o),
(290,414,o),
(351,544,o),
(407,665,o),
(451,770,o),
(465,806,q),
(480,848,o),
(542,883,o),
(574,883,q),
(608,883,o),
(661,850,o),
(662,825,q),
(661,820,o),
(660,811,o),
(658,806,q),
(624,723,o),
(548,554,o),
(471,390,o),
(395,236,o),
(362,167,q),
(388,168,o),
(431,168,o),
(448,168,q),
(496,168,o),
(524,168,q),
(552,167,l),
(564,196,l),
(576,224,o),
(621,319,o),
(678,443,o),
(741,576,o),
(804,710,o),
(832,768,q),
(858,828,o),
(923,883,o),
(949,883,q),
(972,883,o),
(1004,845,o),
(1004,810,q),
(1004,791,o),
(994,747,o),
(983,723,q)
);
}
);
width = 976;
}
);
unicode = 52;
},
{
glyphname = five;
layers = (
{
layerId = "DC66AB0F-19FD-4F06-8C39-5D32AA939720";
shapes = (
{
closed = 1;
nodes = (
(846,190,o),
(798,59,o),
(716,-48,o),
(605,-132,o),
(477,-196,o),
(339,-240,o),
(272,-254,q),
(256,-257,o),
(232,-261,o),
(221,-261,q),
(183,-261,o),
(146,-229,o),
(146,-207,q),
(146,-184,o),
(186,-137,o),
(225,-126,q),
(266,-117,o),
(361,-82,o),
(454,-33,o),
(541,32,o),
(607,109,o),
(648,198,o),
(649,248,q),
(649,279,o),
(626,324,o),
(586,352,o),
(532,366,o),
(500,366,q),
(465,366,o),
(389,351,o),
(351,338,q),
(333,332,o),
(306,315,o),
(283,300,o),
(264,290,o),
(254,290,q),
(222,290,o),
(185,336,o),
(185,368,q),
(185,391,o),
(195,412,q),
(364,789,l),
(375,813,o),
(397,848,o),
(426,869,o),
(462,879,o),
(486,879,q),
(957,879,l),
(985,879,o),
(1016,834,o),
(1016,805,q),
(1016,787,o),
(1003,751,o),
(976,721,o),
(933,703,o),
(904,703,q),
(519,703,l),
(494,653,o),
(470,607,q),
(450,568,o),
(408,485,o),
(394,458,q),
(448,492,o),
(552,523,o),
(599,523,q),
(653,523,o),
(744,486,o),
(809,418,o),
(846,325,o),
(846,269,q)
);
}
);
width = 884;
}
);
unicode = 53;
},
{
glyphname = six;
layers = (
{
layerId = "DC66AB0F-19FD-4F06-8C39-5D32AA939720";
shapes = (
{
closed = 1;
nodes = (
(356,222,o),
(432,148,o),
(495,148,q),
(548,148,o),
(652,212,o),
(735,310,o),
(786,427,o),
(786,480,q),
(786,527,o),
(727,568,o),
(679,568,q),
(650,568,o),
(582,554,o),
(510,528,o),
(438,492,o),
(404,470,q),
(356,365,o),
(356,280,q)
);
},
{
closed = 1;
nodes = (
(171,347,o),
(203,480,o),
(272,638,o),
(378,812,o),
(526,988,o),
(717,1159,o),
(836,1234,q),
(850,1244,o),
(869,1244,q),
(885,1244,o),
(916,1230,o),
(941,1206,o),
(956,1175,o),
(956,1159,q),
(956,1142,o),
(939,1109,o),
(918,1095,q),
(824,1032,o),
(685,907,o),
(585,793,o),
(520,696,o),
(500,663,q),
(557,689,o),
(682,718,o),
(742,718,q),
(789,718,o),
(874,693,o),
(937,638,o),
(974,550,o),
(974,488,q),
(974,420,o),
(936,290,o),
(869,177,o),
(776,82,o),
(665,14,o),
(540,-24,o),
(474,-24,q),
(406,-24,o),
(294,25,o),
(214,112,o),
(171,230,o),
(171,300,q)
);
}
);
width = 980;
}
);
unicode = 54;
},
{
glyphname = seven;
layers = (
{
layerId = "DC66AB0F-19FD-4F06-8C39-5D32AA939720";
shapes = (
{
closed = 1;
nodes = (
(822,880,l),
(912,880,o),
(991,838,o),
(991,802,q),
(991,767,o),
(927,674,o),
(870,621,q),
(855,604,o),
(791,512,o),
(709,388,o),
(614,245,o),
(523,107,o),
(441,-11,o),
(412,-48,q),
(366,-107,o),
(288,-156,o),
(259,-156,q),
(223,-156,o),
(183,-111,o),
(183,-82,q),
(183,-51,o),
(206,-25,q),
(228,5,o),
(290,93,o),
(363,196,o),
(444,309,o),
(523,423,o),
(599,530,o),
(664,620,o),
(714,688,o),
(728,706,q),
(506,705,l),
(406,705,o),
(291,713,o),
(232,733,o),
(217,767,o),
(217,792,q),
(217,821,o),
(244,856,o),
(285,875,o),
(333,881,o),
(354,881,q),
(371,881,o),
(394,879,o),
(399,879,q)
);
}
);
width = 870;
}
);
unicode = 55;
},
{
glyphname = eight;
layers = (
{
layerId = "DC66AB0F-19FD-4F06-8C39-5D32AA939720";
shapes = (
{
closed = 1;
nodes = (
(698,336,o),
(646,426,o),
(600,467,q),
(544,423,o),
(448,350,o),
(378,288,o),
(338,236,o),
(338,215,q),
(338,172,o),
(419,120,o),
(487,120,q),
(530,120,o),
(607,144,o),
(664,186,o),
(698,246,o),
(698,282,q)
);
},
{
closed = 1;
nodes = (
(906,930,o),
(846,950,o),
(814,950,q),
(765,950,o),
(671,909,o),
(598,848,o),
(553,779,o),
(553,751,q),
(553,669,o),
(651,602,q),
(711,624,o),
(819,692,o),
(902,767,o),
(951,841,o),
(951,870,q),
(951,892,o),
(934,907,q)
);
},
{
closed = 1;
nodes = (
(973,1071,o),
(1062,1027,o),
(1117,976,o),
(1141,921,o),
(1141,893,q),
(1141,851,o),
(1097,766,o),
(1029,685,o),
(945,613,o),
(863,557,o),
(793,520,o),
(774,515,q),
(876,431,o),
(876,298,q),
(876,226,o),
(813,108,o),
(704,22,o),
(554,-25,o),
(467,-25,q),
(402,-25,o),
(290,8,o),
(208,68,o),
(160,151,o),
(160,200,q),
(160,288,o),
(229,362,q),
(262,397,o),
(487,540,q),
(430,592,o),
(373,704,o),
(373,761,q),
(373,805,o),
(404,890,o),
(459,966,o),
(536,1031,o),
(629,1078,o),
(734,1105,o),
(790,1105,q),
(851,1105,o),
(909,1089,q)
);
}
);
width = 964;
}
);
unicode = 56;
},
{
glyphname = nine;
layers = (
{
layerId = "DC66AB0F-19FD-4F06-8C39-5D32AA939720";
shapes = (
{
closed = 1;
nodes = (
(889,605,o),
(890,612,o),
(890,617,q),
(890,668,o),
(822,733,o),
(764,733,q),
(726,733,o),
(648,698,o),
(575,640,o),
(510,563,o),
(462,480,o),
(434,395,o),
(434,357,q),
(434,302,o),
(486,253,o),
(529,253,q),
(558,253,o),
(628,270,o),
(703,301,o),
(780,344,o),
(816,371,q),
(879,499,o),
(889,601,q)
);
},
{
closed = 1;
nodes = (
(1062,489,o),
(962,249,o),
(774,-11,o),
(494,-276,o),
(303,-393,q),
(295,-401,o),
(277,-403,o),
(269,-403,q),
(238,-403,o),
(190,-357,o),
(190,-326,q),
(190,-309,o),
(210,-269,o),
(235,-254,q),
(335,-194,o),
(488,-74,o),
(599,34,o),
(674,126,o),
(698,158,q),
(638,132,o),
(510,103,o),
(450,103,q),
(407,103,o),
(332,128,o),
(276,181,o),
(244,264,o),
(244,323,q),
(244,399,o),
(288,544,o),
(366,674,o),
(473,782,o),
(597,861,o),
(734,905,o),
(803,905,q),
(866,905,o),
(966,863,o),
(1036,789,o),
(1074,686,o),
(1074,625,q),
(1074,614,o),
(1073,592,o),
(1072,581,q)
);
}
);
width = 1037;
}
);
unicode = 57;
},
{
glyphname = fraction;
layers = (
{
layerId = "DC66AB0F-19FD-4F06-8C39-5D32AA939720";
shapes = (
{
closed = 1;
nodes = (
(1012,1072,o),
(539,264,o),
(302,-140,q),
(288,-165,o),
(248,-185,o),
(226,-185,q),
(197,-185,o),
(149,-155,o),
(149,-131,q),
(149,-126,o),
(151,-113,o),
(154,-109,q),
(389,298,o),
(853,1103,o),
(1088,1510,q),
(1102,1533,o),
(1145,1554,o),
(1169,1554,q),
(1207,1554,o),
(1250,1518,o),
(1250,1491,q),
(1250,1481,o),
(1249,1476,q)
);
}
);
width = 835;
}
);
unicode = 8260;
},
{
glyphname = period;
layers = (
{
layerId = "DC66AB0F-19FD-4F06-8C39-5D32AA939720";
shapes = (
{
closed = 1;
nodes = (
(580,108,o),
(557,52,o),
(518,9,o),
(466,-16,o),
(437,-16,q),
(413,-16,o),
(371,3,o),
(340,35,o),
(322,78,o),
(322,102,q),
(322,132,o),
(345,187,o),
(385,229,o),
(439,254,o),
(470,254,q),
(519,254,o),
(580,188,o),
(580,139,q)
);
}
);
width = 732;
}
);
unicode = 46;
},
{
glyphname = comma;
layers = (
{
layerId = "DC66AB0F-19FD-4F06-8C39-5D32AA939720";
shapes = (
{
closed = 1;
nodes = (
(522,115,o),
(367,-111,o),
(288,-229,q),
(271,-253,o),
(233,-275,o),
(216,-275,q),
(201,-275,o),
(181,-260,o),
(181,-246,q),
(181,-236,o),
(185,-229,q),
(228,-111,o),
(309,115,o),
(352,233,q),
(360,255,o),
(393,287,o),
(434,308,o),
(481,318,o),
(504,318,q),
(546,318,o),
(609,287,o),
(609,259,q),
(609,246,o),
(602,233,q)
);
}
);
width = 737;
}
);
unicode = 44;
},
{
glyphname = colon;
layers = (
{
layerId = "DC66AB0F-19FD-4F06-8C39-5D32AA939720";
shapes = (
{
closed = 1;
nodes = (
(573,108,o),
(542,52,o),
(497,9,o),
(442,-16,o),
(412,-16,q),
(368,-16,o),
(316,40,o),
(316,82,q),
(316,115,o),
(346,177,o),
(394,225,o),
(456,254,o),
(489,254,q),
(534,254,o),
(581,205,o),
(581,164,q),
(581,158,o),
(580,145,o),
(579,139,q)
);
},
{
closed = 1;
nodes = (
(806,544,o),
(774,490,o),
(728,450,o),
(671,426,o),
(641,426,q),
(597,426,o),
(545,478,o),
(545,520,q),
(545,553,o),
(576,615,o),
(625,663,o),
(688,692,o),
(721,692,q),
(764,692,o),
(813,642,o),
(813,599,q),
(813,593,o),
(812,580,o),
(811,573,q)
);
}
);
width = 815;
}
);
unicode = 58;
},
{
glyphname = semicolon;
layers = (
{
layerId = "DC66AB0F-19FD-4F06-8C39-5D32AA939720";
shapes = (
{
closed = 1;
nodes = (
(579,233,l),
(176,-279,l),
(73,-279,l),
(329,233,l)
);
},
{
closed = 1;
nodes = (
(701,544,o),
(672,490,o),
(629,450,o),
(574,426,o),
(544,426,q),
(499,426,o),
(446,482,o),
(446,525,q),
(446,558,o),
(472,617,o),
(517,662,o),
(575,688,o),
(607,688,q),
(652,688,o),
(706,637,o),
(706,590,q),
(706,586,o),
(706,578,o),
(705,573,q)
);
}
);
width = 711;
}
);
unicode = 59;
},
{
glyphname = ellipsis;
layers = (
{
layerId = "DC66AB0F-19FD-4F06-8C39-5D32AA939720";
shapes = (
{
closed = 1;
nodes = (
(1439,108,o),
(1416,52,o),
(1377,9,o),
(1325,-16,o),
(1296,-16,q),
(1272,-16,o),
(1230,3,o),
(1199,35,o),
(1181,78,o),
(1181,102,q),
(1181,132,o),
(1204,187,o),
(1244,229,o),
(1298,254,o),
(1329,254,q),
(1378,254,o),
(1439,188,o),
(1439,139,q)
);
},
{
closed = 1;
nodes = (
(991,108,o),
(968,52,o),
(929,9,o),
(877,-16,o),
(848,-16,q),
(824,-16,o),
(782,3,o),
(751,35,o),
(733,78,o),
(733,102,q),
(733,132,o),
(756,187,o),
(796,229,o),
(850,254,o),
(881,254,q),
(930,254,o),
(991,188,o),
(991,139,q)
);
},
{
closed = 1;
nodes = (
(543,108,o),
(520,52,o),
(481,9,o),
(429,-16,o),
(400,-16,q),
(376,-16,o),
(334,3,o),
(303,35,o),
(285,78,o),
(285,102,q),
(285,132,o),
(308,187,o),
(348,229,o),
(402,254,o),
(433,254,q),
(482,254,o),
(543,188,o),
(543,139,q)
);
}
);
width = 1488;
}
);
unicode = 8230;
},
{
glyphname = exclam;
layers = (
{
layerId = "DC66AB0F-19FD-4F06-8C39-5D32AA939720";
shapes = (
{
closed = 1;
nodes = (
(635,108,o),
(605,52,o),
(561,9,o),
(505,-16,o),
(475,-16,q),
(430,-16,o),
(376,43,o),
(376,86,q),
(376,119,o),
(404,179,o),
(451,226,o),
(511,254,o),
(543,254,q),
(588,254,o),
(640,198,o),
(640,155,q),
(640,151,o),
(640,144,o),
(639,139,q)
);
},
{
closed = 1;
nodes = (
(1055,1095,o),
(965,928,o),
(879,770,o),
(789,603,o),
(734,498,q),
(719,469,o),
(663,440,o),
(639,440,q),
(619,440,o),
(594,457,o),
(594,475,q),
(594,487,o),
(599,498,q),
(629,568,o),
(681,687,o),
(728,797,o),
(772,901,o),
(819,1010,o),
(871,1130,o),
(901,1200,q),
(909,1218,o),
(938,1246,o),
(976,1265,o),
(1018,1274,o),
(1039,1274,q),
(1071,1274,o),
(1116,1250,o),
(1116,1224,q),
(1116,1213,o),
(1110,1200,q)
);
}
);
width = 959;
}
);
unicode = 33;
},
{
glyphname = exclamdown;
layers = (
{
layerId = "DC66AB0F-19FD-4F06-8C39-5D32AA939720";
shapes = (
{
closed = 1;
nodes = (
(483,1150,o),
(518,1206,o),
(566,1249,o),
(624,1274,o),
(654,1274,q),
(696,1274,o),
(745,1222,o),
(745,1183,q),
(745,1148,o),
(712,1084,o),
(660,1034,o),
(594,1004,o),
(561,1004,q),
(519,1004,o),
(472,1052,o),
(472,1090,q),
(472,1097,o),
(474,1111,o),
(476,1119,q)
);
},
{
closed = 1;
nodes = (
(-32,163,o),
(74,330,o),
(175,488,o),
(281,655,o),
(347,760,q),
(364,789,o),
(421,818,o),
(447,818,q),
(465,818,o),
(488,802,o),
(488,786,q),
(488,781,o),
(486,767,o),
(482,760,q),
(426,655,o),
(338,488,o),
(256,330,o),
(168,163,o),
(112,58,q),
(103,40,o),
(71,12,o),
(32,-7,o),
(-11,-16,o),
(-31,-16,q),
(-62,-16,o),
(-104,6,o),
(-104,29,q),
(-104,37,o),
(-100,50,o),
(-96,58,q)
);
}
);
width = 545;
}
);
unicode = 161;
},
{
glyphname = question;
layers = (
{
layerId = "DC66AB0F-19FD-4F06-8C39-5D32AA939720";
shapes = (
{
closed = 1;
nodes = (
(473,108,o),
(437,52,o),
(389,9,o),
(331,-16,o),
(302,-16,q),
(260,-16,o),
(214,33,o),
(214,71,q),
(214,105,o),
(247,171,o),
(300,223,o),
(367,254,o),
(400,254,q),
(442,254,o),
(485,208,o),
(485,173,q),
(485,155,o),
(481,139,q)
);
},
{
closed = 1;
nodes = (
(692,611,o),
(619,547,o),
(559,481,o),
(516,418,o),
(504,390,q),
(496,373,o),
(452,357,o),
(434,357,q),
(414,357,o),
(384,376,o),
(384,394,q),
(384,397,o),
(386,405,q),
(406,480,o),
(536,630,o),
(627,699,q),
(666,724,o),
(754,786,o),
(831,852,o),
(887,915,o),
(894,942,q),
(899,964,o),
(899,978,q),
(899,1009,o),
(865,1037,o),
(807,1037,o),
(728,1012,o),
(645,965,o),
(566,900,o),
(536,860,q),
(514,831,o),
(482,831,q),
(469,831,o),
(443,838,o),
(423,851,o),
(410,870,o),
(410,881,q),
(410,895,o),
(425,922,o),
(438,938,q),
(487,998,o),
(607,1091,o),
(733,1155,o),
(857,1188,o),
(911,1188,q),
(949,1188,o),
(1013,1170,o),
(1059,1134,o),
(1085,1079,o),
(1085,1041,q),
(1085,981,o),
(1046,886,o),
(961,796,o),
(827,700,o),
(733,640,q)
);
}
);
width = 903;
}
);
unicode = 63;
},
{
glyphname = questiondown;
layers = (
{
layerId = "DC66AB0F-19FD-4F06-8C39-5D32AA939720";
shapes = (
{
closed = 1;
nodes = (
(720,1055,o),
(753,1111,o),
(800,1154,o),
(856,1179,o),
(885,1179,q),
(927,1179,o),
(978,1126,o),
(978,1087,q),
(978,1053,o),
(947,989,o),
(897,939,o),
(833,909,o),
(800,909,q),
(757,909,o),
(710,958,o),
(710,996,q),
(710,1009,o),
(713,1024,q)
);
},
{
closed = 1;
nodes = (
(525,552,o),
(594,616,o),
(651,682,o),
(692,745,o),
(702,773,q),
(708,790,o),
(751,806,o),
(770,806,q),
(791,806,o),
(822,786,o),
(822,767,q),
(822,761,o),
(821,758,q),
(805,683,o),
(682,533,o),
(594,464,q),
(546,432,o),
(454,362,o),
(380,290,o),
(335,220,o),
(335,190,q),
(335,157,o),
(371,126,o),
(402,126,q),
(431,126,o),
(508,151,o),
(589,198,o),
(665,263,o),
(693,303,q),
(713,332,o),
(746,332,q),
(773,332,o),
(820,303,o),
(820,280,q),
(820,266,o),
(807,240,o),
(795,225,q),
(748,165,o),
(633,72,o),
(510,8,o),
(388,-25,o),
(334,-25,q),
(295,-25,o),
(228,-6,o),
(180,33,o),
(153,92,o),
(153,133,q),
(153,191,o),
(190,283,o),
(270,371,o),
(396,464,o),
(486,523,q)
);
}
);
width = 943;
}
);
unicode = 191;
},
{
glyphname = bullet;
layers = (
{
layerId = "DC66AB0F-19FD-4F06-8C39-5D32AA939720";
shapes = (
{
closed = 1;
nodes = (
(586,358,o),
(459,410,o),
(366,500,o),
(312,622,o),
(312,762,o),
(366,885,o),
(459,976,o),
(586,1028,o),
(660,1028,q),
(733,1028,o),
(861,976,o),
(954,885,o),
(1008,762,o),
(1008,622,o),
(954,500,o),
(861,410,o),
(733,358,o),
(660,358,q)
);
}
);
width = 1083;
}
);
unicode = 8226;
},
{
glyphname = asterisk;
layers = (
{
layerId = "DC66AB0F-19FD-4F06-8C39-5D32AA939720";
shapes = (
{
closed = 1;
nodes = (
(966,1053,l),
(681,995,l),
(761,791,l),
(611,721,l),
(570,950,l),
(337,721,l),
(265,823,l),
(523,1008,l),
(299,1077,l),
(412,1217,l),
(601,1106,l),
(699,1368,l),
(854,1368,l),
(698,1094,l),
(981,1192,l)
);
}
);
width = 696;
}
);
unicode = 42;
},
{
glyphname = numbersign;
layers = (
{
layerId = "DC66AB0F-19FD-4F06-8C39-5D32AA939720";
shapes = (
{
closed = 1;
nodes = (
(809,823,l),
(777,759,o),
(711,633,o),
(679,569,q),
(937,569,l),
(969,633,o),
(1035,759,o),
(1067,823,q)
);
},
{
closed = 1;
nodes = (
(1456,946,l),
(1469,946,o),
(1480,933,o),
(1480,922,q),
(1480,908,o),
(1465,873,o),
(1443,843,o),
(1417,823,o),
(1407,823,q),
(1189,823,l),
(1156,759,o),
(1089,633,o),
(1056,569,q),
(1260,569,l),
(1273,569,o),
(1284,555,o),
(1284,544,q),
(1284,530,o),
(1270,498,o),
(1250,470,o),
(1226,451,o),
(1216,451,q),
(995,451,l),
(966,395,o),
(905,275,o),
(845,158,o),
(787,47,o),
(760,0,q),
(752,-15,o),
(705,-31,o),
(682,-31,q),
(661,-31,o),
(636,-20,o),
(636,-8,q),
(636,-6,o),
(638,0,q),
(664,50,o),
(722,162,o),
(782,277,o),
(843,395,o),
(872,451,q),
(614,451,l),
(585,395,o),
(523,271,o),
(462,151,o),
(404,42,o),
(380,0,q),
(371,-15,o),
(328,-29,o),
(305,-29,q),
(284,-29,o),
(259,-19,o),
(259,-8,q),
(259,-6,o),
(261,0,q),
(282,44,o),
(339,154,o),
(402,273,o),
(466,395,o),
(495,451,q),
(270,451,l),
(254,451,o),
(254,471,q),
(254,482,o),
(266,516,o),
(284,547,o),
(307,569,o),
(318,569,q),
(556,569,l),
(590,633,o),
(656,759,o),
(690,823,q),
(469,823,l),
(455,823,o),
(444,838,o),
(444,849,q),
(444,863,o),
(458,897,o),
(479,926,o),
(503,946,o),
(514,946,q),
(751,946,l),
(779,999,o),
(837,1110,o),
(894,1220,o),
(948,1323,o),
(972,1368,q),
(980,1383,o),
(1026,1398,o),
(1049,1398,q),
(1070,1398,o),
(1096,1386,o),
(1096,1375,q),
(1096,1370,o),
(1095,1368,q),
(1075,1326,o),
(1022,1223,o),
(963,1112,o),
(902,999,o),
(874,946,q),
(1132,946,l),
(1159,999,o),
(1218,1114,o),
(1275,1226,o),
(1328,1328,o),
(1349,1368,q),
(1357,1383,o),
(1402,1399,o),
(1425,1399,q),
(1446,1399,o),
(1472,1387,o),
(1472,1375,q),
(1472,1371,o),
(1471,1368,q),
(1449,1325,o),
(1396,1222,o),
(1338,1112,o),
(1279,999,o),
(1251,946,q)
);
}
);
width = 1381;
}
);
unicode = 35;
},
{
glyphname = slash;
layers = (
{
layerId = "DC66AB0F-19FD-4F06-8C39-5D32AA939720";
shapes = (
{
closed = 1;
nodes = (
(1007,1072,o),
(534,264,o),
(297,-140,q),
(283,-165,o),
(243,-185,o),
(221,-185,q),
(192,-185,o),
(144,-155,o),
(144,-131,q),
(144,-126,o),
(146,-113,o),
(149,-109,q),
(384,298,o),
(848,1103,o),
(1083,1510,q),
(1097,1533,o),
(1140,1554,o),
(1164,1554,q),
(1202,1554,o),
(1245,1518,o),
(1245,1491,q),
(1245,1481,o),
(1244,1476,q)
);
}
);
width = 892;
}
);
unicode = 47;
},
{
glyphname = backslash;
layers = (
{
layerId = "DC66AB0F-19FD-4F06-8C39-5D32AA939720";
shapes = (
{
closed = 1;
nodes = (
(1007,1072,o),
(534,264,o),
(297,-140,q),
(283,-165,o),
(243,-185,o),
(221,-185,q),
(192,-185,o),
(144,-155,o),
(144,-131,q),
(144,-126,o),
(146,-113,o),
(149,-109,q),
(384,298,o),
(848,1103,o),
(1083,1510,q),
(1097,1533,o),
(1140,1554,o),
(1164,1554,q),
(1202,1554,o),
(1245,1518,o),
(1245,1491,q),
(1245,1481,o),
(1244,1476,q)
);
}
);
width = 892;
}
);
unicode = 92;
},
{
glyphname = hyphen;
layers = (
{
layerId = "DC66AB0F-19FD-4F06-8C39-5D32AA939720";
shapes = (
{
closed = 1;
nodes = (
(961,430,l),
(978,430,o),
(998,401,o),
(998,382,q),
(998,357,o),
(960,312,o),
(916,312,q),
(465,312,l),
(448,312,o),
(431,336,o),
(431,353,q),
(431,366,o),
(442,393,o),
(465,415,o),
(501,430,o),
(527,430,q)
);
}
);
width = 985;
}
);
unicode = 45;
},
{
glyphname = endash;
layers = (
{
layerId = "DC66AB0F-19FD-4F06-8C39-5D32AA939720";
shapes = (
{
closed = 1;
nodes = (
(297,699,l),
(767,699,l),
(767,555,l),
(297,555,l)
);
}
);
width = 889;
}
);
unicode = 8211;
},
{
glyphname = emdash;
layers = (
{
layerId = "DC66AB0F-19FD-4F06-8C39-5D32AA939720";
shapes = (
{
closed = 1;
nodes = (
(345,699,l),
(1285,699,l),
(1285,555,l),
(345,555,l)
);
}
);
width = 1406;
}
);
unicode = 8212;
},
{
glyphname = underscore;
layers = (
{
layerId = "DC66AB0F-19FD-4F06-8C39-5D32AA939720";
shapes = (
{
closed = 1;
nodes = (
(34,-143,l),
(11,-143,o),
(-9,-127,o),
(-9,-113,q),
(-9,-100,o),
(8,-71,o),
(38,-45,o),
(77,-28,o),
(98,-28,q),
(998,-28,l),
(1015,-28,o),
(1030,-45,o),
(1030,-71,o),
(1016,-101,o),
(990,-126,o),
(955,-143,o),
(934,-143,q)
);
}
);
width = 1024;
}
);
unicode = 95;
},
{
glyphname = parenleft;
layers = (
{
layerId = "DC66AB0F-19FD-4F06-8C39-5D32AA939720";
shapes = (
{
closed = 1;
nodes = (
(963,1577,o),
(1025,1609,o),
(1051,1609,q),
(1069,1609,o),
(1098,1597,o),
(1119,1580,o),
(1131,1559,o),
(1131,1541,o),
(1125,1535,q),
(996,1386,o),
(792,1072,o),
(650,743,o),
(574,397,o),
(574,216,q),
(574,160,o),
(577,76,o),
(584,2,o),
(599,-71,o),
(611,-115,q),
(612,-119,o),
(612,-127,q),
(612,-142,o),
(598,-167,o),
(575,-186,o),
(545,-196,o),
(529,-196,q),
(502,-196,o),
(449,-160,o),
(439,-115,q),
(430,-76,o),
(415,16,o),
(404,113,o),
(398,212,o),
(398,257,q),
(398,418,o),
(463,734,o),
(594,1049,o),
(794,1369,o),
(929,1535,q)
);
}
);
width = 914;
}
);
unicode = 40;
},
{
glyphname = parenright;
layers = (
{
layerId = "DC66AB0F-19FD-4F06-8C39-5D32AA939720";
shapes = (
{
closed = 1;
nodes = (
(310,-172,o),
(231,-217,o),
(203,-217,q),
(174,-217,o),
(144,-183,o),
(144,-161,q),
(144,-149,o),
(153,-125,o),
(164,-115,q),
(291,31,o),
(495,344,o),
(637,674,o),
(714,1018,o),
(714,1196,q),
(714,1364,o),
(678,1535,q),
(675,1545,o),
(675,1554,q),
(675,1587,o),
(723,1628,o),
(754,1628,q),
(783,1628,o),
(839,1585,o),
(850,1535,q),
(890,1339,o),
(890,1156,q),
(890,991,o),
(824,678,o),
(692,367,o),
(493,51,o),
(360,-115,q)
);
}
);
width = 680;
}
);
unicode = 41;
},
{
glyphname = braceleft;
layers = (
{
layerId = "DC66AB0F-19FD-4F06-8C39-5D32AA939720";
shapes = (
{
closed = 1;
nodes = (
(1405,1509,l),
(1419,1509,o),
(1434,1487,o),
(1434,1470,q),
(1434,1454,o),
(1420,1416,o),
(1393,1383,o),
(1351,1361,o),
(1323,1361,q),
(1254,1361,o),
(1168,1348,o),
(1109,1311,o),
(1065,1245,o),
(1037,1193,q),
(890,916,l),
(851,845,o),
(795,760,o),
(742,712,o),
(682,690,o),
(638,684,q),
(662,661,o),
(681,610,o),
(681,583,q),
(681,548,o),
(654,476,o),
(634,438,q),
(418,29,l),
(407,6,o),
(408,-3,q),
(408,-32,o),
(488,-57,o),
(566,-57,q),
(587,-57,o),
(607,-81,o),
(607,-115,o),
(590,-152,o),
(559,-184,o),
(513,-205,o),
(485,-205,q),
(361,-205,o),
(235,-132,o),
(235,-59,q),
(235,-48,o),
(238,-27,o),
(240,-16,q),
(243,-2,o),
(250,22,o),
(264,59,o),
(291,114,o),
(337,204,o),
(406,336,o),
(456,430,q),
(474,465,o),
(502,539,o),
(502,567,q),
(502,590,o),
(476,618,o),
(444,618,q),
(422,618,o),
(401,643,o),
(401,661,q),
(401,676,o),
(416,711,o),
(445,739,o),
(489,758,o),
(519,758,q),
(552,758,o),
(606,777,o),
(656,817,o),
(703,880,o),
(727,924,q),
(884,1226,l),
(931,1314,o),
(1012,1426,o),
(1108,1490,o),
(1235,1513,o),
(1328,1513,q)
);
}
);
width = 810;
}
);
unicode = 123;
},
{
glyphname = braceright;
layers = (
{
layerId = "DC66AB0F-19FD-4F06-8C39-5D32AA939720";
shapes = (
{
closed = 1;
nodes = (
(37,-201,l),
(22,-201,o),
(7,-179,o),
(7,-162,q),
(7,-146,o),
(21,-107,o),
(48,-75,o),
(89,-53,o),
(117,-53,q),
(185,-53,o),
(270,-40,o),
(329,-3,o),
(373,63,o),
(400,115,q),
(544,392,l),
(583,462,o),
(637,548,o),
(690,596,o),
(749,618,o),
(793,624,q),
(769,647,o),
(748,696,o),
(748,723,q),
(748,755,o),
(774,831,o),
(794,870,q),
(1006,1279,l),
(1015,1297,o),
(1015,1309,q),
(1015,1339,o),
(935,1365,o),
(856,1365,q),
(835,1365,o),
(815,1389,o),
(815,1423,o),
(831,1461,o),
(863,1492,o),
(907,1513,o),
(936,1513,q),
(1060,1513,o),
(1187,1439,o),
(1187,1365,q),
(1187,1343,o),
(1183,1324,q),
(1180,1310,o),
(1174,1286,o),
(1160,1250,o),
(1135,1194,o),
(1090,1104,o),
(1022,972,o),
(973,878,q),
(955,843,o),
(927,771,o),
(927,743,q),
(927,719,o),
(953,690,o),
(987,690,q),
(1009,690,o),
(1030,664,o),
(1030,645,q),
(1030,630,o),
(1015,596,o),
(986,568,o),
(942,550,o),
(913,550,q),
(848,550,o),
(755,472,o),
(707,384,q),
(553,82,l),
(508,-7,o),
(428,-119,o),
(332,-182,o),
(206,-205,o),
(114,-205,q)
);
}
);
width = 1018;
}
);
unicode = 125;
},
{
glyphname = bracketleft;
layers = (
{
layerId = "DC66AB0F-19FD-4F06-8C39-5D32AA939720";
shapes = (
{
closed = 1;
nodes = (
(1448,1573,l),
(1472,1573,o),
(1496,1546,o),
(1496,1526,q),
(1496,1511,o),
(1481,1478,o),
(1452,1451,o),
(1408,1434,o),
(1378,1434,q),
(1182,1434,l),
(990,1056,o),
(613,308,o),
(421,-70,q),
(618,-70,l),
(639,-70,o),
(659,-93,o),
(659,-110,q),
(659,-125,o),
(644,-158,o),
(615,-187,o),
(574,-205,o),
(548,-205,q),
(180,-205,l),
(405,240,o),
(854,1128,o),
(1080,1573,q)
);
}
);
width = 966;
}
);
unicode = 91;
},
{
glyphname = bracketright;
layers = (
{
layerId = "DC66AB0F-19FD-4F06-8C39-5D32AA939720";
shapes = (
{
closed = 1;
nodes = (
(1232,1573,l),
(1008,1128,o),
(558,240,o),
(334,-205,q),
(-38,-205,l),
(-64,-205,o),
(-88,-183,o),
(-88,-166,q),
(-88,-151,o),
(-70,-117,o),
(-38,-88,o),
(8,-70,o),
(36,-70,q),
(232,-70,l),
(611,684,o),
(990,1434,q),
(793,1434,l),
(762,1434,o),
(733,1461,o),
(733,1480,q),
(733,1495,o),
(750,1528,o),
(783,1555,o),
(832,1573,o),
(863,1573,q)
);
}
);
width = 784;
}
);
unicode = 93;
},
{
glyphname = quotesinglbase;
layers = (
{
layerId = "DC66AB0F-19FD-4F06-8C39-5D32AA939720";
shapes = (
{
closed = 1;
nodes = (
(647,-55,o),
(572,-162,o),
(497,-267,o),
(421,-375,o),
(381,-433,q),
(365,-456,o),
(331,-476,o),
(299,-476,o),
(279,-460,o),
(279,-447,q),
(279,-441,o),
(282,-433,q),
(304,-375,o),
(343,-267,o),
(381,-162,o),
(420,-55,o),
(442,4,q),
(449,25,o),
(481,56,o),
(523,75,o),
(571,85,o),
(594,85,q),
(615,85,o),
(652,78,o),
(680,64,o),
(697,44,o),
(697,31,q),
(697,19,o),
(688,4,q)
);
}
);
width = 872;
}
);
unicode = 8218;
},
{
glyphname = quotedblbase;
layers = (
{
layerId = "DC66AB0F-19FD-4F06-8C39-5D32AA939720";
shapes = (
{
closed = 1;
nodes = (
(466,-55,o),
(391,-162,o),
(316,-267,o),
(240,-375,o),
(200,-433,q),
(184,-456,o),
(150,-476,o),
(118,-476,o),
(98,-460,o),
(98,-447,q),
(98,-441,o),
(101,-433,q),
(123,-375,o),
(162,-267,o),
(200,-162,o),
(239,-55,o),
(261,4,q),
(268,25,o),
(300,56,o),
(342,75,o),
(390,85,o),
(413,85,q),
(434,85,o),
(471,78,o),
(499,64,o),
(516,44,o),
(516,31,q),
(516,19,o),
(507,4,q)
);
},
{
closed = 1;
nodes = (
(845,-55,o),
(770,-162,o),
(695,-267,o),
(619,-375,o),
(579,-433,q),
(563,-456,o),
(529,-476,o),
(497,-476,o),
(477,-460,o),
(477,-447,q),
(477,-441,o),
(480,-433,q),
(502,-375,o),
(541,-267,o),
(579,-162,o),
(618,-55,o),
(640,4,q),
(647,25,o),
(679,56,o),
(721,75,o),
(769,85,o),
(792,85,q),
(813,85,o),
(850,78,o),
(878,64,o),
(895,44,o),
(895,31,q),
(895,19,o),
(886,4,q)
);
}
);
width = 1065;
}
);
unicode = 8222;
},
{
glyphname = quotedblleft;
layers = (
{
layerId = "DC66AB0F-19FD-4F06-8C39-5D32AA939720";
shapes = (
{
closed = 1;
nodes = (
(368,1019,o),
(444,1127,o),
(519,1232,o),
(595,1339,o),
(635,1398,q),
(651,1421,o),
(685,1441,o),
(717,1441,o),
(737,1425,o),
(737,1412,q),
(737,1405,o),
(734,1398,q),
(712,1339,o),
(673,1232,o),
(635,1127,o),
(596,1019,o),
(574,961,q),
(567,940,o),
(535,909,o),
(493,890,o),
(445,880,o),
(422,880,q),
(401,880,o),
(364,887,o),
(336,901,o),
(319,921,o),
(319,934,q),
(319,946,o),
(328,961,q)
);
},
{
closed = 1;
nodes = (
(749,1019,o),
(825,1127,o),
(900,1232,o),
(976,1339,o),
(1016,1398,q),
(1032,1421,o),
(1066,1441,o),
(1098,1441,o),
(1118,1425,o),
(1118,1412,q),
(1118,1405,o),
(1115,1398,q),
(1093,1339,o),
(1054,1232,o),
(1016,1127,o),
(977,1019,o),
(955,961,q),
(948,940,o),
(916,909,o),
(874,890,o),
(826,880,o),
(803,880,q),
(782,880,o),
(745,887,o),
(717,901,o),
(700,921,o),
(700,934,q),
(700,946,o),
(709,961,q)
);
}
);
width = 867;
}
);
unicode = 8220;
},
{
glyphname = quotedblright;
layers = (
{
layerId = "DC66AB0F-19FD-4F06-8C39-5D32AA939720";
shapes = (
{
closed = 1;
nodes = (
(714,1309,o),
(639,1202,o),
(564,1097,o),
(488,989,o),
(448,931,q),
(432,908,o),
(398,888,o),
(366,888,o),
(346,904,o),
(346,917,q),
(346,923,o),
(349,931,q),
(371,989,o),
(410,1097,o),
(448,1202,o),
(487,1309,o),
(509,1368,q),
(516,1389,o),
(548,1420,o),
(590,1439,o),
(638,1449,o),
(661,1449,q),
(682,1449,o),
(719,1442,o),
(747,1428,o),
(764,1408,o),
(764,1395,q),
(764,1383,o),
(755,1368,q)
);
},
{
closed = 1;
nodes = (
(1093,1309,o),
(1018,1202,o),
(943,1097,o),
(867,989,o),
(827,931,q),
(811,908,o),
(777,888,o),
(745,888,o),
(725,904,o),
(725,917,q),
(725,923,o),
(728,931,q),
(750,989,o),
(789,1097,o),
(827,1202,o),
(866,1309,o),
(888,1368,q),
(895,1389,o),
(927,1420,o),
(969,1439,o),
(1017,1449,o),
(1040,1449,q),
(1061,1449,o),
(1098,1442,o),
(1126,1428,o),
(1143,1408,o),
(1143,1395,q),
(1143,1383,o),
(1134,1368,q)
);
}
);
width = 939;
}
);
unicode = 8221;
},
{
glyphname = quoteleft;
layers = (
{
layerId = "DC66AB0F-19FD-4F06-8C39-5D32AA939720";
shapes = (
{
closed = 1;
nodes = (
(410,1019,o),
(486,1127,o),
(561,1232,o),
(637,1339,o),
(677,1398,q),
(693,1421,o),
(727,1441,o),
(759,1441,o),
(779,1425,o),
(779,1412,q),
(779,1405,o),
(776,1398,q),
(754,1339,o),
(715,1232,o),
(677,1127,o),
(638,1019,o),
(616,961,q),
(609,940,o),
(577,909,o),
(535,890,o),
(487,880,o),
(464,880,q),
(443,880,o),
(406,887,o),
(378,901,o),
(361,921,o),
(361,934,q),
(361,946,o),
(370,961,q)
);
}
);
width = 529;
}
);
unicode = 8216;
},
{
glyphname = quoteright;
layers = (
{
layerId = "DC66AB0F-19FD-4F06-8C39-5D32AA939720";
shapes = (
{
closed = 1;
nodes = (
(755,1309,o),
(680,1202,o),
(605,1097,o),
(529,989,o),
(489,931,q),
(473,908,o),
(439,888,o),
(407,888,o),
(387,904,o),
(387,917,q),
(387,923,o),
(390,931,q),
(412,989,o),
(451,1097,o),
(489,1202,o),
(528,1309,o),
(550,1368,q),
(557,1389,o),
(589,1420,o),
(631,1439,o),
(679,1449,o),
(702,1449,q),
(723,1449,o),
(760,1442,o),
(788,1428,o),
(805,1408,o),
(805,1395,q),
(805,1383,o),
(796,1368,q)
);
}
);
width = 612;
}
);
unicode = 8217;
},
{
glyphname = guillemotleft;
layers = (
{
layerId = "DC66AB0F-19FD-4F06-8C39-5D32AA939720";
shapes = (
{
closed = 1;
nodes = (
(575,176,o),
(438,257,o),
(387,287,q),
(327,322,o),
(278,352,q),
(250,369,o),
(250,400,q),
(250,425,o),
(286,471,o),
(324,487,q),
(415,527,o),
(498,562,q),
(534,578,o),
(608,609,o),
(678,638,o),
(738,664,o),
(761,672,q),
(772,677,o),
(780,677,q),
(796,677,o),
(814,649,o),
(814,626,q),
(814,613,o),
(812,584,o),
(799,555,o),
(770,530,o),
(743,520,q),
(729,513,o),
(689,497,o),
(645,479,o),
(597,461,o),
(575,452,q),
(523,432,o),
(468,411,q),
(468,411,o),
(468,411,q),
(468,410,o),
(525,382,q),
(583,355,o),
(710,287,q),
(735,273,o),
(756,239,o),
(756,222,q),
(756,204,o),
(740,169,o),
(715,142,o),
(685,126,o),
(672,126,q),
(661,126,o),
(656,130,q)
);
},
{
closed = 1;
nodes = (
(1034,176,o),
(897,257,o),
(846,287,q),
(787,322,o),
(738,352,q),
(710,369,o),
(710,400,q),
(710,425,o),
(746,471,o),
(784,487,q),
(875,527,o),
(958,562,q),
(994,578,o),
(1068,609,o),
(1137,638,o),
(1198,664,o),
(1220,672,q),
(1232,677,o),
(1239,677,q),
(1256,677,o),
(1274,649,o),
(1274,626,q),
(1274,613,o),
(1271,584,o),
(1258,555,o),
(1230,530,o),
(1203,520,q),
(1188,513,o),
(1148,497,o),
(1104,479,o),
(1057,461,o),
(1035,452,q),
(983,432,o),
(928,411,q),
(928,411,o),
(928,411,q),
(928,410,o),
(985,382,q),
(1043,355,o),
(1169,287,q),
(1194,273,o),
(1216,239,o),
(1216,222,q),
(1216,204,o),
(1200,169,o),
(1174,142,o),
(1145,126,o),
(1132,126,q),
(1121,126,o),
(1116,130,q)
);
}
);
width = 1333;
}
);
unicode = 171;
},
{
glyphname = guillemotright;
layers = (
{
layerId = "DC66AB0F-19FD-4F06-8C39-5D32AA939720";
shapes = (
{
closed = 1;
nodes = (
(460,128,o),
(449,128,q),
(430,128,o),
(403,161,o),
(403,211,o),
(440,267,o),
(491,288,q),
(570,322,o),
(685,368,o),
(758,398,o),
(776,405,q),
(793,412,l),
(767,424,l),
(741,436,o),
(670,471,o),
(596,508,o),
(572,520,q),
(552,531,o),
(535,554,o),
(535,568,q),
(535,586,o),
(550,624,o),
(573,655,o),
(601,676,o),
(614,676,q),
(621,676,o),
(630,672,q),
(648,663,o),
(696,638,o),
(751,609,o),
(810,578,o),
(838,562,q),
(903,527,o),
(974,487,q),
(994,477,o),
(1013,449,o),
(1013,432,q),
(1013,407,o),
(980,365,o),
(952,353,q),
(889,323,o),
(812,288,q),
(746,258,o),
(570,178,o),
(468,132,q)
);
},
{
closed = 1;
nodes = (
(914,128,o),
(902,128,q),
(883,128,o),
(857,161,o),
(857,211,o),
(894,267,o),
(945,288,q),
(1024,322,o),
(1138,368,o),
(1212,398,o),
(1229,405,q),
(1246,412,l),
(1220,424,l),
(1195,436,o),
(1124,471,o),
(1050,508,o),
(1026,520,q),
(1005,531,o),
(989,554,o),
(989,568,q),
(989,586,o),
(1003,624,o),
(1026,655,o),
(1054,676,o),
(1067,676,q),
(1075,676,o),
(1083,672,q),
(1101,663,o),
(1150,638,o),
(1205,609,o),
(1263,578,o),
(1291,562,q),
(1357,527,o),
(1427,487,q),
(1447,477,o),
(1466,449,o),
(1466,432,q),
(1466,407,o),
(1433,365,o),
(1406,353,q),
(1342,323,o),
(1265,288,q),
(1200,258,o),
(1024,178,o),
(921,132,q)
);
}
);
width = 1570;
}
);
unicode = 187;
},
{
glyphname = guilsinglleft;
layers = (
{
layerId = "DC66AB0F-19FD-4F06-8C39-5D32AA939720";
shapes = (
{
closed = 1;
nodes = (
(737,407,o),
(579,500,o),
(520,535,q),
(451,575,o),
(395,610,q),
(362,630,o),
(362,665,q),
(362,694,o),
(404,748,o),
(448,766,q),
(553,812,o),
(649,853,q),
(690,871,o),
(776,907,o),
(856,941,o),
(926,970,o),
(952,980,q),
(965,985,o),
(974,985,q),
(993,985,o),
(1014,953,o),
(1014,927,q),
(1014,911,o),
(1011,878,o),
(996,845,o),
(963,816,o),
(932,804,q),
(915,796,o),
(869,778,o),
(818,757,o),
(763,736,o),
(738,726,q),
(678,702,o),
(614,678,q),
(614,678,o),
(614,678,o),
(614,678,o),
(614,678,q),
(614,677,o),
(680,645,q),
(747,613,o),
(893,535,q),
(922,519,o),
(947,480,o),
(947,460,q),
(947,439,o),
(928,399,o),
(899,368,o),
(865,349,o),
(850,349,q),
(837,349,o),
(831,354,q)
);
}
);
width = 1060;
}
);
unicode = 8249;
},
{
glyphname = guilsinglright;
layers = (
{
layerId = "DC66AB0F-19FD-4F06-8C39-5D32AA939720";
shapes = (
{
closed = 1;
nodes = (
(551,349,o),
(538,349,q),
(516,349,o),
(485,387,o),
(485,445,o),
(528,510,o),
(587,535,q),
(679,574,o),
(812,628,o),
(897,662,o),
(917,670,q),
(937,678,l),
(907,692,l),
(877,706,o),
(795,747,o),
(709,790,o),
(681,804,q),
(657,816,o),
(638,843,o),
(638,860,q),
(638,880,o),
(655,924,o),
(682,961,o),
(714,985,o),
(729,985,q),
(738,985,o),
(748,980,q),
(769,970,o),
(825,941,o),
(889,907,o),
(957,871,o),
(989,853,q),
(1065,812,o),
(1147,766,q),
(1170,754,o),
(1192,721,o),
(1192,702,q),
(1192,673,o),
(1154,624,o),
(1122,610,q),
(1048,575,o),
(959,535,q),
(883,500,o),
(679,407,o),
(560,354,q)
);
}
);
width = 1173;
}
);
unicode = 8250;
},
{
glyphname = quotedbl;
layers = (
{
layerId = "DC66AB0F-19FD-4F06-8C39-5D32AA939720";
shapes = (
{
closed = 1;
nodes = (
(1018,1297,o),
(926,1154,o),
(833,1012,o),
(742,874,o),
(700,809,q),
(683,783,o),
(632,755,o),
(609,755,q),
(592,755,o),
(570,770,o),
(570,785,q),
(570,791,o),
(575,802,o),
(577,809,q),
(614,884,o),
(689,1035,o),
(760,1178,o),
(824,1311,o),
(851,1368,q),
(859,1384,o),
(886,1408,o),
(920,1424,o),
(959,1431,o),
(978,1431,q),
(1013,1431,o),
(1065,1408,o),
(1065,1386,q),
(1065,1382,o),
(1063,1372,o),
(1059,1368,q)
);
},
{
closed = 1;
nodes = (
(721,1298,o),
(641,1155,o),
(558,1013,o),
(477,874,o),
(440,809,q),
(425,783,o),
(379,755,o),
(357,755,q),
(340,755,o),
(320,770,o),
(320,784,q),
(320,790,o),
(325,802,o),
(327,809,q),
(358,884,o),
(421,1035,o),
(481,1178,o),
(536,1311,o),
(559,1368,q),
(574,1401,o),
(640,1431,o),
(678,1431,q),
(713,1431,o),
(765,1408,o),
(765,1386,q),
(765,1382,o),
(763,1372,o),
(759,1368,q)
);
}
);
width = 852;
}
);
unicode = 34;
},
{
glyphname = quotesingle;
layers = (
{
layerId = "DC66AB0F-19FD-4F06-8C39-5D32AA939720";
shapes = (
{
closed = 1;
nodes = (
(821,1298,o),
(740,1155,o),
(656,1013,o),
(575,874,o),
(538,809,q),
(523,783,o),
(474,755,o),
(451,755,q),
(433,755,o),
(410,772,o),
(410,789,q),
(410,794,o),
(412,804,o),
(415,809,q),
(447,884,o),
(511,1035,o),
(571,1178,o),
(627,1311,o),
(650,1368,q),
(657,1384,o),
(682,1408,o),
(715,1424,o),
(753,1431,o),
(772,1431,q),
(808,1431,o),
(863,1407,o),
(863,1385,q),
(863,1381,o),
(861,1371,o),
(858,1368,q)
);
}
);
width = 671;
}
);
unicode = 39;
},
{
glyphname = florin;
layers = (
{
layerId = "DC66AB0F-19FD-4F06-8C39-5D32AA939720";
shapes = (
{
closed = 1;
nodes = (
(1142,1062,ls),
(1171,1062,o),
(1177,1039,o),
(1168,1015,cs),
(1158,987,o),
(1129,957,o),
(1094,957,cs),
(787,957,l),
(452,216,l),
(313,-88,o),
(127,-245,o),
(-53,-245,cs),
(-115,-245,o),
(-179,-232,o),
(-242,-207,c),
(-283,-179,l),
(-299,-165,ls),
(-320,-147,o),
(-324,-127,o),
(-315,-105,c),
(-301,-66,o),
(-252,-28,o),
(-213,-28,cs),
(-200,-28,o),
(-190,-32,o),
(-180,-40,cs),
(-153,-62,ls),
(-116,-93,o),
(-75,-109,o),
(-32,-109,cs),
(54,-109,o),
(146,-42,o),
(210,98,cs),
(597,957,l),
(364,957,ls),
(334,957,o),
(328,981,o),
(337,1006,cs),
(347,1033,o),
(375,1062,o),
(412,1062,cs),
(645,1062,l),
(782,1436,o),
(1016,1669,o),
(1235,1669,cs),
(1299,1669,o),
(1361,1650,o),
(1419,1608,cs),
(1460,1579,l),
(1475,1567,o),
(1476,1544,o),
(1469,1526,cs),
(1456,1489,o),
(1415,1450,o),
(1376,1450,cs),
(1366,1450,o),
(1357,1453,o),
(1349,1458,cs),
(1333,1468,ls),
(1283,1500,o),
(1237,1517,o),
(1194,1517,cs),
(1065,1517,o),
(958,1372,o),
(835,1062,c)
);
}
);
width = 566;
}
);
unicode = 402;
},
{
glyphname = at;
layers = (
{
layerId = "DC66AB0F-19FD-4F06-8C39-5D32AA939720";
shapes = (
{
closed = 1;
nodes = (
(1190,1008,o),
(1015,945,o),
(861,831,o),
(741,670,o),
(711,573,q),
(635,330,o),
(860,330,q),
(946,330,o),
(1109,405,o),
(1258,565,o),
(1389,813,o),
(1443,987,q),
(1428,990,l),
(1412,994,o),
(1363,1001,o),
(1302,1008,o),
(1274,1008,q)
);
},
{
closed = 1;
nodes = (
(605,-155,o),
(325,-37,o),
(185,164,o),
(171,430,o),
(217,578,q),
(261,720,o),
(403,960,o),
(581,1155,o),
(790,1304,o),
(1010,1405,o),
(1235,1456,o),
(1342,1456,q),
(1450,1456,o),
(1643,1419,o),
(1799,1342,o),
(1913,1227,o),
(1972,1072,o),
(1970,875,o),
(1933,756,q),
(1900,649,o),
(1807,483,o),
(1697,359,o),
(1580,274,o),
(1466,222,o),
(1361,199,o),
(1319,199,q),
(1284,199,o),
(1251,218,o),
(1240,250,o),
(1248,292,o),
(1256,316,q),
(1328,548,l),
(1298,489,o),
(1198,366,o),
(1065,264,o),
(899,199,o),
(803,199,q),
(717,199,o),
(599,254,o),
(537,356,o),
(533,500,o),
(561,590,q),
(581,655,o),
(660,785,o),
(769,905,o),
(903,1008,o),
(1052,1084,o),
(1214,1128,o),
(1295,1128,q),
(1311,1128,o),
(1368,1124,o),
(1432,1117,o),
(1496,1108,o),
(1518,1104,q),
(1547,1099,o),
(1573,1077,o),
(1584,1046,o),
(1587,1008,o),
(1591,987,q),
(1383,317,l),
(1444,317,o),
(1554,366,o),
(1652,473,o),
(1737,640,o),
(1774,758,q),
(1809,869,o),
(1809,1038,o),
(1756,1162,o),
(1657,1245,o),
(1530,1296,o),
(1382,1317,o),
(1305,1317,q),
(1154,1317,o),
(867,1217,o),
(621,1027,o),
(430,752,o),
(376,578,q),
(333,440,o),
(353,219,o),
(478,66,o),
(709,-16,o),
(878,-16,q),
(965,-16,o),
(1113,6,o),
(1231,39,o),
(1276,58,q),
(1322,78,o),
(1380,110,o),
(1396,122,q),
(1411,134,l),
(1474,42,l),
(1419,-3,o),
(1276,-76,o),
(1109,-127,o),
(923,-155,o),
(825,-155,q)
);
}
);
width = 1856;
}
);
unicode = 64;
},
{
glyphname = ampersand;
layers = (
{
layerId = "DC66AB0F-19FD-4F06-8C39-5D32AA939720";
shapes = (
{
closed = 1;
nodes = (
(356,260,o),
(356,207,q),
(356,178,o),
(402,155,o),
(432,155,q),
(482,155,o),
(534,181,q),
(551,189,o),
(627,239,o),
(687,282,q),
(566,442,l),
(524,399,o),
(479,361,q)
);
},
{
closed = 1;
nodes = (
(951,687,o),
(918,676,o),
(902,676,q),
(884,676,o),
(851,689,o),
(826,710,o),
(812,736,o),
(812,750,q),
(812,762,o),
(844,801,o),
(881,848,o),
(913,901,o),
(913,927,q),
(913,957,o),
(870,994,o),
(839,994,q),
(799,994,o),
(706,950,o),
(627,881,o),
(574,797,o),
(574,757,q),
(574,685,o),
(633,613,q),
(802,406,l),
(826,436,o),
(865,497,o),
(879,521,q),
(1053,521,l),
(1026,456,o),
(948,329,o),
(895,266,q),
(911,241,o),
(939,199,o),
(969,154,o),
(1006,102,o),
(1032,68,q),
(1040,57,o),
(1048,33,o),
(1048,23,q),
(1048,-9,o),
(1003,-54,o),
(971,-54,q),
(949,-54,o),
(902,-28,o),
(879,2,q),
(776,142,l),
(666,60,o),
(613,30,q),
(509,-28,o),
(423,-28,q),
(371,-28,o),
(280,3,o),
(212,60,o),
(173,142,o),
(173,193,q),
(173,230,o),
(224,329,o),
(305,430,o),
(403,522,o),
(451,553,q),
(464,561,o),
(464,566,q),
(430,619,o),
(399,719,o),
(399,767,q),
(399,820,o),
(439,918,o),
(509,1002,o),
(602,1071,o),
(706,1120,o),
(816,1146,o),
(869,1146,q),
(945,1146,o),
(1069,1085,o),
(1101,1017,q),
(1114,990,o),
(1114,958,q),
(1114,922,o),
(1084,850,o),
(1040,783,o),
(989,723,o),
(967,700,q)
);
}
);
width = 1119;
}
);
unicode = 38;
},
{
glyphname = paragraph;
layers = (
{
layerId = "DC66AB0F-19FD-4F06-8C39-5D32AA939720";
shapes = (
{
closed = 1;
nodes = (
(1612,1368,l),
(1542,1233,l),
(1415,1233,l),
(673,-201,l),
(525,-201,l),
(1267,1233,l),
(1063,1233,l),
(320,-201,l),
(173,-201,l),
(611,647,l),
(345,647,o),
(345,837,q),
(345,900,o),
(395,1026,o),
(443,1092,q),
(498,1167,o),
(629,1272,o),
(780,1338,o),
(948,1368,o),
(1039,1368,q)
);
}
);
width = 1241;
}
);
unicode = 182;
},
{
glyphname = section;
layers = (
{
layerId = "DC66AB0F-19FD-4F06-8C39-5D32AA939720";
shapes = (
{
closed = 1;
nodes = (
(1001,708,o),
(1001,736,o),
(992,763,o),
(970,792,o),
(934,824,o),
(907,844,q),
(843,844,o),
(739,822,o),
(665,779,o),
(625,716,o),
(625,676,q),
(625,637,o),
(675,571,o),
(729,541,q),
(782,541,o),
(874,562,o),
(944,601,o),
(990,657,o),
(998,692,q)
);
},
{
closed = 1;
nodes = (
(1505,1336,o),
(1518,1314,o),
(1518,1300,q),
(1518,1283,o),
(1503,1246,o),
(1475,1214,o),
(1436,1193,o),
(1413,1193,q),
(1401,1193,o),
(1392,1196,q),
(1289,1221,o),
(1172,1221,q),
(1062,1221,o),
(943,1159,o),
(943,1093,q),
(943,1026,o),
(1061,921,q),
(1173,821,o),
(1173,725,q),
(1173,686,o),
(1140,595,o),
(1059,515,o),
(923,458,o),
(820,452,q),
(852,412,o),
(888,334,o),
(888,293,q),
(888,285,o),
(886,267,o),
(884,258,q),
(871,194,o),
(801,95,o),
(691,27,o),
(545,-8,o),
(456,-8,q),
(374,-8,o),
(204,8,o),
(115,25,q),
(92,30,o),
(74,52,o),
(74,82,o),
(92,116,o),
(122,143,o),
(163,161,o),
(187,161,q),
(191,161,o),
(200,161,o),
(204,160,q),
(269,150,o),
(404,139,o),
(482,139,q),
(581,139,o),
(679,199,o),
(692,262,q),
(693,265,o),
(693,272,q),
(693,332,o),
(567,451,q),
(451,561,o),
(451,663,q),
(451,684,o),
(455,700,q),
(479,816,o),
(661,936,o),
(804,947,q),
(775,994,o),
(751,1056,o),
(751,1085,q),
(751,1105,o),
(755,1122,q),
(807,1372,o),
(1224,1372,q),
(1290,1372,o),
(1422,1354,o),
(1491,1339,q)
);
}
);
width = 1100;
}
);
unicode = 167;
},
{
glyphname = copyright;
layers = (
{
layerId = "DC66AB0F-19FD-4F06-8C39-5D32AA939720";
shapes = (
{
closed = 1;
nodes = (
(976,1131,o),
(1128,1093,o),
(1206,1051,q),
(1206,925,l),
(1132,964,o),
(986,1003,o),
(919,1003,q),
(863,1003,o),
(767,971,o),
(696,906,o),
(655,809,o),
(655,679,o),
(696,582,o),
(767,517,o),
(863,485,o),
(919,485,q),
(986,485,o),
(1132,524,o),
(1206,563,q),
(1206,437,l),
(1128,395,o),
(976,357,o),
(904,357,q),
(814,357,o),
(658,418,o),
(544,523,o),
(478,664,o),
(478,824,o),
(544,965,o),
(658,1070,o),
(814,1131,o),
(904,1131,q)
);
},
{
closed = 1;
nodes = (
(794,0,o),
(610,47,o),
(444,136,o),
(304,265,o),
(202,430,o),
(144,629,o),
(144,857,o),
(204,1056,o),
(310,1222,o),
(453,1353,o),
(618,1443,o),
(799,1490,o),
(889,1490,q),
(980,1490,o),
(1161,1442,o),
(1327,1352,o),
(1469,1221,o),
(1574,1055,o),
(1634,856,o),
(1634,743,q),
(1634,632,o),
(1578,435,o),
(1477,270,o),
(1338,139,o),
(1173,48,o),
(986,0,o),
(889,0,q)
);
},
{
closed = 1;
nodes = (
(1486,839,o),
(1437,1006,o),
(1351,1145,o),
(1235,1253,o),
(1103,1326,o),
(959,1365,o),
(889,1365,q),
(817,1365,o),
(673,1326,o),
(540,1252,o),
(425,1144,o),
(341,1005,o),
(292,838,o),
(292,742,q),
(292,614,o),
(378,389,o),
(535,221,o),
(755,124,o),
(1023,124,o),
(1243,221,o),
(1400,389,o),
(1486,614,o),
(1486,742,q)
);
}
);
width = 1685;
}
);
unicode = 169;
},
{
glyphname = registered;
layers = (
{
layerId = "DC66AB0F-19FD-4F06-8C39-5D32AA939720";
shapes = (
{
closed = 1;
nodes = (
(1078,353,l),
(846,697,l),
(777,697,l),
(777,375,l),
(631,375,l),
(631,1169,l),
(826,1169,l),
(902,1169,o),
(1046,1153,o),
(1159,1104,o),
(1227,1015,o),
(1227,942,q),
(1227,890,o),
(1204,813,o),
(1152,757,o),
(1068,719,o),
(1006,706,q),
(1208,426,l)
);
},
{
closed = 1;
nodes = (
(777,1056,l),
(777,805,l),
(908,804,l),
(962,804,o),
(1030,827,o),
(1069,863,o),
(1083,909,o),
(1083,931,q),
(1083,956,o),
(1070,1001,o),
(1034,1036,o),
(969,1056,o),
(917,1056,q)
);
},
{
closed = 1;
nodes = (
(804,0,o),
(620,47,o),
(454,136,o),
(314,265,o),
(212,430,o),
(154,629,o),
(154,857,o),
(214,1056,o),
(320,1222,o),
(463,1353,o),
(628,1443,o),
(809,1490,o),
(899,1490,q),
(990,1490,o),
(1171,1442,o),
(1337,1352,o),
(1479,1221,o),
(1584,1055,o),
(1644,856,o),
(1644,743,q),
(1644,632,o),
(1588,435,o),
(1487,270,o),
(1348,139,o),
(1183,48,o),
(996,0,o),
(899,0,q)
);
},
{
closed = 1;
nodes = (
(1496,839,o),
(1447,1006,o),
(1361,1145,o),
(1245,1253,o),
(1113,1326,o),
(969,1365,o),
(899,1365,q),
(827,1365,o),
(683,1326,o),
(550,1252,o),
(435,1144,o),
(351,1005,o),
(302,838,o),
(302,742,q),
(302,614,o),
(388,389,o),
(545,221,o),
(765,124,o),
(1033,124,o),
(1253,221,o),
(1410,389,o),
(1496,614,o),
(1496,742,q)
);
}
);
width = 1695;
}
);
unicode = 174;
},
{
glyphname = trademark;
layers = (
{
layerId = "DC66AB0F-19FD-4F06-8C39-5D32AA939720";
shapes = (
{
closed = 1;
nodes = (
(415,1310,l),
(415,624,l),
(280,624,l),
(280,1310,l),
(70,1310,l),
(70,1413,l),
(624,1413,l),
(624,1310,l)
);
},
{
closed = 1;
nodes = (
(862,1288,l),
(862,624,l),
(734,624,l),
(734,1413,l),
(963,1413,l),
(1147,758,l),
(1331,1413,l),
(1560,1413,l),
(1560,624,l),
(1433,624,l),
(1433,1288,l),
(1236,624,l),
(1058,624,l)
);
}
);
width = 1705;
}
);
unicode = 8482;
},
{
glyphname = degree;
layers = (
{
layerId = "DC66AB0F-19FD-4F06-8C39-5D32AA939720";
shapes = (
{
closed = 1;
nodes = (
(859,1122,o),
(812,1099,o),
(777,1063,o),
(757,1019,o),
(757,999,q),
(757,976,o),
(788,945,o),
(823,945,q),
(851,945,o),
(899,968,o),
(933,1003,o),
(953,1046,o),
(953,1066,q),
(953,1089,o),
(922,1122,o),
(887,1122,q)
);
},
{
closed = 1;
nodes = (
(1029,995,o),
(974,930,o),
(904,881,o),
(826,852,o),
(789,852,q),
(730,852,o),
(658,922,o),
(658,976,q),
(658,1020,o),
(707,1106,o),
(783,1173,o),
(876,1214,o),
(920,1214,q),
(950,1214,o),
(999,1195,o),
(1034,1162,o),
(1053,1117,o),
(1053,1090,q),
(1053,1064,o),
(1042,1031,q)
);
}
);
width = 1221;
}
);
unicode = 176;
},
{
glyphname = bar;
layers = (
{
layerId = "DC66AB0F-19FD-4F06-8C39-5D32AA939720";
shapes = (
{
closed = 1;
nodes = (
(992,1573,l),
(451,-205,l),
(295,-205,l),
(828,1573,l)
);
}
);
width = 918;
}
);
unicode = 124;
},
{
glyphname = brokenbar;
layers = (
{
layerId = "DC66AB0F-19FD-4F06-8C39-5D32AA939720";
shapes = (
{
closed = 1;
nodes = (
(991,1573,l),
(776,880,l),
(620,880,l),
(827,1573,l)
);
},
{
closed = 1;
nodes = (
(661,488,l),
(450,-205,l),
(294,-205,l),
(500,488,l)
);
}
);
width = 867;
}
);
unicode = 166;
},
{
glyphname = dagger;
layers = (
{
layerId = "DC66AB0F-19FD-4F06-8C39-5D32AA939720";
shapes = (
{
closed = 1;
nodes = (
(656,1020,o),
(544,1020,o),
(432,1020,cs),
(396,1020,o),
(381,1039,o),
(381,1063,cs),
(381,1104,o),
(425,1161,o),
(480,1161,cs),
(592,1161,o),
(703,1161,o),
(815,1161,c),
(849,1263,o),
(884,1366,o),
(919,1468,cs),
(943,1539,o),
(1003,1574,o),
(1050,1574,cs),
(1088,1574,o),
(1119,1552,o),
(1119,1508,cs),
(1119,1496,o),
(1117,1482,o),
(1112,1468,cs),
(1077,1366,o),
(1042,1263,o),
(1008,1161,c),
(1117,1161,o),
(1225,1161,o),
(1334,1161,cs),
(1375,1161,o),
(1393,1140,o),
(1393,1114,cs),
(1393,1073,o),
(1349,1020,o),
(1286,1020,cs),
(1177,1020,o),
(1067,1020,o),
(958,1020,c),
(843,680,o),
(728,340,o),
(613,0,cs),
(591,-64,o),
(532,-96,o),
(485,-96,cs),
(447,-96,o),
(416,-76,o),
(416,-35,cs),
(416,-25,o),
(418,-13,o),
(423,0,c),
(538,340,o),
(653,680,o),
(768,1020,c)
);
}
);
width = 1055;
}
);
unicode = 8224;
},
{
glyphname = daggerdbl;
layers = (
{
layerId = "DC66AB0F-19FD-4F06-8C39-5D32AA939720";
shapes = (
{
closed = 1;
nodes = (
(1091,397,ls),
(1132,397,o),
(1150,376,o),
(1150,350,cs),
(1150,309,o),
(1106,256,o),
(1043,256,cs),
(699,256,l),
(613,0,ls),
(591,-64,o),
(532,-96,o),
(485,-96,cs),
(447,-96,o),
(416,-76,o),
(416,-35,cs),
(416,-25,o),
(418,-13,o),
(423,0,c),
(509,256,l),
(189,256,ls),
(153,256,o),
(138,275,o),
(138,299,cs),
(138,340,o),
(182,397,o),
(237,397,cs),
(557,397,l),
(768,1020,l),
(432,1020,ls),
(396,1020,o),
(381,1039,o),
(381,1063,cs),
(381,1104,o),
(425,1161,o),
(480,1161,cs),
(815,1161,l),
(849,1263,o),
(884,1366,o),
(919,1468,cs),
(943,1539,o),
(1003,1574,o),
(1050,1574,cs),
(1088,1574,o),
(1119,1552,o),
(1119,1508,cs),
(1119,1496,o),
(1117,1482,o),
(1112,1468,cs),
(1077,1366,o),
(1042,1263,o),
(1008,1161,c),
(1334,1161,ls),
(1375,1161,o),
(1393,1140,o),
(1393,1114,cs),
(1393,1073,o),
(1349,1020,o),
(1286,1020,cs),
(958,1020,l),
(747,397,l)
);
}
);
width = 1055;
}
);
unicode = 8225;
},
{
glyphname = Euro;
layers = (
{
layerId = "DC66AB0F-19FD-4F06-8C39-5D32AA939720";
shapes = (
{
closed = 1;
nodes = (
(1440,1236,o),
(1423,1160,o),
(1391,1078,o),
(1346,997,o),
(1288,932,o),
(1220,892,o),
(1181,892,q),
(1172,892,o),
(1143,895,o),
(1114,906,o),
(1093,928,o),
(1093,946,q),
(1093,958,o),
(1106,990,o),
(1123,1011,q),
(1141,1031,o),
(1183,1086,o),
(1217,1146,o),
(1240,1204,o),
(1240,1227,q),
(1240,1256,o),
(1213,1291,o),
(1180,1291,q),
(1145,1291,o),
(1059,1252,o),
(964,1184,o),
(865,1089,o),
(766,977,o),
(672,852,o),
(631,787,q),
(1148,787,l),
(1162,787,o),
(1175,772,o),
(1175,750,o),
(1164,727,o),
(1145,706,o),
(1117,693,o),
(1101,693,q),
(575,693,l),
(563,671,o),
(542,627,o),
(531,606,q),
(1095,606,l),
(1112,606,o),
(1130,587,o),
(1130,573,q),
(1130,563,o),
(1120,541,o),
(1099,523,o),
(1069,512,o),
(1048,512,q),
(492,512,l),
(475,463,o),
(456,373,o),
(456,335,q),
(456,262,o),
(534,174,o),
(624,174,q),
(666,174,o),
(769,216,o),
(880,281,o),
(993,360,o),
(1095,433,o),
(1179,492,o),
(1206,504,q),
(1211,508,o),
(1218,508,q),
(1233,508,o),
(1244,459,o),
(1244,428,q),
(1244,411,o),
(1235,362,o),
(1211,330,q),
(1200,317,o),
(1140,255,o),
(1050,177,o),
(934,93,o),
(799,23,o),
(649,-22,o),
(570,-22,q),
(477,-22,o),
(345,23,o),
(261,103,o),
(222,214,o),
(222,280,q),
(222,334,o),
(243,450,o),
(263,512,q),
(110,512,l),
(93,512,o),
(77,531,o),
(77,545,q),
(77,555,o),
(87,577,o),
(107,595,o),
(137,606,o),
(157,606,q),
(298,606,l),
(307,628,o),
(327,671,o),
(338,693,q),
(163,693,l),
(144,693,o),
(127,710,o),
(127,722,q),
(127,732,o),
(139,755,o),
(160,774,o),
(191,787,o),
(210,787,q),
(390,787,l),
(440,872,o),
(562,1035,o),
(700,1181,o),
(849,1304,o),
(1003,1393,o),
(1157,1443,o),
(1232,1443,q),
(1274,1443,o),
(1350,1424,o),
(1407,1382,o),
(1440,1313,o),
(1440,1263,q)
);
}
);
width = 1128;
}
);
unicode = 8364;
},
{
glyphname = cent;
layers = (
{
layerId = "DC66AB0F-19FD-4F06-8C39-5D32AA939720";
shapes = (
{
closed = 1;
nodes = (
(268,242,o),
(378,419,o),
(434,509,q),
(389,479,o),
(298,393,o),
(224,304,o),
(177,224,o),
(177,200,q),
(177,166,o),
(213,153,q)
);
},
{
closed = 1;
nodes = (
(736,604,o),
(702,529,o),
(652,463,o),
(590,419,o),
(553,419,q),
(538,419,o),
(527,425,o),
(527,433,q),
(527,435,o),
(534,457,o),
(543,486,o),
(551,518,o),
(551,529,q),
(551,541,o),
(543,545,q),
(302,152,l),
(343,160,o),
(436,196,o),
(528,241,o),
(615,290,o),
(684,332,o),
(732,361,o),
(739,365,q),
(749,370,o),
(765,373,o),
(771,373,q),
(790,373,o),
(803,350,o),
(803,338,q),
(803,330,o),
(794,296,o),
(770,274,q),
(763,268,o),
(707,224,o),
(619,164,o),
(507,95,o),
(383,33,o),
(254,-13,o),
(194,-21,q),
(102,-173,l),
(89,-193,o),
(50,-212,o),
(35,-212,q),
(22,-212,o),
(4,-201,o),
(4,-190,q),
(4,-186,o),
(6,-178,o),
(10,-173,q),
(33,-135,o),
(80,-60,o),
(104,-22,q),
(41,-12,o),
(-20,64,o),
(-20,118,q),
(-20,141,o),
(-9,189,o),
(0,213,q),
(15,254,o),
(79,349,o),
(166,447,o),
(271,544,o),
(385,627,o),
(502,691,o),
(558,709,q),
(668,884,l),
(681,904,o),
(719,925,o),
(734,925,q),
(745,925,o),
(759,916,o),
(759,905,q),
(759,895,o),
(752,884,q),
(655,727,l),
(663,727,l),
(699,727,o),
(749,699,o),
(749,665,q),
(749,650,o),
(745,635,q)
);
}
);
width = 645;
}
);
unicode = 162;
},
{
glyphname = currency;
layers = (
{
layerId = "DC66AB0F-19FD-4F06-8C39-5D32AA939720";
shapes = (
{
closed = 1;
nodes = (
(864,699,o),
(968,747,o),
(1049,827,o),
(1097,932,o),
(1097,1046,o),
(1053,1147,o),
(978,1222,o),
(877,1266,o),
(763,1266,o),
(658,1218,o),
(579,1137,o),
(531,1032,o),
(531,918,o),
(575,817,o),
(651,742,o),
(751,699,o),
(807,699,q)
);
},
{
closed = 1;
nodes = (
(456,742,l),
(388,846,o),
(388,970,q),
(388,1097,o),
(463,1208,q),
(269,1402,l),
(393,1526,l),
(587,1333,l),
(699,1409,o),
(826,1409,q),
(951,1409,o),
(1055,1341,q),
(1241,1526,l),
(1365,1402,l),
(1178,1215,l),
(1239,1118,o),
(1239,993,q),
(1239,869,o),
(1163,757,q),
(1365,555,l),
(1241,430,l),
(1038,633,l),
(928,558,o),
(804,558,q),
(679,558,o),
(582,619,q),
(393,430,l),
(269,555,l)
);
}
);
width = 1323;
}
);
unicode = 164;
},
{
glyphname = dollar;
layers = (
{
layerId = "DC66AB0F-19FD-4F06-8C39-5D32AA939720";
shapes = (
{
closed = 1;
nodes = (
(805,936,o),
(805,924,o),
(805,918,q),
(805,886,o),
(843,823,o),
(886,795,q),
(931,885,o),
(1021,1061,o),
(1066,1151,q),
(1018,1132,o),
(929,1084,o),
(858,1030,o),
(812,972,o),
(807,942,q)
);
},
{
closed = 1;
nodes = (
(1035,394,o),
(1035,401,o),
(1035,404,q),
(1035,424,o),
(1019,456,o),
(985,489,o),
(934,524,o),
(898,547,q),
(850,453,o),
(754,265,o),
(706,170,q),
(767,176,o),
(879,214,o),
(968,272,o),
(1026,347,o),
(1034,391,q)
);
},
{
closed = 1;
nodes = (
(1421,1573,l),
(1397,1525,o),
(1348,1431,o),
(1323,1383,q),
(1332,1383,l),
(1375,1383,o),
(1449,1366,o),
(1501,1329,o),
(1531,1271,o),
(1531,1231,q),
(1531,1143,o),
(1415,985,o),
(1304,918,q),
(1259,891,o),
(1227,891,q),
(1198,891,o),
(1166,928,o),
(1166,955,q),
(1166,986,o),
(1209,1054,o),
(1257,1077,q),
(1274,1085,o),
(1307,1108,o),
(1332,1135,o),
(1348,1162,o),
(1348,1175,q),
(1348,1193,o),
(1320,1204,o),
(1300,1204,q),
(1283,1204,o),
(1248,1200,o),
(1229,1197,q),
(1108,962,o),
(991,730,q),
(1124,646,l),
(1202,603,o),
(1274,498,o),
(1274,441,q),
(1274,423,o),
(1271,407,q),
(1257,327,o),
(1146,174,o),
(972,54,o),
(744,-20,o),
(613,-20,q),
(608,-20,l),
(514,-205,l),
(500,-238,o),
(457,-267,o),
(437,-267,q),
(413,-267,o),
(377,-246,o),
(377,-226,q),
(377,-216,o),
(383,-205,q),
(479,-12,l),
(405,-3,o),
(299,34,o),
(232,87,o),
(201,151,o),
(201,187,q),
(201,240,o),
(264,353,o),
(375,455,o),
(526,536,o),
(615,557,q),
(621,557,l),
(641,557,o),
(659,522,o),
(659,480,o),
(651,451,o),
(630,428,o),
(593,408,o),
(564,397,q),
(498,371,o),
(421,297,o),
(421,262,q),
(421,230,o),
(491,181,o),
(572,172,q),
(627,282,o),
(737,500,o),
(793,611,q),
(739,644,o),
(666,708,o),
(622,771,o),
(603,838,o),
(603,874,q),
(603,928,o),
(650,1032,o),
(732,1129,o),
(842,1215,o),
(968,1288,o),
(1103,1343,o),
(1170,1360,q),
(1277,1573,l),
(1291,1605,o),
(1338,1635,o),
(1361,1635,q),
(1387,1635,o),
(1424,1612,o),
(1424,1590,q),
(1424,1588,o),
(1423,1583,o),
(1423,1581,q)
);
}
);
width = 1300;
}
);
unicode = 36;
},
{
glyphname = sterling;
layers = (
{
layerId = "DC66AB0F-19FD-4F06-8C39-5D32AA939720";
shapes = (
{
closed = 1;
nodes = (
(1081,674,o),
(1011,627,o),
(976,627,q),
(952,627,o),
(912,649,o),
(912,669,q),
(912,679,o),
(918,690,q),
(949,749,o),
(978,838,o),
(978,868,q),
(978,899,o),
(953,931,o),
(930,931,q),
(920,931,o),
(903,926,q),
(890,922,o),
(852,883,o),
(808,824,o),
(760,752,o),
(738,715,q),
(684,628,o),
(626,520,q),
(777,520,l),
(799,520,o),
(824,487,o),
(824,465,q),
(824,450,o),
(811,420,o),
(782,396,o),
(738,381,o),
(708,381,q),
(560,381,l),
(433,147,l),
(534,135,l),
(546,133,o),
(569,133,o),
(580,133,q),
(642,133,o),
(756,156,o),
(814,167,q),
(817,167,o),
(823,168,o),
(825,168,q),
(851,168,o),
(879,137,o),
(879,115,q),
(879,99,o),
(866,65,o),
(834,34,o),
(783,10,o),
(746,3,q),
(686,-8,o),
(571,-21,o),
(515,-21,q),
(443,-21,o),
(313,-1,o),
(253,25,q),
(161,-20,o),
(64,-20,q),
(-3,-20,o),
(-79,29,o),
(-79,74,q),
(-79,101,o),
(-52,141,o),
(-8,167,o),
(48,180,o),
(76,180,q),
(99,180,o),
(160,176,o),
(188,174,q),
(221,171,o),
(255,168,q),
(377,381,l),
(262,381,l),
(236,381,o),
(211,408,o),
(211,428,q),
(211,443,o),
(225,476,o),
(254,503,o),
(297,520,o),
(327,520,q),
(446,520,l),
(485,599,o),
(522,668,q),
(538,697,o),
(571,757,o),
(603,811,o),
(631,856,o),
(642,870,q),
(716,977,o),
(885,1074,o),
(976,1074,q),
(1022,1074,o),
(1088,1043,o),
(1131,990,o),
(1151,920,o),
(1151,882,q),
(1151,843,o),
(1129,762,o),
(1109,727,q)
);
}
);
width = 912;
}
);
unicode = 163;
},
{
glyphname = yen;
layers = (
{
layerId = "DC66AB0F-19FD-4F06-8C39-5D32AA939720";
shapes = (
{
closed = 1;
nodes = (
(1241,586,l),
(722,586,l),
(534,231,l),
(505,175,o),
(480,116,o),
(478,105,q),
(478,52,o),
(447,-24,o),
(400,-75,o),
(344,-99,o),
(319,-99,q),
(282,-99,o),
(229,-55,o),
(229,-12,q),
(229,4,o),
(231,24,o),
(243,56,o),
(270,111,o),
(295,164,q),
(518,586,l),
(121,586,l),
(164,728,l),
(510,728,l),
(488,757,o),
(450,820,o),
(434,854,q),
(197,854,l),
(239,996,l),
(383,997,l),
(366,1045,o),
(354,1128,o),
(354,1163,q),
(354,1219,o),
(383,1309,o),
(433,1371,o),
(497,1404,o),
(532,1404,q),
(605,1404,o),
(605,1327,q),
(605,1313,o),
(594,1271,o),
(582,1220,o),
(571,1163,o),
(571,1134,q),
(571,1080,o),
(598,973,o),
(644,876,o),
(704,791,o),
(737,760,q),
(811,808,l),
(870,846,o),
(988,928,o),
(1034,974,q),
(1071,1011,o),
(1129,1084,o),
(1170,1148,o),
(1194,1199,o),
(1199,1216,q),
(1206,1243,l),
(1215,1277,o),
(1233,1327,o),
(1267,1359,o),
(1324,1374,o),
(1373,1374,q),
(1421,1374,o),
(1421,1306,q),
(1421,1301,o),
(1415,1253,o),
(1385,1172,o),
(1322,1063,o),
(1265,996,q),
(1359,996,l),
(1317,854,l),
(1113,854,l),
(1068,820,o),
(977,757,o),
(929,728,q),
(1284,728,l)
);
}
);
width = 893;
}
);
unicode = 165;
},
{
glyphname = plus;
layers = (
{
layerId = "DC66AB0F-19FD-4F06-8C39-5D32AA939720";
shapes = (
{
closed = 1;
nodes = (
(1226,640,l),
(842,640,l),
(658,256,l),
(530,256,l),
(714,640,l),
(330,640,l),
(390,768,l),
(774,768,l),
(958,1152,l),
(1086,1152,l),
(902,768,l),
(1286,768,l)
);
}
);
width = 1277;
}
);
unicode = 43;
},
{
glyphname = minus;
layers = (
{
layerId = "DC66AB0F-19FD-4F06-8C39-5D32AA939720";
shapes = (
{
closed = 1;
nodes = (
(917,512,l),
(326,512,l),
(373,606,l),
(964,606,l)
);
}
);
width = 1157;
}
);
unicode = 8722;
},
{
glyphname = multiply;
layers = (
{
layerId = "DC66AB0F-19FD-4F06-8C39-5D32AA939720";
shapes = (
{
closed = 1;
nodes = (
(417,965,l),
(734,648,l),
(1051,965,l),
(1153,863,l),
(836,546,l),
(1153,229,l),
(1051,127,l),
(734,444,l),
(417,127,l),
(315,229,l),
(632,546,l),
(315,863,l)
);
}
);
width = 1261;
}
);
unicode = 215;
},
{
glyphname = equal;
layers = (
{
layerId = "DC66AB0F-19FD-4F06-8C39-5D32AA939720";
shapes = (
{
closed = 1;
nodes = (
(1045,494,o),
(793,494,o),
(501,494,c),
(432,494,o),
(455,615,o),
(562,615,c),
(853,615,o),
(1107,615,o),
(1397,615,c),
(1472,615,o),
(1442,494,o),
(1337,494,cs)
);
},
{
closed = 1;
nodes = (
(1234,870,o),
(981,870,o),
(690,870,c),
(607,870,o),
(595,991,o),
(750,991,c),
(1042,991,o),
(1294,991,o),
(1586,991,c),
(1678,991,o),
(1625,870,o),
(1526,870,cs)
);
}
);
width = 1510;
}
);
unicode = 61;
},
{
glyphname = notequal;
layers = (
{
associatedMasterId = "DC66AB0F-19FD-4F06-8C39-5D32AA939720";
layerId = "4792E82C-863D-41BF-946D-D7A1CFF25D31";
name = img;
width = 1510;
},
{
layerId = "DC66AB0F-19FD-4F06-8C39-5D32AA939720";
shapes = (
{
closed = 1;
nodes = (
(1319,1072,o),
(846,264,o),
(609,-140,q),
(595,-165,o),
(555,-185,o),
(533,-185,q),
(504,-185,o),
(456,-155,o),
(456,-131,q),
(456,-126,o),
(458,-113,o),
(461,-109,q),
(696,298,o),
(1160,1103,o),
(1395,1510,q),
(1409,1533,o),
(1452,1554,o),
(1476,1554,q),
(1514,1554,o),
(1557,1518,o),
(1557,1491,q),
(1557,1481,o),
(1556,1476,q)
);
},
{
alignment = -1;
ref = equal;
}
);
width = 1510;
}
);
unicode = 8800;
},
{
glyphname = greater;
layers = (
{
layerId = "DC66AB0F-19FD-4F06-8C39-5D32AA939720";
shapes = (
{
closed = 1;
nodes = (
(1041,503,o),
(533,291,o),
(277,184,q),
(268,181,o),
(259,181,q),
(235,181,o),
(202,214,o),
(202,240,q),
(202,270,o),
(260,340,o),
(332,365,q),
(533,446,o),
(929,607,o),
(1130,688,q),
(980,769,o),
(684,931,o),
(535,1012,q),
(511,1025,o),
(490,1064,o),
(490,1087,q),
(490,1106,o),
(503,1145,o),
(525,1176,o),
(555,1195,o),
(573,1195,q),
(582,1195,o),
(591,1192,q),
(1347,766,l),
(1369,753,o),
(1393,721,o),
(1393,705,q),
(1393,681,o),
(1347,633,o),
(1298,610,q)
);
}
);
width = 1355;
}
);
unicode = 62;
},
{
glyphname = less;
layers = (
{
layerId = "DC66AB0F-19FD-4F06-8C39-5D32AA939720";
shapes = (
{
closed = 1;
nodes = (
(938,290,o),
(567,503,o),
(381,610,q),
(348,628,o),
(348,665,q),
(348,694,o),
(390,748,o),
(434,766,q),
(694,872,o),
(1209,1085,o),
(1469,1192,q),
(1482,1197,o),
(1491,1197,q),
(1510,1197,o),
(1531,1170,o),
(1531,1149,q),
(1531,1133,o),
(1517,1096,o),
(1487,1059,o),
(1440,1023,o),
(1406,1008,q),
(1203,927,o),
(802,769,o),
(600,688,q),
(747,607,o),
(1039,446,o),
(1186,365,q),
(1215,348,o),
(1240,310,o),
(1240,290,q),
(1240,269,o),
(1221,229,o),
(1192,198,o),
(1158,179,o),
(1143,179,q),
(1130,179,o),
(1124,184,q)
);
}
);
width = 1329;
}
);
unicode = 60;
},
{
glyphname = plusminus;
layers = (
{
layerId = "DC66AB0F-19FD-4F06-8C39-5D32AA939720";
shapes = (
{
closed = 1;
nodes = (
(659,577,l),
(659,233,l),
(518,233,l),
(518,577,l),
(205,577,l),
(205,710,l),
(518,710,l),
(518,1054,l),
(659,1054,l),
(659,710,l),
(973,710,l),
(973,577,l)
);
},
{
closed = 1;
nodes = (
(239,-56,l),
(239,83,l),
(940,83,l),
(940,-56,l)
);
}
);
width = 1076;
}
);
unicode = 177;
},
{
glyphname = asciitilde;
layers = (
{
layerId = "DC66AB0F-19FD-4F06-8C39-5D32AA939720";
shapes = (
{
closed = 1;
nodes = (
(1240,1391,l),
(1168,1285,o),
(1013,1188,o),
(925,1188,q),
(843,1188,o),
(717,1245,q),
(589,1314,o),
(524,1321,q),
(496,1321,o),
(447,1311,o),
(399,1287,o),
(351,1248,o),
(326,1220,q),
(243,1297,l),
(315,1403,o),
(463,1495,o),
(553,1495,q),
(629,1495,o),
(762,1431,q),
(826,1394,o),
(931,1358,o),
(970,1358,q),
(1016,1358,o),
(1099,1407,o),
(1153,1469,q)
);
}
);
width = 1393;
}
);
unicode = 126;
},
{
glyphname = logicalnot;
layers = (
{
layerId = "DC66AB0F-19FD-4F06-8C39-5D32AA939720";
shapes = (
{
closed = 1;
nodes = (
(92,1018,l),
(92,1169,l),
(1446,1169,l),
(1446,338,l),
(1270,338,l),
(1270,1018,l)
);
}
);
width = 1636;
}
);
unicode = 172;
},
{
glyphname = asciicircum;
layers = (
{
layerId = "DC66AB0F-19FD-4F06-8C39-5D32AA939720";
shapes = (
{
closed = 1;
nodes = (
(1125,812,o),
(1125,805,o),
(1125,802,q),
(1125,783,o),
(1105,750,o),
(1074,726,o),
(1036,712,o),
(1018,712,q),
(996,712,o),
(962,736,o),
(958,762,q),
(929,883,o),
(873,1124,o),
(844,1245,q),
(787,1185,o),
(686,1077,o),
(587,972,o),
(485,864,o),
(428,804,q),
(387,757,o),
(308,717,o),
(279,717,q),
(259,717,o),
(233,735,o),
(233,751,q),
(233,761,o),
(246,788,o),
(260,804,q),
(331,880,o),
(461,1020,o),
(590,1157,o),
(720,1296,o),
(791,1372,q),
(996,1372,l),
(1012,1296,o),
(1045,1160,o),
(1076,1027,o),
(1108,891,o),
(1124,815,q)
);
}
);
width = 1070;
}
);
unicode = 94;
},
{
glyphname = integral;
layers = (
{
layerId = "DC66AB0F-19FD-4F06-8C39-5D32AA939720";
shapes = (
{
closed = 1;
nodes = (
(645,1062,ls),
(809,1425,o),
(1016,1669,o),
(1235,1669,cs),
(1299,1669,o),
(1361,1650,o),
(1419,1608,cs),
(1460,1579,l),
(1475,1567,o),
(1476,1544,o),
(1469,1526,cs),
(1456,1489,o),
(1415,1450,o),
(1376,1450,cs),
(1366,1450,o),
(1357,1453,o),
(1349,1458,cs),
(1333,1468,ls),
(1283,1500,o),
(1237,1517,o),
(1194,1517,cs),
(1065,1517,o),
(973,1366,o),
(835,1062,cs),
(452,216,l),
(313,-88,o),
(127,-245,o),
(-53,-245,cs),
(-115,-245,o),
(-179,-232,o),
(-242,-207,c),
(-283,-179,l),
(-299,-165,ls),
(-320,-147,o),
(-324,-127,o),
(-315,-105,c),
(-301,-66,o),
(-252,-28,o),
(-213,-28,cs),
(-200,-28,o),
(-190,-32,o),
(-180,-40,cs),
(-153,-62,ls),
(-116,-93,o),
(-75,-109,o),
(-32,-109,cs),
(54,-109,o),
(147,-42,o),
(210,98,cs)
);
}
);
width = 566;
}
);
unicode = 8747;
},
{
glyphname = mu;
layers = (
{
layerId = "DC66AB0F-19FD-4F06-8C39-5D32AA939720";
shapes = (
{
closed = 1;
nodes = (
(1170,239,l),
(1126,189,o),
(1009,94,o),
(885,20,o),
(765,-25,o),
(669,-25,o),
(609,29,o),
(609,94,q),
(609,140,o),
(625,201,q),
(599,162,o),
(521,82,o),
(421,16,o),
(297,-25,o),
(224,-25,q),
(198,-25,o),
(151,-17,o),
(130,-8,q),
(-16,-371,l),
(-22,-384,o),
(-45,-408,o),
(-75,-427,o),
(-110,-438,o),
(-128,-438,q),
(-174,-438,o),
(-211,-402,o),
(-211,-376,q),
(-211,-356,o),
(-191,-309,o),
(-179,-289,q),
(-118,-172,o),
(-30,5,o),
(33,140,o),
(78,242,o),
(115,327,o),
(148,404,o),
(189,489,o),
(241,589,o),
(279,656,q),
(300,694,o),
(355,727,o),
(387,727,q),
(401,727,o),
(431,720,o),
(457,705,o),
(473,682,o),
(473,667,q),
(473,657,o),
(470,648,q),
(465,631,o),
(432,576,o),
(388,505,o),
(339,423,o),
(297,335,o),
(267,244,o),
(265,201,q),
(265,183,o),
(285,153,o),
(308,153,q),
(373,153,o),
(491,225,o),
(591,332,o),
(672,455,o),
(699,506,q),
(718,540,o),
(747,618,o),
(781,684,o),
(825,728,o),
(858,728,q),
(894,728,o),
(936,682,o),
(936,650,q),
(936,632,o),
(909,569,o),
(868,488,o),
(820,396,o),
(779,301,o),
(752,210,o),
(752,171,q),
(752,135,o),
(796,135,q),
(827,135,o),
(919,171,o),
(1020,236,o),
(1121,324,o),
(1160,375,q)
);
}
);
width = 928;
}
);
unicode = (181,956);
},
{
glyphname = percent;
layers = (
{
layerId = "DC66AB0F-19FD-4F06-8C39-5D32AA939720";
shapes = (
{
closed = 1;
nodes = (
(1530,472,o),
(1481,525,o),
(1435,525,q),
(1393,525,o),
(1315,466,o),
(1255,375,o),
(1218,263,o),
(1218,210,q),
(1218,187,o),
(1228,143,o),
(1250,108,o),
(1284,87,o),
(1308,87,q),
(1353,87,o),
(1434,148,o),
(1495,245,o),
(1530,366,o),
(1530,427,q)
);
},
{
closed = 1;
nodes = (
(701,920,o),
(656,980,o),
(615,980,q),
(567,980,o),
(485,923,o),
(425,832,o),
(390,716,o),
(390,657,q),
(390,634,o),
(402,589,o),
(424,553,o),
(458,530,o),
(480,530,q),
(526,530,o),
(607,589,o),
(667,683,o),
(701,800,o),
(701,857,q)
);
},
{
closed = 1;
nodes = (
(520,-247,o),
(493,-259,o),
(477,-259,q),
(462,-259,o),
(431,-248,o),
(406,-229,o),
(390,-203,o),
(390,-187,q),
(390,-165,o),
(405,-143,q),
(1147,932,l),
(1108,911,o),
(1035,881,o),
(958,860,o),
(876,846,o),
(828,841,q),
(828,750,o),
(766,592,o),
(665,475,o),
(535,407,o),
(468,407,q),
(414,407,o),
(336,448,o),
(284,518,o),
(259,612,o),
(259,665,q),
(259,745,o),
(320,901,o),
(425,1024,o),
(567,1099,o),
(648,1099,q),
(720,1099,o),
(812,1015,o),
(828,939,q),
(895,956,o),
(1007,1001,o),
(1111,1056,o),
(1215,1121,o),
(1275,1159,q),
(1296,1176,o),
(1336,1192,o),
(1353,1192,q),
(1383,1192,o),
(1422,1151,o),
(1422,1119,q),
(1422,1091,o),
(1406,1060,q),
(702,22,l),
(761,41,o),
(874,74,o),
(973,101,o),
(1054,121,o),
(1081,127,q),
(1075,157,o),
(1075,189,q),
(1075,277,o),
(1132,443,o),
(1231,571,o),
(1364,648,o),
(1440,648,q),
(1489,648,o),
(1573,618,o),
(1634,561,o),
(1669,481,o),
(1669,431,q),
(1669,338,o),
(1610,167,o),
(1508,37,o),
(1371,-40,o),
(1292,-40,q),
(1234,-40,o),
(1146,4,o),
(1118,42,q),
(958,-11,o),
(735,-110,o),
(664,-148,q),
(581,-193,o),
(529,-233,q)
);
}
);
width = 1769;
}
);
unicode = 37;
},
{
glyphname = perthousand;
layers = (
{
layerId = "DC66AB0F-19FD-4F06-8C39-5D32AA939720";
shapes = (
{
closed = 1;
nodes = (
(2065,472,o),
(2016,525,o),
(1970,525,q),
(1928,525,o),
(1850,466,o),
(1790,375,o),
(1753,263,o),
(1753,210,q),
(1753,187,o),
(1763,143,o),
(1785,108,o),
(1819,87,o),
(1843,87,q),
(1888,87,o),
(1969,148,o),
(2030,245,o),
(2065,366,o),
(2065,427,q)
);
},
{
closed = 1;
nodes = (
(1777,-40,o),
(1697,-5,o),
(1640,56,o),
(1610,140,o),
(1610,189,q),
(1610,277,o),
(1667,443,o),
(1766,571,o),
(1899,648,o),
(1975,648,q),
(2024,648,o),
(2108,618,o),
(2169,561,o),
(2204,481,o),
(2204,431,q),
(2204,338,o),
(2145,167,o),
(2043,37,o),
(1906,-40,o),
(1827,-40,q)
);
},
{
closed = 1;
nodes = (
(1374,472,o),
(1325,525,o),
(1279,525,q),
(1237,525,o),
(1159,466,o),
(1099,375,o),
(1062,263,o),
(1062,210,q),
(1062,187,o),
(1072,143,o),
(1094,108,o),
(1128,87,o),
(1152,87,q),
(1197,87,o),
(1278,148,o),
(1339,245,o),
(1374,366,o),
(1374,427,q)
);
},
{
closed = 1;
nodes = (
(545,920,o),
(500,980,o),
(459,980,q),
(411,980,o),
(329,923,o),
(269,832,o),
(234,716,o),
(234,657,q),
(234,634,o),
(246,589,o),
(268,553,o),
(302,530,o),
(324,530,q),
(370,530,o),
(451,589,o),
(511,683,o),
(545,800,o),
(545,857,q)
);
},
{
closed = 1;
nodes = (
(364,-247,o),
(337,-259,o),
(321,-259,q),
(306,-259,o),
(275,-248,o),
(250,-229,o),
(234,-203,o),
(234,-187,q),
(234,-165,o),
(249,-143,q),
(991,932,l),
(952,911,o),
(879,881,o),
(802,860,o),
(720,846,o),
(672,841,q),
(672,750,o),
(610,592,o),
(509,475,o),
(379,407,o),
(312,407,q),
(258,407,o),
(180,448,o),
(128,518,o),
(103,612,o),
(103,665,q),
(103,745,o),
(164,901,o),
(269,1024,o),
(411,1099,o),
(492,1099,q),
(564,1099,o),
(656,1015,o),
(672,939,q),
(739,956,o),
(851,1001,o),
(955,1056,o),
(1059,1121,o),
(1119,1159,q),
(1140,1176,o),
(1180,1192,o),
(1197,1192,q),
(1227,1192,o),
(1266,1151,o),
(1266,1119,q),
(1266,1091,o),
(1250,1060,q),
(546,22,l),
(605,41,o),
(718,74,o),
(817,101,o),
(898,121,o),
(925,127,q),
(919,157,o),
(919,189,q),
(919,277,o),
(976,443,o),
(1075,571,o),
(1208,648,o),
(1284,648,q),
(1333,648,o),
(1417,618,o),
(1478,561,o),
(1513,481,o),
(1513,431,q),
(1513,338,o),
(1454,167,o),
(1352,37,o),
(1215,-40,o),
(1136,-40,q),
(1078,-40,o),
(990,4,o),
(962,42,q),
(802,-11,o),
(579,-110,o),
(508,-148,q),
(425,-193,o),
(373,-233,q)
);
}
);
width = 2241;
}
);
unicode = 8240;
},
{
glyphname = uni030F;
layers = (
{
layerId = "DC66AB0F-19FD-4F06-8C39-5D32AA939720";
shapes = (
{
closed = 1;
nodes = (
(980,925,o),
(985,897,o),
(985,886,q),
(985,855,o),
(960,826,o),
(941,826,q),
(921,826,o),
(874,860,o),
(857,894,q),
(822,957,o),
(750,1081,o),
(715,1144,q),
(705,1161,o),
(697,1191,o),
(697,1207,q),
(697,1251,o),
(753,1307,o),
(790,1307,q),
(822,1307,o),
(886,1255,o),
(906,1192,q),
(923,1129,o),
(958,1005,o),
(976,942,q)
);
},
{
closed = 1;
nodes = (
(1336,925,o),
(1341,897,o),
(1341,886,q),
(1341,855,o),
(1316,826,o),
(1297,826,q),
(1277,826,o),
(1230,860,o),
(1213,894,q),
(1178,957,o),
(1106,1081,o),
(1071,1144,q),
(1061,1161,o),
(1053,1191,o),
(1053,1207,q),
(1053,1251,o),
(1109,1307,o),
(1146,1307,q),
(1178,1307,o),
(1242,1255,o),
(1262,1192,q),
(1279,1129,o),
(1314,1005,o),
(1332,942,q)
);
}
);
width = 2088;
}
);
unicode = 783;
},
{
glyphname = uni0311;
layers = (
{
layerId = "DC66AB0F-19FD-4F06-8C39-5D32AA939720";
shapes = (
{
closed = 1;
nodes = (
(1016,857,o),
(973,838,o),
(951,838,q),
(932,838,o),
(906,852,o),
(906,866,q),
(906,872,o),
(910,887,o),
(910,893,q),
(910,919,o),
(867,953,o),
(821,953,q),
(793,953,o),
(747,939,o),
(713,916,o),
(691,886,o),
(687,870,q),
(681,851,o),
(642,833,o),
(602,833,o),
(571,848,o),
(571,864,q),
(571,866,o),
(573,874,q),
(584,913,o),
(642,982,o),
(719,1034,o),
(809,1064,o),
(853,1064,q),
(938,1064,o),
(1028,983,o),
(1028,923,q),
(1028,898,o),
(1021,874,q)
);
}
);
width = 1221;
}
);
unicode = 785;
},
{
glyphname = dieresis;
layers = (
{
layerId = "DC66AB0F-19FD-4F06-8C39-5D32AA939720";
shapes = (
{
closed = 1;
nodes = (
(916,989,o),
(888,943,o),
(849,908,o),
(800,887,o),
(775,887,q),
(738,887,o),
(695,928,o),
(695,962,q),
(695,993,o),
(721,1048,o),
(763,1088,o),
(818,1112,o),
(847,1112,q),
(884,1112,o),
(923,1071,o),
(923,1037,q),
(923,1032,o),
(922,1020,o),
(921,1014,q)
);
},
{
closed = 1;
nodes = (
(1219,989,o),
(1191,943,o),
(1152,908,o),
(1103,887,o),
(1078,887,q),
(1041,887,o),
(998,928,o),
(998,962,q),
(998,993,o),
(1024,1048,o),
(1066,1088,o),
(1121,1112,o),
(1150,1112,q),
(1187,1112,o),
(1226,1071,o),
(1226,1037,q),
(1226,1032,o),
(1225,1020,o),
(1224,1014,q)
);
}
);
width = 1004;
}
);
unicode = 168;
},
{
glyphname = dotaccent;
layers = (
{
layerId = "DC66AB0F-19FD-4F06-8C39-5D32AA939720";
shapes = (
{
closed = 1;
nodes = (
(399,108,o),
(376,52,o),
(337,9,o),
(285,-16,o),
(256,-16,q),
(232,-16,o),
(190,3,o),
(159,35,o),
(141,78,o),
(141,102,q),
(141,132,o),
(164,187,o),
(204,229,o),
(258,254,o),
(289,254,q),
(338,254,o),
(399,188,o),
(399,139,q)
);
}
);
width = 448;
}
);
unicode = 729;
},
{
glyphname = grave;
layers = (
{
layerId = "DC66AB0F-19FD-4F06-8C39-5D32AA939720";
shapes = (
{
closed = 1;
nodes = (
(633,929,o),
(635,907,o),
(635,897,q),
(635,860,o),
(605,826,o),
(565,826,o),
(522,860,o),
(508,894,q),
(479,957,o),
(419,1081,o),
(390,1144,q),
(378,1171,o),
(378,1196,q),
(378,1220,o),
(396,1261,o),
(425,1290,o),
(462,1307,o),
(481,1307,q),
(513,1307,o),
(572,1255,o),
(586,1192,q),
(597,1129,o),
(620,1005,o),
(631,942,q)
);
}
);
width = 1044;
}
);
unicode = 96;
},
{
glyphname = acute;
layers = (
{
layerId = "DC66AB0F-19FD-4F06-8C39-5D32AA939720";
shapes = (
{
closed = 1;
nodes = (
(581,1005,o),
(654,1129,o),
(689,1192,q),
(727,1255,o),
(807,1307,o),
(839,1307,q),
(869,1307,o),
(907,1269,o),
(907,1238,q),
(907,1218,o),
(889,1170,o),
(866,1144,q),
(812,1081,o),
(703,957,o),
(649,894,q),
(623,860,o),
(565,826,o),
(545,826,q),
(514,826,o),
(514,858,q),
(514,887,o),
(545,942,q)
);
}
);
width = 1044;
}
);
unicode = 180;
},
{
glyphname = hungarumlaut;
layers = (
{
layerId = "DC66AB0F-19FD-4F06-8C39-5D32AA939720";
shapes = (
{
closed = 1;
nodes = (
(1073,1005,o),
(1146,1129,o),
(1181,1192,q),
(1219,1255,o),
(1299,1307,o),
(1331,1307,q),
(1361,1307,o),
(1399,1269,o),
(1399,1238,q),
(1399,1218,o),
(1381,1170,o),
(1358,1144,q),
(1304,1081,o),
(1195,957,o),
(1141,894,q),
(1115,860,o),
(1057,826,o),
(1037,826,q),
(1006,826,o),
(1006,858,q),
(1006,887,o),
(1037,942,q)
);
},
{
closed = 1;
nodes = (
(717,1005,o),
(790,1129,o),
(825,1192,q),
(863,1255,o),
(943,1307,o),
(975,1307,q),
(1005,1307,o),
(1043,1269,o),
(1043,1238,q),
(1043,1218,o),
(1025,1170,o),
(1002,1144,q),
(948,1081,o),
(839,957,o),
(785,894,q),
(759,860,o),
(701,826,o),
(681,826,q),
(650,826,o),
(650,858,q),
(650,887,o),
(681,942,q)
);
}
);
width = 2088;
}
);
unicode = 733;
},
{
glyphname = circumflex;
layers = (
{
layerId = "DC66AB0F-19FD-4F06-8C39-5D32AA939720";
shapes = (
{
closed = 1;
nodes = (
(925,998,o),
(1021,1083,o),
(1087,1141,o),
(1129,1175,o),
(1159,1194,o),
(1183,1199,o),
(1197,1199,q),
(1224,1199,o),
(1257,1173,o),
(1291,1109,o),
(1338,1001,o),
(1379,918,q),
(1382,910,o),
(1382,903,q),
(1382,891,o),
(1367,872,o),
(1343,858,o),
(1313,850,o),
(1298,850,q),
(1276,850,o),
(1239,865,o),
(1231,882,q),
(1224,898,o),
(1200,953,o),
(1188,979,q),
(1174,1010,o),
(1158,1043,q),
(1122,1010,o),
(1089,979,q),
(1061,953,o),
(1003,898,o),
(985,882,q),
(959,859,o),
(930,859,q),
(913,859,o),
(882,868,o),
(858,883,o),
(844,903,o),
(844,913,q),
(844,927,o),
(857,939,q)
);
}
);
width = 1221;
}
);
unicode = 710;
},
{
glyphname = caron;
layers = (
{
layerId = "DC66AB0F-19FD-4F06-8C39-5D32AA939720";
shapes = (
{
closed = 1;
nodes = (
(1332,1051,o),
(1230,967,o),
(1159,909,o),
(1114,875,o),
(1083,856,o),
(1059,851,o),
(1045,851,q),
(1018,851,o),
(987,877,o),
(957,941,o),
(919,1049,o),
(885,1132,q),
(881,1142,o),
(881,1146,q),
(881,1158,o),
(898,1178,o),
(924,1192,o),
(955,1200,o),
(970,1200,q),
(991,1200,o),
(1029,1185,o),
(1035,1168,q),
(1041,1152,o),
(1061,1098,o),
(1071,1072,q),
(1080,1045,o),
(1088,1026,q),
(1096,1007,l),
(1134,1040,o),
(1169,1071,q),
(1199,1097,o),
(1261,1151,o),
(1281,1168,q),
(1308,1191,o),
(1337,1191,q),
(1353,1191,o),
(1383,1182,o),
(1405,1168,o),
(1419,1149,o),
(1419,1139,q),
(1419,1123,o),
(1405,1111,q)
);
}
);
width = 1221;
}
);
unicode = 711;
},
{
glyphname = breve;
layers = (
{
layerId = "DC66AB0F-19FD-4F06-8C39-5D32AA939720";
shapes = (
{
closed = 1;
nodes = (
(640,1041,o),
(687,1060,o),
(709,1060,q),
(726,1060,o),
(749,1048,o),
(749,1037,q),
(749,1028,o),
(738,1003,o),
(738,993,q),
(738,972,o),
(775,945,o),
(816,945,q),
(843,945,o),
(891,959,o),
(930,982,o),
(959,1012,o),
(967,1028,q),
(976,1047,o),
(1018,1065,o),
(1039,1065,q),
(1057,1065,o),
(1084,1052,o),
(1084,1039,q),
(1084,1031,o),
(1080,1024,q),
(1061,985,o),
(989,916,o),
(900,864,o),
(804,834,o),
(760,834,q),
(685,834,o),
(611,896,o),
(611,945,q),
(611,982,o),
(632,1024,q)
);
}
);
width = 1221;
}
);
unicode = 728;
},
{
glyphname = ring;
layers = (
{
layerId = "DC66AB0F-19FD-4F06-8C39-5D32AA939720";
shapes = (
{
closed = 1;
nodes = (
(853,1122,o),
(809,1101,o),
(777,1067,o),
(759,1026,o),
(759,1006,q),
(759,980,o),
(793,945,o),
(830,945,q),
(857,945,o),
(901,966,o),
(932,999,o),
(950,1039,o),
(950,1059,q),
(950,1085,o),
(917,1122,o),
(879,1122,q)
);
},
{
closed = 1;
nodes = (
(1032,995,o),
(983,930,o),
(918,881,o),
(842,852,o),
(805,852,q),
(774,852,o),
(721,873,o),
(683,910,o),
(662,960,o),
(662,989,q),
(662,1032,o),
(706,1113,o),
(776,1176,o),
(862,1214,o),
(904,1214,q),
(935,1214,o),
(988,1193,o),
(1026,1157,o),
(1048,1107,o),
(1048,1077,q),
(1048,1055,o),
(1042,1031,q)
);
}
);
width = 1221;
}
);
unicode = 730;
},
{
glyphname = tilde;
layers = (
{
layerId = "DC66AB0F-19FD-4F06-8C39-5D32AA939720";
shapes = (
{
closed = 1;
nodes = (
(1422,948,o),
(1382,883,o),
(1334,835,o),
(1277,807,o),
(1243,807,q),
(1237,807,o),
(1225,808,o),
(1219,809,q),
(1207,810,o),
(1157,829,o),
(1098,852,o),
(1037,873,o),
(1014,877,q),
(1012,877,o),
(1008,878,o),
(1006,878,q),
(997,878,o),
(985,869,o),
(976,856,o),
(970,842,o),
(967,837,q),
(955,814,o),
(904,794,o),
(883,794,q),
(860,794,o),
(826,812,o),
(826,827,q),
(826,834,o),
(828,837,q),
(846,876,o),
(892,942,o),
(946,988,o),
(1004,1014,o),
(1034,1014,q),
(1054,1014,o),
(1104,993,o),
(1160,969,o),
(1219,948,o),
(1249,948,q),
(1270,948,o),
(1300,969,o),
(1308,986,q),
(1319,1012,o),
(1365,1035,o),
(1411,1035,o),
(1443,1014,o),
(1443,997,q),
(1443,995,l),
(1443,993,o),
(1441,990,o),
(1440,986,q)
);
}
);
width = 1221;
}
);
unicode = 732;
},
{
glyphname = cedilla;
layers = (
{
layerId = "DC66AB0F-19FD-4F06-8C39-5D32AA939720";
shapes = (
{
closed = 1;
nodes = (
(627,-273,o),
(589,-358,o),
(524,-422,o),
(437,-459,o),
(389,-459,q),
(338,-459,o),
(277,-424,o),
(277,-398,q),
(277,-391,o),
(284,-373,o),
(296,-358,o),
(314,-348,o),
(325,-348,q),
(342,-348,o),
(380,-361,o),
(397,-361,q),
(422,-361,o),
(464,-342,o),
(495,-310,o),
(512,-266,o),
(512,-242,q),
(512,-213,o),
(493,-189,o),
(471,-184,q),
(454,-184,o),
(415,-193,o),
(378,-203,o),
(345,-212,o),
(333,-212,q),
(313,-212,o),
(313,-195,q),
(313,-177,o),
(339,-131,q),
(412,0,l),
(526,0,l),
(438,-131,l),
(457,-125,o),
(499,-111,o),
(516,-111,q),
(567,-111,o),
(627,-171,o),
(627,-225,q)
);
}
